<?xml version="1.0" standalone="no"?>
<!DOCTYPE svg PUBLIC "-//W3C//DTD SVG 20010904//EN"
 "http://www.w3.org/TR/2001/REC-SVG-20010904/DTD/svg10.dtd">
<svg version="1.0" xmlns="http://www.w3.org/2000/svg"
 width="260.000000pt" height="260.000000pt" viewBox="0 0 260.000000 260.000000"
 preserveAspectRatio="xMidYMid meet">
<metadata>
Created by potrace 1.14, written by Peter Selinger 2001-2017
</metadata>
<g transform="translate(0.000000,260.000000) scale(0.100000,-0.100000)"
fill="#000000" stroke="none">
<path d="M0 2255 l0 -345 158 0 c286 0 380 -39 448 -185 17 -35 24 -68 24
-110 0 -108 -30 -172 -108 -232 l-43 -33 65 -30 c69 -33 121 -83 158 -152 19
-36 23 -59 23 -133 0 -77 -4 -98 -26 -145 -55 -115 -141 -179 -270 -199 -35
-6 -146 -11 -246 -11 l-183 0 0 -340 0 -340 1300 0 1300 0 -1 598 c-1 328 -5
576 -9 550 -40 -233 -182 -397 -405 -464 -82 -25 -302 -26 -395 -1 -177 47
-326 165 -407 322 -49 97 -60 129 -73 222 -35 253 109 528 335 638 91 45 168
64 285 72 211 13 377 -42 542 -180 l60 -49 -34 -35 c-56 -58 -63 -59 -115 -13
-143 125 -355 184 -533 146 -116 -25 -193 -67 -280 -155 -69 -69 -78 -83 -103
-159 -71 -214 -30 -397 123 -553 108 -110 237 -162 400 -163 152 0 253 38 356
136 55 52 100 131 110 197 l7 41 -197 0 -196 0 0 60 0 60 265 0 265 0 0 665 0
665 -1300 0 -1300 0 0 -345z m1080 -960 l0 -615 -60 0 -60 0 0 615 0 615 60 0
60 0 0 -615z"/>
<path d="M120 1591 l0 -201 38 0 c20 0 74 4 119 10 121 14 184 52 218 132 37
90 7 178 -79 224 -46 26 -63 29 -173 32 l-123 4 0 -201z"/>
<path d="M120 1034 l0 -237 143 6 c210 9 262 30 311 129 62 125 15 249 -119
310 -43 19 -70 23 -192 26 l-143 4 0 -238z"/>
</g>
</svg>
