<svg viewBox="0 0 456 301" fill="none" xmlns="http://www.w3.org/2000/svg">
    <path d="M0 4.00488C0 1.79574 1.79086 0.00488281 4 0.00488281H451.603C453.812 0.00488281 455.603 1.79574 455.603 4.00488V296.005C455.603 298.214 453.812 300.005 451.603 300.005H4.00001C1.79087 300.005 0 298.214 0 296.005V4.00488Z" fill="white"/>
    <path d="M161.43 127.595H163.63V132.558L163.53 134.472H163.63L168.43 127.595H170.63V137.761H168.43V132.797L168.53 130.884H168.43L163.63 137.761H161.43V127.595Z" fill="#C7CCD4"/>
    <path d="M178.048 138.08C177.208 138.08 176.435 137.92 175.728 137.601C175.022 137.282 174.402 136.83 173.868 136.246L175.288 134.85C176.128 135.728 177.048 136.166 178.048 136.166C178.688 136.166 179.202 136.04 179.588 135.787C179.975 135.535 180.168 135.203 180.168 134.791C180.168 134.405 180.002 134.086 179.668 133.834C179.348 133.568 178.908 133.435 178.348 133.435H176.748V131.761H178.248C178.715 131.761 179.102 131.648 179.408 131.422C179.728 131.183 179.888 130.85 179.888 130.425C179.888 130.08 179.722 129.781 179.388 129.528C179.068 129.276 178.635 129.149 178.088 129.149C177.595 129.149 177.155 129.229 176.768 129.389C176.382 129.548 176.015 129.807 175.668 130.166L174.288 128.85C174.808 128.306 175.368 127.907 175.968 127.654C176.568 127.402 177.275 127.276 178.088 127.276C178.822 127.276 179.482 127.409 180.068 127.674C180.668 127.94 181.135 128.299 181.468 128.751C181.802 129.203 181.968 129.701 181.968 130.246C181.968 131.282 181.535 132.02 180.668 132.458V132.578C181.202 132.804 181.615 133.123 181.908 133.535C182.202 133.947 182.348 134.412 182.348 134.93C182.348 135.9 181.962 136.671 181.188 137.242C180.415 137.801 179.368 138.08 178.048 138.08Z" fill="#C7CCD4"/>
    <path d="M190.281 138.08C189.254 138.08 188.334 137.847 187.521 137.382C186.707 136.904 186.074 136.252 185.621 135.429C185.167 134.605 184.941 133.688 184.941 132.678C184.941 131.668 185.167 130.751 185.621 129.927C186.074 129.103 186.707 128.458 187.521 127.993C188.334 127.515 189.254 127.276 190.281 127.276C191.307 127.276 192.227 127.515 193.041 127.993C193.854 128.472 194.487 129.123 194.941 129.947C195.394 130.771 195.621 131.681 195.621 132.678C195.621 133.688 195.394 134.605 194.941 135.429C194.487 136.252 193.854 136.904 193.041 137.382C192.227 137.847 191.307 138.08 190.281 138.08ZM190.281 136.066C190.841 136.066 191.361 135.933 191.841 135.668C192.321 135.389 192.701 134.997 192.981 134.492C193.274 133.973 193.421 133.369 193.421 132.678C193.421 131.987 193.274 131.389 192.981 130.884C192.701 130.379 192.321 129.993 191.841 129.727C191.361 129.448 190.841 129.309 190.281 129.309C189.721 129.309 189.201 129.448 188.721 129.727C188.241 129.993 187.854 130.379 187.561 130.884C187.281 131.389 187.141 131.987 187.141 132.678C187.141 133.369 187.281 133.973 187.561 134.492C187.854 134.997 188.241 135.389 188.721 135.668C189.201 135.933 189.721 136.066 190.281 136.066Z" fill="#C7CCD4"/>
    <path d="M203.849 138.08C202.823 138.08 201.903 137.847 201.089 137.382C200.289 136.904 199.656 136.166 199.189 135.169C198.723 134.173 198.489 132.917 198.489 131.402C198.489 129.807 198.669 128.518 199.029 127.535C199.389 126.551 199.889 125.767 200.529 125.183C201.009 124.744 201.589 124.405 202.269 124.166C202.949 123.914 203.683 123.787 204.469 123.787C204.963 123.787 205.336 123.767 205.589 123.727C205.843 123.674 206.023 123.608 206.129 123.528C206.236 123.435 206.316 123.309 206.369 123.149H208.409C208.249 124.106 207.876 124.764 207.289 125.123C206.703 125.482 205.816 125.661 204.629 125.661C203.976 125.661 203.443 125.741 203.029 125.9C202.629 126.046 202.276 126.252 201.969 126.518C201.236 127.183 200.809 128.026 200.689 129.05H200.809C201.156 128.545 201.629 128.126 202.229 127.794C202.843 127.448 203.569 127.276 204.409 127.276C205.303 127.276 206.116 127.522 206.849 128.013C207.583 128.492 208.156 129.149 208.569 129.987C208.983 130.811 209.189 131.708 209.189 132.678C209.189 133.688 208.963 134.605 208.509 135.429C208.056 136.252 207.423 136.904 206.609 137.382C205.796 137.847 204.876 138.08 203.849 138.08ZM203.849 136.066C204.409 136.066 204.929 135.933 205.409 135.668C205.889 135.389 206.269 134.997 206.549 134.492C206.843 133.973 206.989 133.369 206.989 132.678C206.989 131.987 206.843 131.389 206.549 130.884C206.269 130.379 205.889 129.993 205.409 129.727C204.929 129.448 204.409 129.309 203.849 129.309C203.289 129.309 202.769 129.448 202.289 129.727C201.823 129.993 201.443 130.379 201.149 130.884C200.869 131.389 200.729 131.987 200.729 132.678C200.729 133.369 200.869 133.973 201.149 134.492C201.443 134.997 201.823 135.389 202.289 135.668C202.769 135.933 203.289 136.066 203.849 136.066Z" fill="#C7CCD4"/>
    <path d="M211.952 127.595H214.052V128.93H214.152C214.445 128.465 214.879 128.073 215.452 127.754C216.025 127.435 216.672 127.276 217.392 127.276C218.312 127.276 219.145 127.508 219.892 127.973C220.639 128.438 221.225 129.083 221.652 129.907C222.092 130.718 222.312 131.641 222.312 132.678C222.312 133.714 222.092 134.644 221.652 135.468C221.225 136.279 220.639 136.917 219.892 137.382C219.145 137.847 218.312 138.08 217.392 138.08C216.672 138.08 216.025 137.92 215.452 137.601C214.879 137.282 214.445 136.897 214.152 136.445H214.052L214.152 137.86V142.066H211.952V127.595ZM217.072 136.066C217.605 136.066 218.105 135.927 218.572 135.648C219.039 135.369 219.412 134.97 219.692 134.452C219.972 133.933 220.112 133.342 220.112 132.678C220.112 132.013 219.972 131.428 219.692 130.924C219.412 130.405 219.039 130.007 218.572 129.727C218.105 129.448 217.605 129.309 217.072 129.309C216.539 129.309 216.039 129.448 215.572 129.727C215.119 130.007 214.752 130.405 214.472 130.924C214.192 131.428 214.052 132.013 214.052 132.678C214.052 133.342 214.192 133.933 214.472 134.452C214.752 134.97 215.119 135.369 215.572 135.648C216.039 135.927 216.539 136.066 217.072 136.066Z" fill="#C7CCD4"/>
    <path d="M228.517 138.08C227.784 138.08 227.13 137.94 226.557 137.661C225.984 137.369 225.537 136.963 225.217 136.445C224.897 135.914 224.737 135.316 224.737 134.651C224.737 133.601 225.13 132.771 225.917 132.159C226.717 131.548 227.724 131.242 228.937 131.242C229.537 131.242 230.077 131.302 230.557 131.422C231.037 131.528 231.417 131.648 231.697 131.781V131.262C231.697 130.638 231.464 130.133 230.997 129.747C230.53 129.349 229.93 129.149 229.197 129.149C228.677 129.149 228.184 129.262 227.717 129.488C227.264 129.714 226.897 130.027 226.617 130.425L225.077 129.249C225.53 128.625 226.117 128.139 226.837 127.794C227.557 127.448 228.357 127.276 229.237 127.276C230.717 127.276 231.857 127.641 232.657 128.372C233.457 129.09 233.857 130.106 233.857 131.422V137.761H231.697V136.545H231.597C231.304 136.983 230.89 137.349 230.357 137.641C229.824 137.933 229.21 138.08 228.517 138.08ZM228.897 136.266C229.43 136.266 229.91 136.139 230.337 135.887C230.764 135.634 231.097 135.296 231.337 134.87C231.577 134.445 231.697 133.987 231.697 133.495C231.39 133.322 231.03 133.183 230.617 133.076C230.217 132.97 229.797 132.917 229.357 132.917C228.53 132.917 227.924 133.083 227.537 133.415C227.15 133.734 226.957 134.153 226.957 134.671C226.957 135.136 227.137 135.522 227.497 135.827C227.857 136.12 228.324 136.266 228.897 136.266Z" fill="#C7CCD4"/>
    <path d="M236.055 137.641L240.255 132.399L236.275 127.714V127.595H238.895L242.495 131.98H242.615V127.595H244.815V131.98H244.935L248.555 127.595H251.175V127.714L247.155 132.399L251.375 137.641V137.761H248.735L244.935 132.877H244.815V137.761H242.615V132.877H242.495L238.695 137.761H236.055V137.641Z" fill="#C7CCD4"/>
    <path d="M258.208 138.08C257.208 138.08 256.308 137.847 255.508 137.382C254.721 136.917 254.101 136.279 253.648 135.468C253.208 134.644 252.988 133.721 252.988 132.698C252.988 131.728 253.201 130.83 253.628 130.007C254.068 129.169 254.674 128.505 255.448 128.013C256.221 127.522 257.101 127.276 258.088 127.276C259.114 127.276 260.001 127.502 260.748 127.953C261.508 128.405 262.081 129.023 262.468 129.807C262.868 130.591 263.068 131.475 263.068 132.458C263.068 132.644 263.048 132.877 263.008 133.156H255.188C255.268 134.1 255.601 134.83 256.188 135.349C256.788 135.854 257.481 136.106 258.268 136.106C258.894 136.106 259.434 135.967 259.888 135.688C260.354 135.395 260.728 135.003 261.008 134.512L262.868 135.389C262.388 136.226 261.761 136.884 260.988 137.362C260.214 137.84 259.288 138.08 258.208 138.08ZM260.828 131.482C260.801 131.123 260.688 130.771 260.488 130.425C260.288 130.066 259.981 129.767 259.568 129.528C259.168 129.289 258.674 129.169 258.088 129.169C257.381 129.169 256.781 129.382 256.288 129.807C255.808 130.219 255.474 130.777 255.288 131.482H260.828Z" fill="#C7CCD4"/>
    <path d="M266.071 127.595H268.271V131.621H273.191V127.595H275.391V137.761H273.191V133.674H268.271V137.761H266.071V127.595Z" fill="#C7CCD4"/>
    <path d="M278.946 127.595H281.146V132.558L281.046 134.472H281.146L285.946 127.595H288.146V137.761H285.946V132.797L286.046 130.884H285.946L281.146 137.761H278.946V127.595Z" fill="#C7CCD4"/>
    <path d="M296.266 138.08C295.266 138.08 294.366 137.847 293.566 137.382C292.78 136.917 292.16 136.279 291.706 135.468C291.266 134.644 291.046 133.721 291.046 132.698C291.046 131.728 291.26 130.83 291.686 130.007C292.126 129.169 292.733 128.505 293.506 128.013C294.28 127.522 295.16 127.276 296.146 127.276C297.173 127.276 298.06 127.502 298.806 127.953C299.566 128.405 300.14 129.023 300.526 129.807C300.926 130.591 301.126 131.475 301.126 132.458C301.126 132.644 301.106 132.877 301.066 133.156H293.246C293.326 134.1 293.66 134.83 294.246 135.349C294.846 135.854 295.54 136.106 296.326 136.106C296.953 136.106 297.493 135.967 297.946 135.688C298.413 135.395 298.786 135.003 299.066 134.512L300.926 135.389C300.446 136.226 299.82 136.884 299.046 137.362C298.273 137.84 297.346 138.08 296.266 138.08ZM298.886 131.482C298.86 131.123 298.746 130.771 298.546 130.425C298.346 130.066 298.04 129.767 297.626 129.528C297.226 129.289 296.733 129.169 296.146 129.169C295.44 129.169 294.84 129.382 294.346 129.807C293.866 130.219 293.533 130.777 293.346 131.482H298.886Z" fill="#C7CCD4"/>
    <path d="M173.74 158.013C172.713 158.013 171.793 157.781 170.98 157.316C170.166 156.837 169.533 156.186 169.08 155.362C168.626 154.538 168.4 153.621 168.4 152.611C168.4 151.601 168.626 150.684 169.08 149.86C169.533 149.036 170.166 148.392 170.98 147.927C171.793 147.448 172.713 147.209 173.74 147.209C174.766 147.209 175.686 147.448 176.5 147.927C177.313 148.405 177.946 149.056 178.4 149.88C178.853 150.704 179.08 151.615 179.08 152.611C179.08 153.621 178.853 154.538 178.4 155.362C177.946 156.186 177.313 156.837 176.5 157.316C175.686 157.781 174.766 158.013 173.74 158.013ZM173.74 156C174.3 156 174.82 155.867 175.3 155.601C175.78 155.322 176.16 154.93 176.44 154.425C176.733 153.907 176.88 153.302 176.88 152.611C176.88 151.92 176.733 151.322 176.44 150.817C176.16 150.312 175.78 149.927 175.3 149.661C174.82 149.382 174.3 149.242 173.74 149.242C173.18 149.242 172.66 149.382 172.18 149.661C171.7 149.927 171.313 150.312 171.02 150.817C170.74 151.322 170.6 151.92 170.6 152.611C170.6 153.302 170.74 153.907 171.02 154.425C171.313 154.93 171.7 155.322 172.18 155.601C172.66 155.867 173.18 156 173.74 156Z" fill="#C7CCD4"/>
    <path d="M184.433 149.561H181.193V147.528H189.893V149.561H186.633V157.694H184.433V149.561Z" fill="#C7CCD4"/>
    <path d="M197.262 158.013C196.248 158.013 195.335 157.781 194.522 157.316C193.722 156.85 193.095 156.213 192.642 155.402C192.202 154.578 191.982 153.648 191.982 152.611C191.982 151.575 192.202 150.651 192.642 149.84C193.095 149.017 193.722 148.372 194.522 147.907C195.335 147.442 196.248 147.209 197.262 147.209C198.382 147.209 199.335 147.462 200.122 147.967C200.908 148.472 201.468 149.156 201.802 150.02L199.782 150.857C199.328 149.781 198.468 149.242 197.202 149.242C196.655 149.242 196.148 149.382 195.682 149.661C195.228 149.94 194.862 150.339 194.582 150.857C194.315 151.362 194.182 151.947 194.182 152.611C194.182 153.276 194.315 153.867 194.582 154.385C194.862 154.904 195.228 155.302 195.682 155.581C196.148 155.86 196.655 156 197.202 156C197.842 156 198.388 155.86 198.842 155.581C199.308 155.289 199.662 154.877 199.902 154.345L201.882 155.203C201.495 156.066 200.908 156.751 200.122 157.256C199.335 157.761 198.382 158.013 197.262 158.013Z" fill="#C7CCD4"/>
    <path d="M207.873 157.136L203.633 147.528H206.093L208.973 154.445H209.053L211.853 147.528H214.273L207.973 162H205.653L207.873 157.136Z" fill="#C7CCD4"/>
    <path d="M219.23 149.561H215.99V147.528H224.69V149.561H221.43V157.694H219.23V149.561Z" fill="#C7CCD4"/>
    <path d="M232.059 158.013C231.045 158.013 230.132 157.781 229.319 157.316C228.519 156.85 227.892 156.213 227.439 155.402C226.999 154.578 226.779 153.648 226.779 152.611C226.779 151.575 226.999 150.651 227.439 149.84C227.892 149.017 228.519 148.372 229.319 147.907C230.132 147.442 231.045 147.209 232.059 147.209C233.179 147.209 234.132 147.462 234.919 147.967C235.705 148.472 236.265 149.156 236.599 150.02L234.579 150.857C234.125 149.781 233.265 149.242 231.999 149.242C231.452 149.242 230.945 149.382 230.479 149.661C230.025 149.94 229.659 150.339 229.379 150.857C229.112 151.362 228.979 151.947 228.979 152.611C228.979 153.276 229.112 153.867 229.379 154.385C229.659 154.904 230.025 155.302 230.479 155.581C230.945 155.86 231.452 156 231.999 156C232.639 156 233.185 155.86 233.639 155.581C234.105 155.289 234.459 154.877 234.699 154.345L236.679 155.203C236.292 156.066 235.705 156.751 234.919 157.256C234.132 157.761 233.179 158.013 232.059 158.013Z" fill="#C7CCD4"/>
    <path d="M242.07 149.561H238.83V147.528H247.53V149.561H244.27V157.694H242.07V149.561Z" fill="#C7CCD4"/>
    <path d="M250.374 147.528H255.474C256.06 147.528 256.594 147.648 257.074 147.887C257.554 148.113 257.927 148.432 258.194 148.844C258.474 149.242 258.614 149.688 258.614 150.179C258.614 150.698 258.494 151.149 258.254 151.535C258.027 151.92 257.72 152.206 257.334 152.392V152.512C257.84 152.711 258.24 153.01 258.534 153.409C258.827 153.807 258.974 154.266 258.974 154.784C258.974 155.355 258.82 155.867 258.514 156.319C258.22 156.757 257.827 157.096 257.334 157.336C256.84 157.575 256.314 157.694 255.754 157.694H250.374V147.528ZM255.234 151.654C255.58 151.654 255.867 151.548 256.094 151.336C256.334 151.11 256.454 150.831 256.454 150.498C256.454 150.166 256.334 149.894 256.094 149.681C255.867 149.455 255.58 149.342 255.234 149.342H252.514V151.654H255.234ZM255.534 155.84C255.907 155.84 256.22 155.721 256.474 155.482C256.727 155.242 256.854 154.943 256.854 154.585C256.854 154.226 256.727 153.927 256.474 153.688C256.22 153.435 255.907 153.309 255.534 153.309H252.514V155.84H255.534Z" fill="#C7CCD4"/>
    <path d="M265.002 157.136L260.762 147.528H263.222L266.102 154.445H266.182L268.982 147.528H271.402L265.102 162H262.782L265.002 157.136Z" fill="#C7CCD4"/>
    <path d="M278.108 158.013C277.108 158.013 276.208 157.781 275.408 157.316C274.621 156.85 274.001 156.213 273.548 155.402C273.108 154.578 272.888 153.654 272.888 152.631C272.888 151.661 273.101 150.764 273.528 149.94C273.968 149.103 274.575 148.438 275.348 147.947C276.121 147.455 277.001 147.209 277.988 147.209C279.015 147.209 279.901 147.435 280.648 147.887C281.408 148.339 281.981 148.957 282.368 149.741C282.768 150.525 282.968 151.409 282.968 152.392C282.968 152.578 282.948 152.811 282.908 153.09H275.088C275.168 154.033 275.501 154.764 276.088 155.282C276.688 155.787 277.381 156.04 278.168 156.04C278.795 156.04 279.335 155.9 279.788 155.621C280.255 155.329 280.628 154.937 280.908 154.445L282.768 155.322C282.288 156.159 281.661 156.817 280.888 157.296C280.115 157.774 279.188 158.013 278.108 158.013ZM280.728 151.415C280.701 151.056 280.588 150.704 280.388 150.359C280.188 150 279.881 149.701 279.468 149.462C279.068 149.223 278.575 149.103 277.988 149.103C277.281 149.103 276.681 149.316 276.188 149.741C275.708 150.153 275.375 150.711 275.188 151.415H280.728Z" fill="#C7CCD4"/>
    <path d="M288.296 149.561H285.056V147.528H293.756V149.561H290.496V157.694H288.296V149.561Z" fill="#C7CCD4"/>
    <path fill-rule="evenodd" clip-rule="evenodd" d="M178.605 84.8716H180.506V66.0067H178.605V84.8716ZM157.654 87.2872C157.654 92.2047 153.63 96.1906 148.673 96.1906C145.267 96.1906 142.943 93.855 140.78 91.5393L131 81.0986L140.78 70.658C142.943 68.3423 145.267 66.0067 148.673 66.0067C153.637 66.0067 157.654 69.9926 157.654 74.9035V74.9101C157.654 77.7915 155.29 80.1271 152.381 80.1271C149.486 80.1271 147.128 77.8114 147.108 74.9434V74.9035C147.108 74.0451 147.807 73.353 148.673 73.353C149.54 73.353 150.238 74.0451 150.238 74.9035C150.238 75.9149 151.071 76.7401 152.092 76.7401C153.113 76.7401 153.946 75.9149 153.946 74.9035C153.946 72.0155 151.582 69.6798 148.673 69.6798C145.758 69.6798 143.4 72.0222 143.4 74.9035C143.4 76.261 143.924 77.492 144.777 78.4236C145.12 78.8428 145.617 79.3552 146.322 80.0206C145.254 79.129 143.81 78.5833 142.225 78.5833C142.104 78.5833 141.989 78.59 141.869 78.59C141.761 78.5833 141.66 78.5833 141.553 78.5833C139.638 78.5833 137.966 79.5881 137.039 81.0986C137.966 82.6092 139.638 83.614 141.553 83.614C141.66 83.614 141.768 83.6073 141.869 83.6073C141.983 83.614 142.104 83.614 142.225 83.614C143.81 83.614 145.254 83.0683 146.322 82.1766C145.623 82.8354 145.126 83.3545 144.777 83.7737C143.924 84.7053 143.4 85.9363 143.4 87.2938C143.4 90.1818 145.765 92.5175 148.673 92.5175C151.588 92.5175 153.946 90.1751 153.946 87.2938C153.946 86.2824 153.113 85.4572 152.092 85.4572C151.071 85.4572 150.238 86.2824 150.238 87.2938C150.238 88.1522 149.54 88.8443 148.673 88.8443C147.807 88.8443 147.108 88.1522 147.108 87.2938V87.2539C147.128 84.3859 149.486 82.0702 152.381 82.0702C155.296 82.0635 157.654 84.3992 157.654 87.2872ZM207.624 96.184L204.07 88.638H203.56L203.399 88.984L200.013 96.184H200.853L202.096 93.5422H205.548L206.791 96.184H207.624ZM324.901 96.184H325.66V90.3016L330.228 95.6982L330.644 96.184H330.993V95.4187V88.6446H330.234V94.5271L325.666 89.1304L325.25 88.6446H324.901V89.4099V96.184ZM288.184 96.184H290.851C292.947 96.184 294.66 94.4871 294.66 92.411C294.66 90.3348 292.947 88.638 290.851 88.638H288.184V96.184ZM288.943 95.432V89.3966H290.844C292.517 89.3966 293.894 90.7541 293.894 92.4176C293.894 94.0746 292.523 95.4387 290.844 95.4387H288.943V95.432ZM307.604 96.184H308.363V92.9433L311.634 96.184H312.709L308.9 92.411L312.709 88.638H311.634L308.363 91.8786V88.638H307.604V91.1201V92.1847V92.6239V93.6886V96.184ZM301.135 96.184C302.599 96.184 303.802 94.9929 303.802 93.5422V88.638H303.043V93.5422C303.043 94.5803 302.183 95.4254 301.142 95.4254C300.094 95.4254 299.241 94.5736 299.241 93.5422V88.638H298.482V93.5422C298.468 94.9995 299.664 96.184 301.135 96.184ZM316.524 96.184H317.283H321.092V95.432H317.283V92.7903H321.092V92.0383H317.283V89.3966H321.092V88.6446H317.283H316.524V89.3966V92.0383V92.7903V95.432V96.184ZM276.12 96.184H276.879H280.688V95.432H276.879V92.7903H280.688V92.0383H276.879V89.3966H280.688V88.6446H276.879H276.12V89.3966V92.0383V92.7903V95.432V96.184ZM266.219 96.184H266.978V90.3016L271.545 95.6982L271.962 96.184H272.311V95.4187V88.6446H271.552V94.5271L266.984 89.1304L266.568 88.6446H266.219V89.4099V96.184ZM261.651 96.184H262.41V88.6446H261.651V96.184ZM253.274 96.184H254.034H257.842V95.432H254.034V88.6446H253.274V95.432V96.184ZM243.373 96.184H244.132V90.3016L248.7 95.6982L249.116 96.184H249.466V95.4187V88.6446H248.707V94.5271L244.139 89.1304L243.723 88.6446H243.373V89.4099V96.184ZM235.756 88.6446C237.858 88.6446 239.565 90.3348 239.565 92.4176C239.565 94.5004 237.858 96.1906 235.756 96.1906C233.653 96.1906 231.947 94.5004 231.947 92.4176C231.947 90.3282 233.653 88.6446 235.756 88.6446ZM235.756 89.3966C234.07 89.3966 232.706 90.7474 232.706 92.4176C232.706 94.0812 234.07 95.4387 235.756 95.4387C237.435 95.4387 238.805 94.0879 238.805 92.4176C238.799 90.7474 237.435 89.3966 235.756 89.3966ZM221.273 96.184H222.032V92.7903L224.451 88.638H223.571L221.65 91.9319L219.728 88.638H218.848L221.267 92.7903V96.184H221.273ZM211.433 96.184H212.192H216V95.432H212.192V88.6446H211.433V95.432V96.184ZM190.676 96.184H193.343C195.439 96.184 197.152 94.4871 197.152 92.411C197.152 90.3348 195.439 88.638 193.343 88.638H190.676V96.184ZM191.435 95.432V89.3966H193.336C195.009 89.3966 196.386 90.7541 196.386 92.4176C196.386 94.0746 195.016 95.4387 193.336 95.4387H191.435V95.432ZM183.684 96.184H184.443V92.7903L186.861 88.638H185.981L184.066 91.9385L182.145 88.6446H181.265L183.684 92.7969V96.184ZM178.41 96.184L174.864 88.6446H174.353L174.192 88.9907L170.807 96.1906H171.646L172.889 93.5489H176.342L177.584 96.1906H178.41V96.184ZM173.231 92.7903L174.602 89.8823L175.972 92.7903H173.231ZM163.371 88.6446H164.13H165.842C166.991 88.6446 167.938 89.5762 167.938 90.7208C167.938 91.8653 166.998 92.7969 165.842 92.7969H164.13V96.1906H163.371V92.7969V92.045V89.4032V88.6446ZM164.13 89.3966V92.0383H165.842C166.575 92.0383 167.173 91.4395 167.173 90.7208C167.173 89.9955 166.568 89.4032 165.842 89.4032H164.13V89.3966ZM202.445 92.7903L203.815 89.8823L205.186 92.7903H202.445ZM163.371 84.8716H165.272H169.557C172.439 84.8716 174.797 82.536 174.797 79.6813C174.797 77.4654 173.373 75.5623 171.391 74.8236C172.318 73.8854 172.896 72.6011 172.896 71.197C172.896 68.3423 170.538 66.0067 167.656 66.0067H165.278H163.377V67.8898V74.4909V76.3741V82.9752V84.8716H163.371ZM167.656 74.4976H165.278V67.8898H167.656C169.483 67.8898 170.988 69.3804 170.988 71.1904C170.988 73.007 169.483 74.4976 167.656 74.4976ZM165.272 82.9818V76.3807H167.649H169.55C171.378 76.3807 172.882 77.8713 172.882 79.6813C172.882 81.4913 171.378 82.9818 169.55 82.9818H165.272ZM319.567 67.8898H327.782L320.682 82.9818L319.796 84.865H321.898H331V82.9818H322.778L329.878 67.8898L330.772 66.0067H328.669H319.567V67.8898ZM302.989 84.8716H304.89V76.7733L313.065 84.8716H315.759L306.24 75.4425L315.759 66.0067H313.065L304.89 74.105V66.0067H302.989V72.2151V74.8835V75.9881V78.6565V84.8716ZM297.756 82.0369C298.542 82.0369 299.187 82.6691 299.187 83.4543C299.187 84.2328 298.549 84.8716 297.756 84.8716C296.97 84.8716 296.325 84.2395 296.325 83.4543C296.325 82.6757 296.964 82.0369 297.756 82.0369ZM255.39 84.8716H262.054C267.293 84.8716 271.572 80.6262 271.572 75.4425C271.572 70.2521 267.293 66.0067 262.054 66.0067H255.39V84.8716ZM257.291 82.9818V67.8898H262.054C266.239 67.8898 269.671 71.2902 269.671 75.4358C269.671 79.5815 266.239 82.9818 262.054 82.9818H257.291ZM243.628 84.8716H245.529V76.3807L251.575 66.0067H249.378L244.576 74.2447L239.779 66.0067H237.583L243.628 76.3807V84.8716ZM292.517 84.8716L283.637 66.0067H282.354L281.944 66.8717L273.473 84.865H275.576L278.686 78.2639H287.311L290.421 84.865H292.517V84.8716ZM279.573 76.3807L282.998 69.1076L286.424 76.3807H279.573ZM237.583 84.8716H235.48L232.37 78.2706H223.745L220.635 84.8716H218.533L227.01 66.8717L227.42 66.0067H228.703L237.583 84.8716ZM224.639 76.3807H231.49L228.065 69.1076L224.639 76.3807ZM207.12 66.0067V67.8898V74.4909V76.3741V84.865H209.021V76.3807H213.307C216.188 76.3807 218.546 74.0451 218.546 71.1904C218.546 68.3357 216.188 66 213.307 66H209.021H207.12V66.0067ZM209.021 67.8898H213.307C215.134 67.8898 216.638 69.3804 216.638 71.1904C216.638 73.0003 215.134 74.4909 213.307 74.4909H209.021V67.8898ZM193.833 66.0067C197.192 66.0067 200.148 67.7301 201.84 70.332L200.457 71.7028C199.147 69.427 196.675 67.8898 193.833 67.8898C189.628 67.8898 186.216 71.2702 186.216 75.4358C186.216 79.6014 189.628 82.9818 193.833 82.9818C197.031 82.9818 199.765 81.0321 200.893 78.2639H193.833V76.3807H201.39H203.305V76.414C203.298 76.4739 203.291 76.5271 203.285 76.587L203.278 76.6336C203.271 76.6935 203.264 76.7534 203.251 76.8066V76.8266V76.8399V76.8465C203.244 76.9064 203.231 76.9663 203.224 77.0262L203.217 77.0728C203.204 77.1327 203.197 77.1926 203.184 77.2458L203.177 77.2791C203.164 77.339 203.15 77.4055 203.137 77.4654L203.13 77.4854V77.4987C203.117 77.5652 203.096 77.6317 203.083 77.6983V77.7049V77.7116C203.07 77.7781 203.049 77.8447 203.029 77.9112V77.9179C203.009 77.9911 202.989 78.0576 202.969 78.1308V78.1441L202.922 78.2839C201.706 82.1101 198.099 84.885 193.84 84.885C188.58 84.885 184.322 80.6595 184.322 75.4558C184.322 70.2521 188.58 66.0067 193.833 66.0067ZM203.029 77.9046L202.969 78.1175C202.989 78.0443 203.009 77.9711 203.029 77.9046Z" fill="#C7CCD4"/>
</svg>
