<svg viewBox="0 0 1432 394" fill="none" xmlns="http://www.w3.org/2000/svg">
    <path
        d="M871.873 159.152C841.992 136.036 804.714 137.155 769.036 138.133C755.212 138.512 740.859 139.88 727.095 137.933C722.066 137.222 716.822 137.163 712.965 133.472C706.625 127.402 711.386 115.258 713.15 108.355C717.773 90.258 723.025 70.7311 713.942 53.1844C702.607 31.2932 672.591 28.2489 650.661 29.492C634.162 30.4263 617.933 35.6143 602.435 40.9866C567.245 53.1844 533.686 73.7364 506.307 98.9315C496.481 107.973 487.317 117.908 479.839 128.98C465.953 149.534 454.574 174.709 477.956 193.639C484.166 198.666 491.294 201.959 498.637 204.912C511.902 210.243 525.964 213.915 537.79 222.275C540.593 224.258 543.564 226.246 544.523 229.799C547.767 241.817 523.2 255.598 515.457 260.952C501.33 270.724 486.364 279.989 476.507 294.284C462.039 315.264 472.553 332.328 481.862 342.255H779.953C803.903 328.183 827.174 309.056 846.2 290.341C858.963 277.788 871.808 263.306 880.514 247.6C896.971 217.91 901.473 182.048 871.873 159.152Z"
        fill="url(#paint0_linear)"/>
    <path fill-rule="evenodd" clip-rule="evenodd"
          d="M-8.74228e-08 342C-3.91405e-08 341.448 0.447715 341 1 341L1431 341C1431.55 341 1432 341.448 1432 342C1432 342.552 1431.55 343 1431 343L1 343C0.447715 343 -1.35705e-07 342.552 -8.74228e-08 342Z"
          fill="#76D1E8"/>
    <g clip-path="url(#clip0)">
        <path
            d="M1165.74 53.476C1164 51.5131 1161.52 50.4307 1158.76 50.4307H704.998C699.452 50.4307 694.387 54.9358 693.708 60.4736L659.447 339.449H662.622L696.837 60.8576C697.33 56.8457 700.992 53.5819 704.998 53.5819H1158.76C1160.6 53.5819 1162.24 54.287 1163.37 55.5647C1164.52 56.859 1165.02 58.6034 1164.79 60.4736L1130.53 339.449H1133.71L1167.92 60.8576C1168.26 58.0771 1167.49 55.4555 1165.74 53.476Z"
            fill="url(#paint1_linear)"/>
        <path
            d="M1106.78 341.326H635.695L676.359 10.2355C676.945 5.45235 681.303 1.57617 686.083 1.57617H1139.84C1144.63 1.57617 1148.03 5.45235 1147.44 10.2355L1106.78 341.326Z"
            fill="white"/>
        <path
            d="M917.662 153.478C921.665 153.521 923.324 158.622 923.36 161.843C923.407 165.696 922.238 169.652 919.639 172.495C917.043 175.342 912.921 176.891 909.19 175.934C908.498 175.755 907.803 175.481 907.326 174.951C906.756 174.316 906.594 173.425 906.515 172.578C906.147 168.695 907.084 164.703 909.144 161.389C910.73 158.837 914.252 153.442 917.662 153.478ZM859.961 164.034C859.908 167.934 861.162 171.84 863.48 174.974C863.987 175.659 864.586 176.338 865.4 176.59C866.082 176.798 866.821 176.676 867.506 176.47C871.198 175.368 873.929 171.912 874.684 168.139C875.442 164.362 874.403 160.37 872.376 157.093C870.681 154.352 866.632 150.837 863.179 152.862C860.239 154.594 860 161.032 859.961 164.034Z"
            fill="#C2C5FF"/>
        <path
            d="M1139.84 1.57617H686.084C681.3 1.57617 676.946 5.45235 676.36 10.2355L673.939 29.9408H1145.03L1147.45 10.2355C1148.03 5.45235 1144.63 1.57617 1139.84 1.57617ZM690.898 18.4712C689.226 18.4712 688.037 17.1173 688.242 15.4457C688.448 13.7741 689.967 12.4202 691.639 12.4202C693.311 12.4202 694.5 13.7741 694.295 15.4457C694.093 17.114 692.57 18.4712 690.898 18.4712ZM700.986 18.4712C699.314 18.4712 698.125 17.1173 698.331 15.4457C698.536 13.7741 700.056 12.4202 701.728 12.4202C703.4 12.4202 704.588 13.7741 704.383 15.4457C704.181 17.114 702.658 18.4712 700.986 18.4712ZM711.074 18.4712C709.402 18.4712 708.214 17.1173 708.419 15.4457C708.624 13.7741 710.144 12.4202 711.816 12.4202C713.488 12.4202 714.676 13.7741 714.471 15.4457C714.269 17.114 712.746 18.4712 711.074 18.4712Z"
            fill="url(#paint2_linear)"/>
        <path fill-rule="evenodd" clip-rule="evenodd"
              d="M707.049 92.8999C707.623 88.23 711.845 84.4648 716.53 84.4648H821.197C825.98 84.4648 829.407 88.3814 828.821 93.1439L806.953 271.216C806.379 275.886 802.157 279.652 797.471 279.652H692.805C688.021 279.652 684.595 275.735 685.18 270.973C685.18 270.973 685.18 270.973 685.18 270.973L707.049 92.8999ZM709.034 93.1439C709.034 93.144 709.034 93.1439 709.034 93.1439L687.165 271.216C686.725 274.802 689.238 277.652 692.805 277.652H797.471C801.135 277.652 804.515 274.651 804.968 270.972L826.836 92.8999C827.277 89.3142 824.763 86.4648 821.197 86.4648H716.53C712.866 86.4648 709.486 89.4657 709.034 93.1439Z"
              fill="#27C8CC"/>
        <path fill-rule="evenodd" clip-rule="evenodd" d="M786.158 156.318H730.33V154.318H786.158V156.318Z"
              fill="#27C8CC"/>
        <path fill-rule="evenodd" clip-rule="evenodd" d="M802.173 171.786H710.515V169.786H802.173V171.786Z"
              fill="#27C8CC"/>
        <path fill-rule="evenodd" clip-rule="evenodd" d="M724.533 206.173H709.862V204.173H724.533V206.173Z"
              fill="#27C8CC"/>
        <path fill-rule="evenodd" clip-rule="evenodd"
              d="M768.444 205.295C768.906 201.54 772.356 198.474 776.096 198.474ZM766.459 205.051C767.043 200.306 771.334 196.474 776.096 196.474H795.369C800.228 196.474 803.711 200.453 803.115 205.295L803.115 205.295C802.531 210.04 798.241 213.872 793.478 213.872H774.206C769.346 213.872 765.863 209.893 766.459 205.051L766.459 205.051ZM776.096 198.474H795.369ZM795.369 198.474C799.011 198.474 801.581 201.386 801.13 205.051ZM801.13 205.051C800.668 208.806 797.218 211.872 793.478 211.872H774.206C770.563 211.872 767.993 208.96 768.444 205.295"
              fill="#27C8CC"/>
        <path fill-rule="evenodd" clip-rule="evenodd"
              d="M813.896 96.1549C815.442 96.4255 816.729 97.6205 817.011 98.9947C817.41 100.937 816.763 102.618 815.387 104.131C814.053 105.599 811.981 106.974 809.364 108.422C808.881 108.689 808.272 108.514 808.005 108.031C807.738 107.548 807.913 106.939 808.396 106.672C810.984 105.24 812.807 103.995 813.907 102.786C814.966 101.621 815.292 100.566 815.052 99.3967L815.052 99.3964C814.953 98.9136 814.378 98.2698 813.551 98.125C812.853 98.0026 811.778 98.2303 810.732 99.888C810.438 100.355 809.82 100.495 809.353 100.2C808.886 99.9055 808.746 99.288 809.041 98.8209C810.415 96.6421 812.223 95.8618 813.896 96.1549Z"
              fill="#27C8CC"/>
        <path fill-rule="evenodd" clip-rule="evenodd"
              d="M806.757 98.1263C805.828 98.2822 804.963 99.001 804.69 99.6068L804.69 99.6069C804.397 100.256 804.303 100.816 804.347 101.322C804.391 101.828 804.579 102.347 804.95 102.905C805.715 104.058 807.186 105.275 809.42 106.705C809.885 107.003 810.02 107.621 809.722 108.087C809.425 108.552 808.806 108.687 808.341 108.389C806.078 106.94 804.296 105.536 803.284 104.011C802.765 103.231 802.433 102.396 802.355 101.495C802.276 100.593 802.458 99.6908 802.867 98.7845M806.757 98.1263C807.186 98.0543 807.578 98.1114 807.918 98.3116ZM807.918 98.3116C808.258 98.5122 808.646 98.9152 808.954 99.7144ZM808.934 96.5885C809.746 97.0676 810.388 97.8756 810.82 98.9946C811.019 99.5099 810.762 100.089 810.247 100.288C809.731 100.486 809.153 100.23 808.954 99.7144M808.934 96.5885C808.12 96.1092 807.235 96.0181 806.426 96.1538ZM806.426 96.1538C804.88 96.4133 803.431 97.5333 802.867 98.7844Z"
              fill="#27C8CC"/>
        <path fill-rule="evenodd" clip-rule="evenodd"
              d="M840.848 92.8999C841.422 88.23 845.643 84.4648 850.329 84.4648H954.996C959.779 84.4648 963.205 88.3814 962.62 93.1439L940.752 271.216C940.177 275.886 935.956 279.652 931.27 279.652H826.603C821.82 279.652 818.394 275.735 818.979 270.973C818.979 270.973 818.979 270.973 818.979 270.973L840.848 92.8999ZM842.833 93.1439C842.833 93.144 842.833 93.1439 842.833 93.1439L820.964 271.216C820.523 274.802 823.037 277.652 826.603 277.652H931.27C934.934 277.652 938.314 274.651 938.766 270.972L960.635 92.8999C961.076 89.3142 958.562 86.4648 954.996 86.4648H850.329C846.665 86.4648 843.285 89.4657 842.833 93.1439Z"
              fill="#27C8CC"/>
        <path fill-rule="evenodd" clip-rule="evenodd" d="M915.288 205.971H859.457V203.971H915.288V205.971Z"
              fill="#27C8CC"/>
        <path fill-rule="evenodd" clip-rule="evenodd" d="M931.304 221.439H839.646V219.439H931.304V221.439Z"
              fill="#27C8CC"/>
        <path fill-rule="evenodd" clip-rule="evenodd" d="M851.71 255.825H837.039V253.825H851.71V255.825Z"
              fill="#27C8CC"/>
        <path fill-rule="evenodd" clip-rule="evenodd"
              d="M895.622 254.947C896.084 251.192 899.534 248.126 903.274 248.126ZM893.637 254.703C894.221 249.958 898.511 246.126 903.274 246.126H922.546C927.406 246.126 930.889 250.106 930.293 254.947C929.712 259.693 925.421 263.525 920.656 263.525H901.383C896.524 263.525 893.041 259.545 893.637 254.703L893.637 254.703ZM903.274 248.126H922.546ZM922.546 248.126C926.189 248.126 928.759 251.038 928.308 254.703ZM895.622 254.948C895.171 258.613 897.741 261.525 901.383 261.525H920.656C924.399 261.525 927.849 258.458 928.308 254.704L928.308 254.703"
              fill="#27C8CC"/>
        <path fill-rule="evenodd" clip-rule="evenodd"
              d="M947.695 96.1549C949.24 96.4255 950.528 97.6204 950.81 98.9944C951.209 100.937 950.562 102.618 949.186 104.131C947.851 105.599 945.78 106.974 943.163 108.422C942.68 108.689 942.071 108.514 941.804 108.031C941.537 107.548 941.712 106.939 942.195 106.672C944.783 105.24 946.606 103.995 947.706 102.786C948.765 101.621 949.091 100.566 948.851 99.3967L948.851 99.3964C948.752 98.9136 948.177 98.2698 947.35 98.125C946.652 98.0026 945.577 98.2303 944.531 99.888C944.236 100.355 943.619 100.495 943.152 100.2C942.685 99.9055 942.545 99.288 942.84 98.8209C944.214 96.6421 946.021 95.8618 947.695 96.1549Z"
              fill="#27C8CC"/>
        <path fill-rule="evenodd" clip-rule="evenodd"
              d="M940.556 98.1262C939.627 98.2822 938.762 99.001 938.489 99.6068L938.489 99.6069C938.196 100.256 938.102 100.816 938.146 101.322C938.19 101.828 938.378 102.347 938.749 102.905C939.514 104.058 940.985 105.275 943.219 106.705C943.684 107.003 943.819 107.621 943.521 108.087C943.223 108.552 942.605 108.687 942.14 108.389C939.877 106.94 938.095 105.536 937.083 104.011C936.564 103.231 936.232 102.396 936.154 101.495C936.075 100.593 936.257 99.6908 936.666 98.7845M940.556 98.1262C940.984 98.0543 941.376 98.1114 941.715 98.3114ZM941.715 98.3114C942.055 98.5118 942.442 98.9146 942.749 99.7137ZM942.731 96.5887C943.544 97.068 944.185 97.8763 944.616 98.9953C944.814 99.5108 944.557 100.089 944.042 100.288C943.526 100.486 942.947 100.229 942.749 99.7137M942.731 96.5887C941.918 96.1091 941.033 96.0181 940.225 96.1539ZM940.225 96.1539C938.679 96.4134 937.23 97.5333 936.666 98.7844Z"
              fill="#27C8CC"/>
        <path fill-rule="evenodd" clip-rule="evenodd"
              d="M895.413 124.987C895.413 124.435 895.861 123.987 896.413 123.987C906.072 123.987 912.704 128.38 916.331 134.291C919.931 140.158 920.546 147.482 918.295 153.343C918.096 153.859 917.518 154.116 917.002 153.918C916.487 153.72 916.23 153.141 916.428 152.626C918.45 147.361 917.91 140.687 914.626 135.337C911.37 130.031 905.391 125.987 896.413 125.987C895.861 125.987 895.413 125.54 895.413 124.987Z"
              fill="#4E8DD8"/>
        <path fill-rule="evenodd" clip-rule="evenodd"
              d="M913.361 152.614C917.324 142.272 908.289 130.38 895.872 130.472C895.319 130.476 894.868 130.032 894.864 129.48C894.86 128.927 895.305 128.476 895.857 128.472C909.411 128.372 919.801 141.434 915.223 153.346C915.219 153.356 915.215 153.366 915.21 153.376L908.241 169.891C908.026 170.399 907.44 170.638 906.931 170.423C906.422 170.208 906.184 169.622 906.398 169.113L913.361 152.614Z"
              fill="#4E8DD8"/>
        <path fill-rule="evenodd" clip-rule="evenodd"
              d="M877.817 136.335C882.644 131.711 889.316 128.473 895.863 128.473C896.416 128.473 896.863 128.92 896.863 129.473C896.863 130.025 896.416 130.473 895.863 130.473C889.941 130.473 883.743 133.428 879.201 137.779C874.651 142.137 871.948 147.709 872.649 152.833L875.556 169.329C875.652 169.873 875.289 170.391 874.745 170.487C874.201 170.583 873.682 170.22 873.586 169.676L870.676 153.161C870.674 153.149 870.672 153.137 870.67 153.125C869.84 147.125 873.003 140.947 877.817 136.335Z"
              fill="#4E8DD8"/>
        <path fill-rule="evenodd" clip-rule="evenodd"
              d="M916.427 152.631C916.61 152.152 917.125 151.889 917.62 152.022C922.548 153.342 924.874 158.526 922.997 163.44C922.997 163.44 922.997 163.44 922.997 163.44L919.729 171.997C918.347 175.609 914.377 177.85 910.746 176.876C908.897 176.383 908.09 174.445 908.752 172.719C908.753 172.719 908.752 172.719 908.752 172.719L916.427 152.631ZM917.951 154.245L910.62 173.435C910.329 174.192 910.701 174.794 911.262 174.944L911.263 174.944C913.803 175.625 916.805 174.04 917.86 171.283M917.86 171.283L921.128 162.727C922.513 159.102 921.031 155.554 917.951 154.245"
              fill="#4E8DD8"/>
        <path fill-rule="evenodd" clip-rule="evenodd"
              d="M874.175 134.162C879.161 128.359 886.77 123.987 896.413 123.987C896.965 123.987 897.413 124.435 897.413 124.987C897.413 125.54 896.965 125.987 896.413 125.987C887.419 125.987 880.343 130.052 875.691 135.466C871.014 140.909 868.855 147.63 869.579 152.847C869.655 153.394 869.273 153.899 868.726 153.975C868.178 154.051 867.673 153.669 867.598 153.122C866.778 147.214 869.213 139.936 874.175 134.162Z"
              fill="#4E8DD8"/>
        <path fill-rule="evenodd" clip-rule="evenodd"
              d="M869.145 152.16C869.381 152.319 869.538 152.571 869.576 152.853L872.397 173.512C872.397 173.513 872.397 173.513 872.397 173.514C872.602 174.99 871.553 176.38 870.148 176.735L870.147 176.735C866.013 177.773 862.075 175.353 861.503 171.205L860.413 163.219C859.736 158.244 863.32 153.281 868.341 152.018C868.617 151.949 868.91 152.001 869.145 152.16ZM862.395 162.949C862.395 162.95 862.395 162.949 862.395 162.949L863.484 170.932C863.484 170.932 863.484 170.931 863.484 170.932C863.878 173.787 866.568 175.571 869.658 174.796C870.166 174.667 870.468 174.164 870.416 173.788L870.415 173.785L867.756 154.307C864.23 155.72 861.914 159.414 862.395 162.949Z"
              fill="#4E8DD8"/>
        <path fill-rule="evenodd" clip-rule="evenodd"
              d="M974.646 92.8999C975.22 88.23 979.442 84.4648 984.127 84.4648H1088.79C1093.58 84.4648 1097 88.3814 1096.42 93.1439L1074.55 271.216C1073.98 275.886 1069.75 279.652 1065.07 279.652H960.402C955.617 279.652 952.196 275.734 952.777 270.973L974.646 92.8999ZM976.631 93.1439C976.631 93.144 976.631 93.1439 976.631 93.1439L954.763 271.216C954.763 271.216 954.763 271.216 954.763 271.216C954.325 274.803 956.836 277.652 960.402 277.652H1065.07C1068.73 277.652 1072.11 274.651 1072.56 270.973C1072.56 270.973 1072.56 270.973 1072.56 270.973L1094.43 92.8999C1094.87 89.3142 1092.36 86.4648 1088.79 86.4648H984.127C980.463 86.4648 977.083 89.4657 976.631 93.1439Z"
              fill="#27C8CC"/>
        <path fill-rule="evenodd" clip-rule="evenodd" d="M1059.02 156.318H1003.19V154.318H1059.02V156.318Z"
              fill="#27C8CC"/>
        <path fill-rule="evenodd" clip-rule="evenodd" d="M1075.03 171.787H983.375V169.787H1075.03V171.787Z"
              fill="#27C8CC"/>
        <path fill-rule="evenodd" clip-rule="evenodd" d="M995.44 206.173H980.77V204.173H995.44V206.173Z"
              fill="#27C8CC"/>
        <path fill-rule="evenodd" clip-rule="evenodd"
              d="M1039.36 205.295C1039.82 201.54 1043.27 198.474 1047.01 198.474ZM1037.37 205.051C1037.95 200.306 1042.24 196.474 1047.01 196.474H1066.28C1071.14 196.474 1074.62 200.453 1074.03 205.295L1074.03 205.295C1073.44 210.04 1069.15 213.872 1064.39 213.872H1045.12C1040.26 213.872 1036.77 209.893 1037.37 205.051L1037.37 205.051ZM1047.01 198.474H1066.28ZM1066.28 198.474C1069.92 198.474 1072.49 201.386 1072.04 205.051ZM1072.04 205.051C1071.58 208.806 1068.13 211.872 1064.39 211.872H1045.12C1041.47 211.872 1038.9 208.96 1039.36 205.295"
              fill="#27C8CC"/>
        <path fill-rule="evenodd" clip-rule="evenodd"
              d="M1081.49 96.1549C1083.04 96.4255 1084.33 97.6204 1084.61 98.9944C1085.01 100.937 1084.36 102.618 1082.98 104.131C1081.65 105.599 1079.58 106.974 1076.96 108.422C1076.48 108.689 1075.87 108.514 1075.6 108.031C1075.33 107.548 1075.51 106.939 1075.99 106.672C1078.58 105.24 1080.4 103.995 1081.5 102.786C1082.56 101.621 1082.89 100.566 1082.65 99.3967L1082.65 99.3964C1082.55 98.9136 1081.97 98.2698 1081.15 98.125C1080.45 98.0026 1079.37 98.2303 1078.33 99.888C1078.03 100.355 1077.42 100.495 1076.95 100.2C1076.48 99.9055 1076.34 99.288 1076.64 98.8209C1078.01 96.6421 1079.82 95.8618 1081.49 96.1549Z"
              fill="#27C8CC"/>
        <path fill-rule="evenodd" clip-rule="evenodd"
              d="M1074.35 98.1263C1073.42 98.2822 1072.56 99.001 1072.29 99.6068L1072.29 99.6069C1071.99 100.256 1071.9 100.816 1071.94 101.322C1071.99 101.828 1072.18 102.347 1072.55 102.905C1073.31 104.058 1074.78 105.275 1077.02 106.705C1077.48 107.003 1077.62 107.621 1077.32 108.087C1077.02 108.552 1076.4 108.687 1075.94 108.389C1073.68 106.94 1071.89 105.536 1070.88 104.011C1070.36 103.231 1070.03 102.396 1069.95 101.495C1069.87 100.593 1070.05 99.6908 1070.46 98.7845M1074.35 98.1263C1074.78 98.0543 1075.18 98.1114 1075.51 98.3116ZM1075.51 98.3116C1075.86 98.5122 1076.24 98.9152 1076.55 99.7144ZM1076.53 96.5885C1077.34 97.0676 1077.98 97.8756 1078.42 98.9946C1078.62 99.5099 1078.36 100.089 1077.84 100.288C1077.33 100.486 1076.75 100.23 1076.55 99.7144M1076.53 96.5885C1075.72 96.1092 1074.83 96.0181 1074.02 96.1538ZM1074.02 96.1538C1072.48 96.4133 1071.03 97.5333 1070.46 98.7844Z"
              fill="#27C8CC"/>
        <path fill-rule="evenodd" clip-rule="evenodd"
              d="M1075.02 55.5234C1075.02 54.9711 1075.47 54.5256 1076.03 54.5283L1090.88 54.6011C1091.43 54.6038 1091.88 55.0538 1091.87 55.606C1091.87 56.1583 1091.42 56.6038 1090.87 56.6011L1076.02 56.5283C1075.46 56.5256 1075.02 56.0757 1075.02 55.5234Z"
              fill="#4E8DD8"/>
        <path fill-rule="evenodd" clip-rule="evenodd"
              d="M1075.56 58.7245C1075.56 58.1722 1076.01 57.7267 1076.56 57.7295L1089.09 57.7924C1089.64 57.7952 1090.09 58.2451 1090.08 58.7974C1090.08 59.3497 1089.63 59.7951 1089.08 59.7924L1076.55 59.7295C1076 59.7267 1075.55 59.2767 1075.56 58.7245Z"
              fill="#4E8DD8"/>
        <path fill-rule="evenodd" clip-rule="evenodd"
              d="M1067.17 47.3742C1067.17 46.8219 1067.62 46.3763 1068.18 46.3789L1069.57 46.3855C1071.31 46.3945 1072.77 47.5396 1073.12 49.249L1075.27 59.8614C1075.27 59.8615 1075.27 59.8613 1075.27 59.8614C1075.42 60.6013 1076.03 61.118 1076.87 61.1223L1085.23 61.1653C1086.03 61.1698 1086.87 60.6836 1087.32 59.8909L1090.97 53.402L1075.03 53.3243C1074.48 53.3216 1074.03 52.8717 1074.03 52.3194C1074.04 51.7671 1074.49 51.3216 1075.04 51.3243L1092.68 51.4103C1093.04 51.4121 1093.36 51.6013 1093.54 51.9077C1093.72 52.2141 1093.72 52.5919 1093.55 52.9008L1089.06 60.8714C1089.06 60.8715 1089.06 60.8713 1089.06 60.8714C1088.28 62.2567 1086.79 63.1741 1085.22 63.1653L1076.86 63.1223C1075.12 63.1133 1073.66 61.9682 1073.31 60.2588L1071.16 49.6465C1071.01 48.9067 1070.4 48.39 1069.56 48.3855L1068.17 48.3789C1067.61 48.3763 1067.17 47.9264 1067.17 47.3742Z"
              fill="#4E8DD8"/>
        <path fill-rule="evenodd" clip-rule="evenodd"
              d="M1077.36 65.2168C1077.09 65.2146 1076.8 65.4624 1076.77 65.7526L1076.76 65.7567C1076.75 65.8758 1076.78 65.9434 1076.81 65.9781C1076.84 66.0126 1076.9 66.0532 1077.01 66.0537L1077.02 66.0537C1077.29 66.056 1077.58 65.8081 1077.62 65.5179L1077.62 65.5174C1077.63 65.3988 1077.59 65.3301 1077.56 65.2942C1077.53 65.2588 1077.47 65.2178 1077.36 65.2168M1074.78 65.4993C1074.94 64.2215 1076.08 63.2059 1077.38 63.2169L1077.38 63.2169C1078.77 63.2287 1079.77 64.4029 1079.6 65.7691M1074.78 65.4993C1074.6 66.8715 1075.61 68.0466 1077 68.0536Z"
              fill="#4E8DD8"/>
        <path fill-rule="evenodd" clip-rule="evenodd"
              d="M1084.17 65.2539C1083.9 65.2517 1083.61 65.4995 1083.57 65.7897L1083.57 65.7938C1083.55 65.9143 1083.59 65.9808 1083.62 66.0141C1083.65 66.0473 1083.7 66.0898 1083.82 66.0908C1084.09 66.0931 1084.38 65.8452 1084.42 65.555L1084.42 65.5509C1084.44 65.4304 1084.4 65.3639 1084.37 65.3306C1084.34 65.2974 1084.28 65.2549 1084.17 65.2539ZM1081.58 65.5364C1081.75 64.2586 1082.88 63.243 1084.18 63.254C1085.57 63.2657 1086.58 64.4331 1086.4 65.8083C1086.24 67.0861 1085.1 68.1017 1083.8 68.0907C1082.42 68.079 1081.41 66.9116 1081.58 65.5364Z"
              fill="#4E8DD8"/>
        <path
            d="M1098.07 53.8567C1100.52 51.5521 1100.86 47.9263 1098.82 45.7581C1096.78 43.5899 1093.14 43.7005 1090.69 46.005C1088.24 48.3095 1087.9 51.9354 1089.94 54.1036C1091.98 56.2717 1095.62 56.1612 1098.07 53.8567Z"
            fill="#27C8CC"/>
        <path
            d="M1091.56 51.6324C1091.58 51.4636 1091.64 51.308 1091.74 51.1624C1091.84 51.02 1091.95 50.8909 1092.08 50.7784C1092.21 50.6658 1092.39 50.5268 1092.61 50.3613C1092.74 50.262 1092.82 50.209 1092.82 50.2024C1093.1 49.9939 1093.32 49.7853 1093.49 49.5834C1093.65 49.3815 1093.75 49.1465 1093.78 48.8817C1093.81 48.6963 1093.76 48.5473 1093.65 48.4348C1093.54 48.3223 1093.39 48.2627 1093.18 48.2627C1093 48.2627 1092.82 48.309 1092.65 48.4017C1092.48 48.4944 1092.32 48.6301 1092.16 48.8122L1091.88 48.5407C1092.06 48.3289 1092.27 48.1667 1092.52 48.0475C1092.75 47.9283 1093 47.8721 1093.24 47.8721C1093.58 47.8754 1093.84 47.9648 1094.02 48.1501C1094.2 48.3322 1094.27 48.5804 1094.23 48.885C1094.19 49.2094 1094.06 49.494 1093.84 49.7489C1093.63 50.0005 1093.34 50.262 1092.98 50.5334C1092.89 50.6029 1092.85 50.636 1092.85 50.6294C1092.59 50.8247 1092.39 50.9836 1092.26 51.1094C1092.13 51.2352 1092.05 51.361 1092.04 51.4901L1093.95 51.5L1093.9 51.8906L1091.54 51.8773L1091.56 51.6324Z"
            fill="white"/>
        <path
            d="M1095.06 51.7246C1094.87 51.5459 1094.73 51.3009 1094.65 50.9865C1094.56 50.672 1094.55 50.3211 1094.6 49.9272C1094.65 49.5366 1094.75 49.1824 1094.92 48.8713C1095.08 48.5601 1095.28 48.3152 1095.51 48.143C1095.75 47.9676 1095.99 47.8815 1096.25 47.8849C1096.51 47.8849 1096.73 47.9742 1096.92 48.1497C1097.12 48.3251 1097.25 48.5701 1097.34 48.8845C1097.42 49.199 1097.43 49.5499 1097.39 49.9438C1097.34 50.3344 1097.23 50.6886 1097.07 50.9997C1096.91 51.3109 1096.71 51.5558 1096.47 51.7312C1096.24 51.9067 1095.99 51.9928 1095.74 51.9928C1095.48 51.9928 1095.25 51.9034 1095.06 51.7246ZM1096.3 51.4069C1096.45 51.2678 1096.59 51.0692 1096.71 50.8143C1096.82 50.5595 1096.9 50.2682 1096.94 49.9405C1096.98 49.6128 1096.98 49.3248 1096.93 49.0699C1096.88 48.815 1096.79 48.6197 1096.67 48.4774C1096.54 48.335 1096.39 48.2655 1096.21 48.2655C1096.02 48.2655 1095.85 48.335 1095.69 48.4741C1095.52 48.6131 1095.39 48.8084 1095.28 49.0633C1095.16 49.3148 1095.08 49.6061 1095.04 49.9338C1095 50.2615 1095 50.5528 1095.05 50.8077C1095.1 51.0626 1095.19 51.2612 1095.32 51.4035C1095.44 51.5459 1095.6 51.6154 1095.78 51.6154C1095.96 51.6154 1096.13 51.5459 1096.3 51.4069Z"
            fill="white"/>
        <path fill-rule="evenodd" clip-rule="evenodd"
              d="M766.474 47.3779C760.85 47.3779 755.685 51.9674 754.992 57.6089L754.992 57.6089C754.309 63.1544 758.217 67.5956 763.746 67.5956H1039.42C1045.04 67.5956 1050.21 63.0029 1050.9 57.3646C1051.58 51.8191 1047.68 47.3779 1042.15 47.3779H766.474ZM753.006 57.3647C753.822 50.7322 759.828 45.3779 766.474 45.3779H1042.15C1048.89 45.3779 1053.71 50.887 1052.89 57.6089C1052.07 64.238 1046.06 69.5956 1039.42 69.5956H763.746C756.999 69.5956 752.179 64.0865 753.006 57.3647Z"
              fill="#27C8CC"/>
        <path fill-rule="evenodd" clip-rule="evenodd"
              d="M1029.34 53.8108C1027.71 55.3451 1027.63 57.5927 1028.79 58.8309C1029.96 60.0691 1032.21 60.1243 1033.84 58.59C1035.47 57.0557 1035.55 54.8081 1034.39 53.5699C1033.22 52.3317 1030.97 52.2765 1029.34 53.8108ZM1027.34 60.2009C1025.26 57.9951 1025.71 54.4819 1027.97 52.354C1030.24 50.2261 1033.77 49.994 1035.85 52.1999C1037.92 54.4057 1037.47 57.9189 1035.21 60.0468C1032.95 62.1747 1029.41 62.4068 1027.34 60.2009Z"
              fill="#4E8DD8"/>
        <path fill-rule="evenodd" clip-rule="evenodd"
              d="M1034.81 57.253C1035.14 56.8118 1035.77 56.7235 1036.21 57.0557L1041.11 60.7484C1042.07 61.4458 1042.03 62.7171 1041.41 63.5102L1041.41 63.5131C1040.79 64.2943 1039.59 64.6375 1038.66 63.9709L1038.65 63.9625L1033.72 60.2883C1033.28 59.9582 1033.19 59.3317 1033.52 58.8889C1033.85 58.446 1034.48 58.3546 1034.92 58.6846L1039.79 62.3138C1039.8 62.3077 1039.81 62.2981 1039.83 62.2833L1035.01 58.6534C1034.57 58.3212 1034.48 57.6942 1034.81 57.253ZM1039.93 62.3622C1039.93 62.3615 1039.93 62.3609 1039.93 62.3602L1039.93 62.3622Z"
              fill="#4E8DD8"/>
        <path fill-rule="evenodd" clip-rule="evenodd" d="M734.031 51.46H714.109V49.46H734.031V51.46Z" fill="#282828"/>
        <path fill-rule="evenodd" clip-rule="evenodd" d="M733.171 58.4844H713.246V56.4844H733.171V58.4844Z"
              fill="#282828"/>
        <path fill-rule="evenodd" clip-rule="evenodd" d="M732.306 65.5117H712.385V63.5117H732.306V65.5117Z"
              fill="#282828"/>
        <path
            d="M976.442 368.336C978.84 364.443 984.64 362.6 995.331 366.002C1005.53 369.25 1009.52 371.749 1031.91 368.528C1044.94 366.651 1052.45 370.23 1052.42 375.963C1052.42 376.883 1050.58 386.453 1039.14 392.49C1031.72 396.409 1013.74 391.438 995.96 391.653C961.193 392.07 976.442 368.336 976.442 368.336Z"
            fill="#EEF6FF"/>
        <path
            d="M1031.6 392.49C1034.67 392.407 1036.91 391.977 1038.44 391.166C1049.71 385.214 1048.43 380.507 1045.87 378.114C1043.32 375.721 1047.05 372.043 1046.25 370.944C1045.67 370.146 1043.05 369.385 1037.49 369.531C1035.8 369.574 1034 369.736 1032.12 370.004C1025.91 370.898 1020.88 371.384 1016.73 371.494C1007.91 371.725 1003.43 370.242 997.751 368.362C996.838 368.061 995.887 367.747 994.878 367.422C991.09 366.217 987.782 365.641 985.048 365.714C978.856 365.876 981.849 374.585 979.81 382.315C978.509 387.25 985.18 390.282 995.944 390.153C1003.12 390.067 1010.38 390.822 1016.79 391.484C1022.29 392.06 1027.49 392.599 1031.6 392.49C1031.6 392.49 1031.6 392.49 1031.6 392.49Z"
            fill="#4543AA"/>
        <path
            d="M951.194 359.227C961.435 365.711 986.402 370.19 998.861 371.166C1001.17 371.349 988.71 373.076 987.445 380.547C986.515 386.046 991.286 387.462 991.286 387.462C979.648 388.042 944.063 387.462 934.554 377.843C924.661 367.836 940.954 352.742 951.194 359.227Z"
            fill="#FF8A66"/>
        <path fill-rule="evenodd" clip-rule="evenodd"
              d="M1023.16 371.647C1024.44 371.953 1025.28 373.186 1025.09 374.487C1024.91 375.713 1024.78 376.952 1024.72 378.194C1024.86 377.592 1024.98 376.968 1025.05 376.331C1025.2 374.954 1026.43 373.954 1027.81 374.081C1029.19 374.208 1030.21 375.416 1030.11 376.798C1029.88 379.945 1029.81 383.107 1029.92 386.248C1029.97 387.65 1028.87 388.827 1027.47 388.876C1026.44 388.912 1025.53 388.328 1025.1 387.46C1024.79 387.681 1024.29 387.963 1023.63 388.048L1023.61 388.051C1022.65 388.169 1021.84 387.831 1021.27 387.364C1021.01 387.742 1020.69 388.145 1020.28 388.491C1019.7 388.996 1018.53 389.714 1017.05 389.324C1016.01 389.053 1015.37 388.363 1015.02 387.893C1014.79 387.584 1014.61 387.261 1014.47 386.961C1014.16 387.562 1013.81 388.141 1013.43 388.691C1012.86 389.518 1011.86 389.93 1010.87 389.743C1010.64 389.7 1010.43 389.628 1010.23 389.531C1009.94 390.492 1009.1 391.232 1008.04 391.335C1006.64 391.47 1005.4 390.448 1005.26 389.051C1004.78 384.083 1005.66 378.794 1007.74 374.465L1007.75 374.463L1007.75 374.463C1007.83 374.293 1008.02 373.899 1008.34 373.531C1008.61 373.226 1009.52 372.304 1010.97 372.546L1010.55 375.052L1010.97 372.545C1010.97 372.545 1010.97 372.545 1010.97 372.546M1014.26 386.462C1014.26 386.462 1014.26 386.461 1014.26 386.46L1014.83 386.243C1014.83 386.244 1014.83 386.245 1014.83 386.247L1014.26 386.464C1014.26 386.463 1014.26 386.463 1014.26 386.462ZM1014.91 376.078L1015.35 374.612L1017.85 375.053C1017.8 375.338 1017.75 375.628 1017.7 375.922C1017.7 375.922 1017.7 375.923 1017.7 375.923C1017.11 379.24 1016.37 383.004 1014.83 386.243L1016.64 385.555L1014.83 386.247M1014.91 376.078L1013.57 376.153C1013.54 375.859 1013.49 375.565 1013.44 375.273L1013.44 375.273L1013.44 375.267C1013.4 375.052 1013.31 374.64 1013.11 374.217C1013.11 374.211 1013.1 374.205 1013.1 374.199C1013.07 374.124 1013.01 374.009 1012.92 373.871C1012.89 373.969 1012.87 374.069 1012.85 374.171C1012.78 374.591 1012.7 375.007 1012.63 375.419C1012.63 375.42 1012.63 375.421 1012.63 375.423C1012.05 378.597 1011.42 381.496 1010.35 383.836M1013.57 376.155C1013.57 376.154 1013.57 376.153 1013.57 376.153L1013.47 376.158C1013.4 376.046 1013.38 375.967 1013.37 375.948C1013.37 375.938 1013.36 375.933 1013.36 375.933C1013.36 375.933 1013.38 376.006 1013.39 376.164C1013.44 377.1 1013.43 377.945 1013.41 378.873C1013.4 379.514 1013.39 380.196 1013.4 380.975C1013.41 381.769 1013.45 382.616 1013.55 383.48M1014.91 376.079L1015.93 376.022L1014.91 376.078L1014.91 376.079ZM1013.57 376.155L1014.91 376.079ZM1012.34 376.635C1012.34 376.636 1012.34 376.642 1012.33 376.654C1012.34 376.641 1012.34 376.635 1012.34 376.635ZM1008.43 376.17C1008.43 376.17 1008.44 376.175 1008.44 376.187C1008.44 376.176 1008.43 376.171 1008.43 376.17ZM1019.68 383.595C1019.68 383.594 1019.68 383.594 1019.68 383.593L1022.22 383.42L1019.68 383.597C1019.68 383.596 1019.68 383.596 1019.68 383.595ZM1019.68 383.595C1019.73 384.225 1019.86 385.081 1020.18 385.855C1020.21 385.926 1020.24 386.002 1020.28 386.083L1019.39 385.578M1023.16 371.647C1021.88 371.341 1020.58 372.063 1020.16 373.31ZM1020.16 373.31C1019.61 374.966 1019.25 376.775 1018.94 378.379ZM1018.94 378.379C1018.86 378.773 1018.79 379.154 1018.71 379.518ZM1018.71 379.518C1018.64 379.881 1018.56 380.23 1018.48 380.566Z"
              fill="white"/>
        <path
            d="M934.252 316.705C827.235 305.278 804.059 306.317 799.99 332.981C795.918 359.644 863.737 364.4 940.05 365.261C989.524 365.821 997.593 321.852 979.439 307.31C969.589 299.422 934.252 316.705 934.252 316.705Z"
            fill="#362E8B"/>
        <path
            d="M828.738 319.091C866.555 326.767 935.043 346.356 967.215 363.947C968.413 364.602 968.841 366.121 968.162 367.31C963.55 375.37 962.358 382.411 962.063 386.002C961.951 387.392 960.706 388.405 959.322 388.24C947.217 386.787 827.9 371.288 807.509 347.426C787.322 331.176 828.738 319.091 828.738 319.091Z"
            fill="#362E8B"/>
        <path fill-rule="evenodd" clip-rule="evenodd"
              d="M845.224 322.735C845.352 322.198 845.891 321.866 846.428 321.994C876.127 329.065 915.078 340.459 944.176 352.218C944.688 352.425 944.935 353.008 944.728 353.52C944.521 354.032 943.938 354.28 943.426 354.073C914.452 342.363 875.604 330.997 845.965 323.94C845.428 323.812 845.096 323.273 845.224 322.735Z"
              fill="#3E36A3"/>
        <path
            d="M947.512 372.536C945.731 368.326 940.275 365.628 929.193 367.379C918.622 369.047 914.294 370.917 892.658 364.353C880.053 360.53 872.094 362.933 871.256 368.604C871.121 369.514 871.491 379.249 881.891 386.949C888.635 391.94 907.153 389.742 924.7 392.639C959.001 398.299 947.512 372.536 947.512 372.536Z"
            fill="#EEF6FF"/>
        <path
            d="M889.337 388.088C886.314 387.545 884.169 386.78 882.778 385.748C872.534 378.164 874.514 373.705 877.401 371.723C880.285 369.743 877.153 365.546 878.11 364.576C878.805 363.874 881.507 363.517 886.983 364.503C888.642 364.801 890.407 365.231 892.221 365.784C898.22 367.605 903.124 368.846 907.209 369.581C915.89 371.143 920.549 370.349 926.442 369.349C927.389 369.187 928.376 369.021 929.425 368.856C933.352 368.237 936.706 368.167 939.401 368.651C945.496 369.746 941.222 377.906 942.073 385.85C942.616 390.925 935.56 392.917 924.942 391.163C917.867 389.995 910.573 389.644 904.14 389.333C898.608 389.068 893.383 388.816 889.337 388.088Z"
            fill="#4543AA"/>
        <path
            d="M973.138 357.582C939.308 379.664 936.947 372.137 925.137 371.289C922.829 371.124 934.669 375.371 934.792 382.948C934.881 388.522 929.951 389.204 929.951 389.204C951.743 390.309 994.089 379.234 994.089 379.234L973.138 357.582Z"
            fill="#FF8A66"/>
        <path fill-rule="evenodd" clip-rule="evenodd"
              d="M900.819 368.757C902.13 368.648 903.307 369.556 903.534 370.852C903.835 372.575 903.914 374.422 903.984 376.057C904.001 376.456 904.018 376.842 904.037 377.211C904.056 377.586 904.078 377.947 904.104 378.296C904.166 377.896 904.229 377.448 904.296 376.977C904.448 375.893 904.618 374.686 904.834 373.656C904.914 373.274 905.059 372.71 905.336 372.17C905.542 371.768 906.232 370.566 907.743 370.352C908.462 370.25 909.191 370.461 909.744 370.931C910.217 371.333 910.523 371.89 910.613 372.496C910.968 372.088 911.664 371.493 912.752 371.486C914.216 371.473 914.978 372.523 915.189 372.857C915.448 373.267 915.581 373.681 915.639 373.874C917.043 378.467 917.119 383.829 915.889 388.668C915.543 390.028 914.161 390.85 912.801 390.504C911.768 390.242 911.046 389.383 910.909 388.389C910.696 388.455 910.473 388.494 910.243 388.502C909.238 388.538 908.307 387.979 907.867 387.075C907.575 386.474 907.321 385.85 907.1 385.209C906.917 385.483 906.692 385.774 906.422 386.045C906.009 386.458 905.269 387.042 904.209 387.155C902.676 387.321 901.63 386.431 901.129 385.846C900.783 385.442 900.521 384.993 900.324 384.579C899.686 384.956 898.829 385.167 897.896 384.903C897.248 384.72 896.792 384.363 896.516 384.095C895.961 384.888 894.976 385.327 893.964 385.137C892.584 384.878 891.676 383.551 891.935 382.171C892.514 379.082 892.932 375.945 893.177 372.8C893.284 371.419 894.478 370.378 895.861 370.461C897.244 370.543 898.306 371.718 898.249 373.102C898.222 373.746 898.239 374.383 898.296 375.003C898.417 373.762 898.482 372.515 898.49 371.273C898.498 369.958 899.509 368.866 900.819 368.757ZM910.773 375.338C910.768 375.326 910.766 375.319 910.766 375.319C910.766 375.318 910.768 375.324 910.773 375.338ZM914.699 375.447C914.699 375.447 914.697 375.452 914.693 375.463C914.697 375.451 914.699 375.446 914.699 375.447ZM912.771 376.568L912.806 376.567C912.794 376.568 912.783 376.568 912.771 376.568Z"
              fill="white"/>
        <path
            d="M985.898 315.937C1092.32 299.846 1115.51 299.634 1120.74 326.095C1125.97 352.557 1058.43 360.508 982.226 364.702C933.967 367.356 948.303 347.095 965.308 331.875C975.157 323.06 985.898 315.937 985.898 315.937Z"
            fill="#362E8B"/>
        <path
            d="M1091.42 313.716C1053.97 323.037 986.402 345.596 955.031 364.576C953.863 365.285 953.502 366.82 954.233 367.979C959.193 375.831 960.69 382.812 961.143 386.387C961.319 387.77 962.603 388.727 963.981 388.502C976.012 386.519 1078.1 371.292 1113.86 340.859C1133.32 323.739 1091.42 313.716 1091.42 313.716Z"
            fill="#362E8B"/>
        <path fill-rule="evenodd" clip-rule="evenodd"
              d="M1075.1 318.076C1075.26 318.607 1074.95 319.16 1074.42 319.312C1036.08 330.229 982.416 349.177 955.549 365.432C955.076 365.718 954.462 365.566 954.176 365.094C953.89 364.621 954.041 364.006 954.514 363.72C981.627 347.317 1035.52 328.311 1073.87 317.388C1074.4 317.237 1074.95 317.545 1075.1 318.076Z"
              fill="#3E36A3"/>
        <path
            d="M1053.56 245.276C1054.44 248.646 1047.64 251.986 1037.51 252.714C1027.38 253.446 1025.47 242.678 1034.77 242.403C1044.08 242.131 1052.55 241.436 1053.56 245.276Z"
            fill="#2E2E2E"/>
        <path
            d="M867.111 245.276C866.23 248.646 873.024 251.986 883.155 252.714C893.283 253.446 895.2 242.678 885.893 242.403C876.587 242.131 868.117 241.436 867.111 245.276Z"
            fill="#2E2E2E"/>
        <path
            d="M1053.56 245.276C1053.56 245.276 1044.5 199.053 1028.34 188.166C1011.14 176.58 973.44 167.17 960.286 167.567C947.132 167.17 911.119 178.593 894.568 190.149C877.008 202.413 867.111 245.276 867.111 245.276C867.111 245.276 868.601 244.412 875.16 245.279C884.801 246.554 901.892 261.608 906.06 263.025C903.564 271.906 906.507 280.112 897.171 304.842C897.171 304.842 884.589 307.516 898.598 315.802C944.678 343.051 1008.35 325.474 1023.47 314.587C1036.34 305.322 1026.12 302.495 1026.12 302.495C1021.65 266.577 1017.21 259.46 1017.21 259.46C1017.21 259.46 1037.23 246.712 1045.5 245.282C1051.57 244.23 1053.56 245.276 1053.56 245.276Z"
            fill="url(#paint3_radial)"/>
        <path
            d="M981.118 203.773C976.396 214.144 968.725 222.204 961.693 222.204C954.664 222.204 939.563 208.036 939.881 203.773C940.199 199.509 981.118 203.773 981.118 203.773Z"
            fill="#2E2E2E"/>
        <path
            d="M1007.89 243.048C1009.71 252.75 1012.76 259.433 1014.61 263.025L1017.21 259.457C1023.27 265.812 1026.91 269.059 1025.53 279.291C1024.29 278.715 1016.31 289.873 1016.57 288.357C1018.23 278.953 1007.41 255.878 1007.33 243.128C1007.33 242.793 1007.83 242.717 1007.89 243.048Z"
            fill="#2E2E2E"/>
        <path
            d="M936.805 182.306C935.974 182.343 936.213 180.198 934.782 179.122C933.203 177.934 930.323 178.056 928.906 179.516C925.257 183.283 930.283 193.445 936.163 191.793C939.507 190.856 938.878 188.126 938.431 185.606C938.282 184.766 937.62 182.27 936.805 182.306Z"
            fill="#FF8A66"/>
        <path
            d="M937.372 183.317C936.783 183.195 937.481 183.37 936.693 182.463C935.826 181.46 933.796 181.04 932.525 181.692C929.25 183.377 930.263 188.789 934.677 188.789C937.19 188.789 937.677 187.246 937.862 185.624C937.922 185.078 937.948 183.436 937.372 183.317Z"
            fill="#DD7652"/>
        <path
            d="M982.25 179.593C983.724 176.084 987.104 176.687 988.653 178.53C991.415 181.814 987.859 189.556 983.313 189.676C977.284 189.841 980.883 182.86 982.25 179.593Z"
            fill="#FF8A66"/>
        <path
            d="M979.41 186.366C979.916 186.697 979.33 186.279 979.724 187.412C980.161 188.666 981.78 187.236 983.204 187.1C986.872 186.753 989.008 182.112 984.909 180.47C982.575 179.537 980.592 182.612 979.82 184.045C979.559 184.528 978.923 186.044 979.41 186.366Z"
            fill="#DD7652"/>
        <path
            d="M938.818 193.783C936.898 190.903 933.888 189.152 933.471 185.736C932.216 175.392 923.628 156.031 928.022 158.07C924.108 146.958 929.273 143.969 939.914 135.803C940.434 135.402 938.12 134.988 939.914 133.558C944.665 129.781 956.495 127.1 967.984 130.907C964.772 125.604 977.267 132.856 979.592 134.306C982.158 135.905 981.711 133.012 983.204 134.985C993.309 148.341 984.945 158.639 988.276 158.639C991.213 158.639 984.949 174.677 983.873 181.933C982.75 187.547 970.603 201.784 967.401 202.224C958.985 203.373 944.301 202.005 938.818 193.783Z"
            fill="#362E8B"/>
        <path
            d="M978.079 168.878C969.119 178.093 954.429 175.935 937.891 171.738C937.891 171.738 932.144 171.811 928.19 166.822C929.945 172.383 932.793 180.116 933.475 185.736C933.773 188.186 935.402 190.735 937.011 193.045L976.105 195.372C979.8 190.49 983.297 184.826 983.876 181.936C984.412 178.308 986.247 172.956 987.581 168.507C983.204 164.687 978.079 168.878 978.079 168.878Z"
            fill="#4543AA"/>
        <path
            d="M933.471 185.736C932.216 186.925 936.732 202.241 938.629 204.571C943.407 210.433 951.674 217.785 960.332 217.679C966.282 217.606 973.271 213.416 981.816 203.773C984.233 200.284 984.945 182.605 983.872 181.936C980.949 180.973 980.647 170.52 978.078 168.878C973.344 170.619 968.924 171.264 964.858 171.311C958.958 171.377 953.8 169.748 949.489 168.451C946.529 167.56 943.97 166.829 941.844 166.908C936.212 167.123 937.735 181.705 933.471 185.736Z"
            fill="#FF8A66"/>
        <path
            d="M960.223 215.766C951.407 216.981 941.881 205.991 939.885 204.939C938.729 204.33 938.63 204.571 938.63 204.571C943.407 210.433 951.675 217.785 960.333 217.679C966.282 217.607 973.271 213.416 981.817 203.773C974.675 211.787 966.12 214.952 960.223 215.766Z"
            fill="#FF9C72"/>
        <path
            d="M949.476 182.721C953.786 182.721 957.286 191.721 956.766 196.216C956.614 197.53 956.236 197.666 956.313 196.123C956.521 191.8 953.449 184.995 950.287 185.011C948.174 185.021 949.476 182.721 949.476 182.721Z"
            fill="#DD7652"/>
        <path
            d="M962.76 199.814C963.035 200.499 963.22 201.777 961.541 202.76C959.684 203.426 957.456 203.422 955.903 201.986C955.33 201.456 955.082 200.724 954.983 200.112C954.956 199.947 954.711 199.96 954.701 200.125C954.618 201.433 955.065 203.452 958.34 204.127C961.303 204.74 962.634 203.25 963.045 202.77C963.899 201.777 963.545 200.377 962.922 199.728C962.853 199.662 962.723 199.728 962.76 199.814Z"
            fill="#DD7652"/>
        <path
            d="M940.557 184.167C941.523 183.468 943.824 183.18 945.069 182.955C946.01 182.786 946.95 182.717 947.923 182.704C948.897 182.687 949.91 182.614 950.824 183.078C951.721 183.534 951.502 184.465 950.728 184.832C950.022 185.16 948.821 184.931 948.039 184.918C946.652 184.895 944.834 184.935 943.457 184.868C943.036 184.852 940.6 184.822 940.557 184.167Z"
            fill="#362E8B"/>
        <path
            d="M974.93 184.405C974.109 183.448 971.768 182.432 970.665 181.942C969.828 181.572 968.98 181.313 968.106 181.111C967.225 180.903 966.318 180.625 965.457 180.956C964.613 181.284 964.732 182.349 965.408 182.902C966.017 183.402 967.116 183.382 967.825 183.521C969.079 183.766 970.334 184.101 971.586 184.299C974.076 184.991 974.93 184.405 974.93 184.405Z"
            fill="#362E8B"/>
        <path
            d="M966.927 189.417C968.741 189.771 970.122 189.814 973.628 188.328C973.853 188.232 974.095 188.397 973.979 188.612C973.406 189.675 972.145 190.175 971.582 190.251C971.582 191.621 969.758 192.098 968.731 191.727C968.241 191.552 967.573 191.049 967.404 190.284C966.662 189.989 965.48 189 966.927 189.417Z"
            fill="#2E2E2E"/>
        <path
            d="M949.692 189.758C948.454 190.42 944.884 190.132 943.08 188.788C942.885 188.642 942.636 188.841 942.726 189.069C943.024 189.824 944.047 190.513 944.762 190.566C944.534 191.761 946.02 192.482 947.146 192.29C947.914 192.158 948.904 191.741 948.973 190.857C949.881 190.546 951.142 189.341 949.692 189.758Z"
            fill="#2E2E2E"/>
        <path
            d="M971.672 199.225C972.119 199.686 972.609 200.063 972.99 200.569C973.232 200.894 973.642 202.072 974.016 202.214C974.371 202.35 974.652 201.665 974.672 201.407C974.731 200.636 974.198 199.758 973.718 199.189C973.354 198.759 972.887 198.279 972.281 198.269C971.745 198.256 971.315 198.858 971.672 199.225Z"
            fill="#DD7652"/>
        <path
            d="M964.746 210.595C964.958 211.271 963.895 212.217 963.259 212.538C961.842 213.253 958.164 213.588 957.253 211.814C957.233 211.777 957.134 211.529 957.2 211.489C957.402 211.367 958.031 211.496 958.266 211.492C959.124 211.483 959.975 211.334 960.832 211.314C961.898 211.284 962.835 210.907 963.845 210.681C964.127 210.619 964.64 210.271 964.746 210.595Z"
            fill="#DD7652"/>
        <path
            d="M950.321 205.616C950.907 205.388 951.43 205.842 952.003 206.047C953.181 206.461 954.552 206.613 955.79 206.762C958.71 207.116 961.816 206.467 964.561 205.497C966.385 204.855 969.835 203.064 972.848 200.39C972.927 200.32 973.589 199.688 973.619 199.764C970.431 206.335 961.697 208.771 956.827 208.119C953.208 207.632 949.394 205.981 950.321 205.616Z"
            fill="#DD7652"/>
        <path
            d="M943.265 164.323C943.255 163.138 942.951 160.262 944.259 160.199C944.269 160.199 944.427 161.357 944.444 161.427C944.603 162.188 944.759 163.784 945.464 164.548C945.878 164.989 946.083 164.055 946.149 163.906C946.47 163.171 946.947 162.168 947.848 161.937C948.208 161.841 948.602 162.864 948.675 163.029C948.947 163.645 949.361 165.68 950.195 165.942C950.48 166.035 950.953 165.224 951.046 165.121C951.513 164.581 952.42 162.844 953.556 163.052C955.095 163.31 954.84 166.081 956.204 166.531C956.986 166.783 957.88 164.807 958.244 164.413C958.346 164.303 958.853 163.764 959.124 163.863C959.853 164.128 959.005 167.061 959.992 167.051C960.479 167.041 960.707 166.359 960.952 166.098C961.565 165.426 963.16 163.688 964.419 164.098C965.644 164.476 964.65 166.528 965.097 167.289C965.336 167.69 965.978 167.057 966.1 166.955C966.796 166.379 968.272 165.191 969.322 165.396C970.597 165.611 968.481 167.958 969.494 168.276C969.676 168.325 970.136 167.66 970.242 167.551C970.832 166.945 972.02 165.773 973.004 165.753C973.778 165.727 973.272 167.988 974.176 167.663C974.795 167.432 975.093 165.429 975.136 165.184C975.553 162.926 974.202 160.99 974.702 158.411C974.854 157.643 975.215 156.988 975.513 156.263C975.596 156.071 975.924 155.846 975.728 155.684C975.344 155.356 973.868 156.21 973.53 156.372C972.295 156.912 971.073 157.521 969.981 158.309C969.216 158.858 968.309 159.682 967.163 159.56C965.481 159.358 966.739 156.568 965.034 156.366C963.634 156.187 962.376 157.263 961.207 157.73C960.498 158.011 959.727 158.113 959.525 157.223C959.204 155.826 959.552 154.251 960.177 153.006C960.28 152.807 961.478 151.122 961.273 150.844C961.068 150.566 959.416 151.463 959.33 151.493C960.846 150.891 956.37 152.645 952.85 154.231C951.552 154.85 950.327 155.449 949.467 156.405C949.116 156.803 948.384 158.385 947.702 158.458C947.414 158.488 947.132 157.468 947.089 157.352C946.828 156.594 946.335 155.853 945.401 155.75C944.719 155.677 943.954 156.005 943.577 156.3C942.438 157.216 940.891 158.246 941.08 160.047C941.173 161.06 941.723 162.125 942.342 163.274C942.55 163.651 943.269 164.658 943.265 164.323Z"
            fill="#4543AA"/>
        <path
            d="M979.231 170.426C978.896 169.711 978.522 169.162 978.079 168.881C973.344 170.622 968.924 171.267 964.858 171.314C958.958 171.38 953.8 169.751 949.489 168.454C947.532 167.864 945.754 167.351 944.155 167.09C948.738 169.493 967.951 177.987 979.231 170.426Z"
            fill="#DD7652"/>
        <path
            d="M1031.91 317.705H960.521H889.132C888.324 317.705 887.708 318.533 888.046 319.267C898.359 341.767 903.037 345.411 905.491 346.858C908.146 348.423 926.107 350.502 960.517 350.502C994.927 350.502 1013.25 348.423 1015.91 346.858C1018.36 345.411 1021.56 343.18 1032.99 319.267C1033.34 318.539 1032.71 317.705 1031.91 317.705Z"
            fill="#CCE1FF"/>
        <path
            d="M1045.9 282.425C1047.02 277.877 1048.35 258.006 1045.51 245.278C1029.57 247.463 1017.21 259.456 1017.21 259.456C1017.21 259.456 1022.71 279.803 1021.66 283.378C1020.22 297.784 1012.72 311.604 1010.68 316.791C1006.09 328.472 1008.63 333.13 1016.57 326.936C1027.57 318.35 1041.22 301.448 1045.9 282.425Z"
            fill="#FF8A66"/>
        <path fill-rule="evenodd" clip-rule="evenodd"
              d="M1036.08 273.288C1036.18 274.501 1035.27 275.566 1034.06 275.665C1033.41 275.718 1032.8 275.779 1032.24 275.847C1032.46 276.065 1032.69 276.381 1032.83 276.813C1033.2 277.974 1032.56 279.214 1031.4 279.583C1030.7 279.805 1029.98 279.662 1029.43 279.261C1029.35 279.243 1029.25 279.222 1029.11 279.199C1028.53 279.095 1027.71 279.006 1026.84 278.935C1025.98 278.865 1025.12 278.817 1024.47 278.786C1024.15 278.771 1023.88 278.76 1023.7 278.753C1023.6 278.749 1023.53 278.747 1023.48 278.745L1023.43 278.743L1023.41 278.743C1023.41 278.743 1023.41 278.743 1023.41 278.743C1022.63 278.719 1021.92 278.284 1021.54 277.6C1021.17 276.916 1021.18 276.084 1021.58 275.413L1023.48 276.539C1021.58 275.413 1021.58 275.411 1021.58 275.408L1021.59 275.403L1021.59 275.393L1021.61 275.371C1021.61 275.357 1021.62 275.342 1021.63 275.327C1021.65 275.296 1021.68 275.264 1021.7 275.23C1021.75 275.162 1021.81 275.088 1021.87 275.009C1022.01 274.85 1022.18 274.672 1022.41 274.483C1022.85 274.104 1023.48 273.685 1024.38 273.274C1026.16 272.458 1029.03 271.65 1033.7 271.269C1034.91 271.17 1035.98 272.074 1036.08 273.288ZM1029.62 279.312C1029.63 279.314 1029.62 279.314 1029.62 279.311C1029.62 279.311 1029.62 279.311 1029.62 279.312Z"
              fill="#DD7652"/>
        <path
            d="M913.867 242.941C911.653 250.105 907.262 257.956 906.06 261.564L903.458 259.456C897.399 265.811 897.366 268.125 898.75 278.357C901.568 277.046 895.068 295.265 917.394 297.003C898.025 285.791 914.308 253.362 914.43 243.031C914.434 242.7 913.967 242.627 913.867 242.941Z"
            fill="#2E2E2E"/>
        <path
            d="M875.686 288.896C870.26 275.417 874.345 253.795 875.16 245.278C891.095 247.463 903.458 259.456 903.458 259.456C903.458 259.456 899.832 279.8 900.899 290.502C904.289 297.224 921.009 319.502 923.045 324.685C927.634 336.367 912.023 325.824 903.309 320.783C890.751 313.524 879.087 297.337 875.686 288.896Z"
            fill="#FF8A66"/>
        <path fill-rule="evenodd" clip-rule="evenodd"
              d="M884.589 273.288C884.688 272.074 885.753 271.17 886.966 271.269C891.637 271.65 894.509 272.458 896.289 273.274C897.185 273.685 897.817 274.104 898.261 274.483C898.484 274.672 898.658 274.85 898.793 275.009C898.86 275.088 898.917 275.162 898.966 275.23C898.99 275.264 899.012 275.296 899.032 275.327C899.042 275.342 899.052 275.357 899.061 275.371L899.074 275.393L899.08 275.403L899.083 275.408C899.085 275.411 899.086 275.413 897.19 276.539L899.086 275.413C899.484 276.084 899.498 276.916 899.123 277.6C898.747 278.284 898.038 278.719 897.258 278.743L897.241 278.743L897.186 278.745C897.137 278.747 897.065 278.749 896.971 278.753C896.785 278.76 896.517 278.771 896.194 278.786C895.546 278.817 894.687 278.865 893.828 278.935C892.955 279.006 892.138 279.095 891.552 279.199C891.421 279.222 891.318 279.243 891.239 279.261C890.69 279.662 889.964 279.805 889.267 279.583C888.107 279.214 887.465 277.974 887.835 276.813C887.972 276.381 888.208 276.065 888.427 275.847C887.864 275.779 887.259 275.718 886.608 275.665C885.394 275.566 884.491 274.501 884.589 273.288ZM891.048 279.312C891.049 279.311 891.05 279.311 891.051 279.311C891.042 279.314 891.04 279.314 891.048 279.312Z"
              fill="#DD7652"/>
        <path
            d="M1013.95 343.488C980.843 346.738 924.158 346.798 908.03 343.71C907.027 343.518 906.196 342.812 905.842 341.853C899.902 325.845 895.247 299.208 894.919 277.831C894.893 276.183 896.217 274.832 897.863 274.832H1023.18C1024.8 274.832 1026.12 276.149 1026.12 277.775C1026.14 299.188 1021.71 328.205 1016.4 341.644C1015.99 342.67 1015.05 343.379 1013.95 343.488Z"
            fill="#DEECFF"/>
        <path fill-rule="evenodd" clip-rule="evenodd"
              d="M1032.36 317.911C1032.85 318.163 1033.05 318.766 1032.8 319.257C1026.06 332.366 1021.52 338.811 1018.63 341.991C1017.18 343.582 1016.11 344.393 1015.34 344.804C1014.95 345.012 1014.63 345.123 1014.37 345.176C1014.24 345.202 1014.13 345.214 1014.03 345.217C1014.01 345.217 1014 345.218 1013.98 345.217C997.388 346.842 974.94 347.669 954.624 347.705C934.314 347.74 916.015 346.986 907.842 345.419M1014.11 343.228C1014.11 343.228 1014.11 343.228 1014.11 343.228L1014.11 343.228C1014.11 343.228 1014.11 343.228 1014.11 343.228ZM1032.36 317.911C1031.87 317.658 1031.27 317.852 1031.02 318.343ZM888.979 317.946C889.45 317.659 890.066 317.808 890.353 318.279C896.647 328.604 901.008 334.932 903.908 338.691C905.359 340.573 906.433 341.796 907.19 342.55C907.57 342.929 907.856 343.175 908.058 343.325C908.181 343.416 908.249 343.453 908.27 343.465C916.251 344.983 934.324 345.74 954.621 345.705C974.928 345.669 997.342 344.841 1013.85 343.22C1013.89 343.216 1013.93 343.215 1013.98 343.216C1014.02 343.206 1014.16 343.168 1014.39 343.041C1014.89 342.775 1015.79 342.137 1017.15 340.644C1019.87 337.657 1024.31 331.394 1031.02 318.343M1014.1 343.227C1014.1 343.227 1014.1 343.227 1014.1 343.227L1014.1 343.227L1014.1 343.227ZM908.218 343.455C908.218 343.455 908.218 343.455 908.218 343.455ZM888.979 317.946C888.507 318.234 888.358 318.849 888.645 319.321ZM888.645 319.321C894.959 329.678 899.362 336.073 902.325 339.913ZM902.325 339.913C903.805 341.832 904.937 343.128 905.778 343.967ZM905.778 343.967C906.198 344.385 906.56 344.704 906.868 344.932ZM906.868 344.932C907.142 345.136 907.482 345.35 907.842 345.419Z"
              fill="#4BACDC"/>
        <path
            d="M968.656 316.202C968.656 318.555 965.014 321.525 960.518 321.525C956.022 321.525 952.38 318.555 952.38 316.202C952.38 313.848 956.022 311.938 960.518 311.938C965.014 311.938 968.656 313.848 968.656 316.202Z"
            fill="white"/>
    </g>
    <path
        d="M563.848 294.4C563.592 295.68 563.288 296.976 562.936 298.288C562.584 299.6 562.168 300.896 561.688 302.176H560.44L559.624 296.896H549.112L546.472 309.616H554.248L556.888 306.064H558.088C557.832 307.664 557.528 309.28 557.176 310.912C556.856 312.512 556.472 314.128 556.024 315.76H554.824L553.72 312.112H545.896L543.112 325.504H554.104L557.704 319.744H558.904C558.84 320.992 558.712 322.336 558.52 323.776C558.328 325.184 558.056 326.592 557.704 328H534.04L534.28 326.608C535.592 326.064 537 325.68 538.504 325.456L544.504 296.992C543.864 296.832 543.24 296.656 542.632 296.464C542.024 296.272 541.416 296.048 540.808 295.792L541.144 294.4H563.848Z"
        fill="#362E8B"/>
    <path
        d="M570.581 325.456C571.989 325.712 573.253 326.096 574.373 326.608L574.133 328H561.509L561.749 326.608C562.517 326.288 563.237 326.048 563.909 325.888C564.613 325.728 565.301 325.584 565.973 325.456L571.973 296.992C571.205 296.8 570.501 296.608 569.861 296.416C569.253 296.224 568.725 296.016 568.277 295.792L568.613 294.4H572.837C574.117 294.4 575.525 294.336 577.061 294.208C578.629 294.08 580.117 294.016 581.525 294.016C584.693 294.016 587.045 294.704 588.581 296.08C590.149 297.424 590.933 299.344 590.933 301.84C590.933 303.088 590.709 304.288 590.261 305.44C589.845 306.592 589.237 307.632 588.437 308.56C587.669 309.488 586.709 310.304 585.557 311.008C584.437 311.68 583.157 312.192 581.717 312.544C582.645 314.72 583.653 316.88 584.741 319.024C585.861 321.168 587.013 323.296 588.197 325.408L590.453 326.8L590.213 328H584.741L583.109 326.656C582.437 325.536 581.829 324.432 581.285 323.344C580.773 322.256 580.293 321.168 579.845 320.08C579.429 318.992 579.045 317.872 578.693 316.72C578.373 315.568 578.069 314.368 577.781 313.12H573.173L570.581 325.456ZM579.941 296.512C579.205 296.512 578.565 296.544 578.021 296.608C577.509 296.64 577.029 296.688 576.581 296.752L573.605 311.056H577.013C578.709 311.088 580.133 310.832 581.285 310.288C582.469 309.744 583.413 309.024 584.117 308.128C584.853 307.2 585.381 306.16 585.701 305.008C586.053 303.856 586.229 302.672 586.229 301.456C586.261 299.728 585.765 298.48 584.741 297.712C583.749 296.912 582.149 296.512 579.941 296.512Z"
        fill="#362E8B"/>
    <path
        d="M600.675 325.456C602.083 325.712 603.347 326.096 604.467 326.608L604.227 328H591.603L591.843 326.608C592.611 326.288 593.331 326.048 594.003 325.888C594.707 325.728 595.395 325.584 596.067 325.456L602.067 296.992C601.299 296.8 600.595 296.608 599.955 296.416C599.347 296.224 598.819 296.016 598.371 295.792L598.707 294.4H602.931C604.211 294.4 605.619 294.336 607.155 294.208C608.723 294.08 610.211 294.016 611.619 294.016C614.787 294.016 617.139 294.704 618.675 296.08C620.243 297.424 621.027 299.344 621.027 301.84C621.027 303.088 620.803 304.288 620.355 305.44C619.939 306.592 619.331 307.632 618.531 308.56C617.763 309.488 616.803 310.304 615.651 311.008C614.531 311.68 613.251 312.192 611.811 312.544C612.739 314.72 613.747 316.88 614.835 319.024C615.955 321.168 617.107 323.296 618.291 325.408L620.547 326.8L620.307 328H614.835L613.203 326.656C612.531 325.536 611.923 324.432 611.379 323.344C610.867 322.256 610.387 321.168 609.939 320.08C609.523 318.992 609.139 317.872 608.787 316.72C608.467 315.568 608.163 314.368 607.875 313.12H603.267L600.675 325.456ZM610.035 296.512C609.299 296.512 608.659 296.544 608.115 296.608C607.603 296.64 607.123 296.688 606.675 296.752L603.699 311.056H607.107C608.803 311.088 610.227 310.832 611.379 310.288C612.563 309.744 613.507 309.024 614.211 308.128C614.947 307.2 615.475 306.16 615.795 305.008C616.147 303.856 616.323 302.672 616.323 301.456C616.355 299.728 615.859 298.48 614.835 297.712C613.843 296.912 612.243 296.512 610.035 296.512Z"
        fill="#362E8B"/>
    <path
        d="M624.324 314.656C624.324 311.744 624.756 309.024 625.62 306.496C626.516 303.968 627.796 301.776 629.46 299.92C631.124 298.032 633.124 296.544 635.46 295.456C637.796 294.368 640.436 293.824 643.38 293.824C645.716 293.824 647.684 294.208 649.284 294.976C650.884 295.744 652.164 296.752 653.124 298C654.116 299.248 654.82 300.688 655.236 302.32C655.684 303.92 655.908 305.584 655.908 307.312C655.908 309.872 655.54 312.432 654.804 314.992C654.1 317.52 652.996 319.792 651.492 321.808C649.988 323.824 648.084 325.456 645.78 326.704C643.508 327.952 640.804 328.576 637.668 328.576C635.364 328.576 633.364 328.208 631.668 327.472C630.004 326.704 628.628 325.696 627.54 324.448C626.452 323.168 625.636 321.696 625.092 320.032C624.58 318.336 624.324 316.544 624.324 314.656ZM629.46 314.704C629.46 316.464 629.684 318.048 630.132 319.456C630.612 320.864 631.252 322.064 632.052 323.056C632.884 324.048 633.844 324.816 634.932 325.36C636.052 325.872 637.268 326.112 638.58 326.08C640.916 326.112 642.852 325.552 644.388 324.4C645.956 323.216 647.204 321.712 648.132 319.888C649.092 318.032 649.764 316 650.148 313.792C650.564 311.552 650.772 309.376 650.772 307.264C650.772 305.632 650.58 304.144 650.196 302.8C649.844 301.456 649.3 300.304 648.564 299.344C647.828 298.384 646.916 297.648 645.828 297.136C644.772 296.592 643.54 296.32 642.132 296.32C639.924 296.32 638.02 296.896 636.42 298.048C634.82 299.2 633.492 300.672 632.436 302.464C631.412 304.256 630.66 306.24 630.18 308.416C629.7 310.592 629.46 312.688 629.46 314.704Z"
        fill="#362E8B"/>
    <path
        d="M664.331 325.456C665.739 325.712 667.003 326.096 668.123 326.608L667.883 328H655.259L655.499 326.608C656.267 326.288 656.987 326.048 657.659 325.888C658.363 325.728 659.051 325.584 659.723 325.456L665.723 296.992C664.955 296.8 664.251 296.608 663.611 296.416C663.003 296.224 662.475 296.016 662.027 295.792L662.363 294.4H666.587C667.867 294.4 669.275 294.336 670.811 294.208C672.379 294.08 673.867 294.016 675.275 294.016C678.443 294.016 680.795 294.704 682.331 296.08C683.899 297.424 684.683 299.344 684.683 301.84C684.683 303.088 684.459 304.288 684.011 305.44C683.595 306.592 682.987 307.632 682.187 308.56C681.419 309.488 680.459 310.304 679.307 311.008C678.187 311.68 676.907 312.192 675.467 312.544C676.395 314.72 677.403 316.88 678.491 319.024C679.611 321.168 680.763 323.296 681.947 325.408L684.203 326.8L683.963 328H678.491L676.859 326.656C676.187 325.536 675.579 324.432 675.035 323.344C674.523 322.256 674.043 321.168 673.595 320.08C673.179 318.992 672.795 317.872 672.443 316.72C672.123 315.568 671.819 314.368 671.531 313.12H666.923L664.331 325.456ZM673.691 296.512C672.955 296.512 672.315 296.544 671.771 296.608C671.259 296.64 670.779 296.688 670.331 296.752L667.355 311.056H670.763C672.459 311.088 673.883 310.832 675.035 310.288C676.219 309.744 677.163 309.024 677.867 308.128C678.603 307.2 679.131 306.16 679.451 305.008C679.803 303.856 679.979 302.672 679.979 301.456C680.011 299.728 679.515 298.48 678.491 297.712C677.499 296.912 675.899 296.512 673.691 296.512Z"
        fill="#362E8B"/>
    <path
        d="M706.096 325.456C706.928 325.552 707.696 325.712 708.4 325.936C709.136 326.128 709.808 326.352 710.416 326.608L710.176 328H697.024L697.264 326.608C698 326.288 698.704 326.048 699.376 325.888C700.08 325.728 700.784 325.584 701.488 325.456L707.488 296.992C706.784 296.864 706.128 296.704 705.52 296.512C704.912 296.288 704.336 296.048 703.792 295.792L704.128 294.4H708.448C709.728 294.4 711.12 294.336 712.624 294.208C714.16 294.08 715.616 294.016 716.992 294.016C718.528 294.016 719.936 294.176 721.216 294.496C722.528 294.784 723.632 295.264 724.528 295.936C725.456 296.576 726.176 297.392 726.688 298.384C727.2 299.344 727.456 300.496 727.456 301.84C727.456 303.728 727.104 305.472 726.4 307.072C725.728 308.672 724.736 310.064 723.424 311.248C722.144 312.432 720.592 313.36 718.768 314.032C716.944 314.704 714.912 315.04 712.672 315.04C712.512 315.04 712.24 315.04 711.856 315.04C711.504 315.04 711.104 315.04 710.656 315.04C710.24 315.008 709.808 314.976 709.36 314.944C708.944 314.912 708.592 314.88 708.304 314.848L706.096 325.456ZM715.744 296.512C714.976 296.512 714.288 296.544 713.68 296.608C713.104 296.64 712.592 296.688 712.144 296.752L708.88 312.304C709.04 312.336 709.264 312.368 709.552 312.4C709.872 312.432 710.192 312.464 710.512 312.496C710.864 312.496 711.184 312.512 711.472 312.544C711.792 312.544 712.048 312.544 712.24 312.544C715.568 312.544 718.08 311.6 719.776 309.712C721.472 307.792 722.32 305.184 722.32 301.888C722.32 301.088 722.224 300.368 722.032 299.728C721.872 299.056 721.536 298.48 721.024 298C720.544 297.52 719.872 297.152 719.008 296.896C718.176 296.64 717.088 296.512 715.744 296.512Z"
        fill="#362E8B"/>
    <path
        d="M730.995 328H720.195L720.483 326.608C721.731 326.096 722.979 325.712 724.227 325.456L743.187 293.824H744.435L749.859 325.456C750.435 325.584 751.011 325.744 751.587 325.936C752.195 326.096 752.739 326.32 753.219 326.608L752.979 328H740.787L741.027 326.608C742.467 326.064 743.875 325.68 745.251 325.456L743.811 316.672H732.531L727.395 325.456C728.771 325.648 730.051 326.032 731.235 326.608L730.995 328ZM733.923 314.176H743.427L741.891 304L741.795 299.872H741.699L739.779 304.096L733.923 314.176Z"
        fill="#362E8B"/>
    <path
        d="M779.721 325.696C779.017 326.112 778.217 326.496 777.321 326.848C776.425 327.2 775.497 327.504 774.537 327.76C773.609 328.016 772.665 328.208 771.705 328.336C770.777 328.496 769.913 328.576 769.113 328.576C764.857 328.576 761.513 327.456 759.081 325.216C756.681 322.944 755.481 319.728 755.481 315.568C755.481 312.336 755.929 309.392 756.825 306.736C757.753 304.048 759.081 301.76 760.809 299.872C762.537 297.952 764.633 296.464 767.097 295.408C769.593 294.352 772.409 293.824 775.545 293.824C777.657 293.824 779.465 293.968 780.969 294.256C782.473 294.512 783.721 294.912 784.713 295.456C784.617 295.936 784.473 296.528 784.281 297.232C784.121 297.936 783.913 298.672 783.657 299.44C783.433 300.208 783.193 300.976 782.937 301.744C782.681 302.48 782.441 303.136 782.217 303.712H780.969L779.961 296.8C779.385 296.64 778.665 296.528 777.801 296.464C776.937 296.368 776.105 296.32 775.305 296.32C772.841 296.32 770.681 296.832 768.825 297.856C767.001 298.848 765.481 300.208 764.265 301.936C763.049 303.664 762.137 305.696 761.529 308.032C760.921 310.336 760.617 312.816 760.617 315.472C760.617 317.744 760.937 319.584 761.577 320.992C762.217 322.368 763.001 323.44 763.929 324.208C764.889 324.976 765.897 325.488 766.953 325.744C768.041 326 769.033 326.112 769.929 326.08C771.209 326.112 772.393 325.92 773.481 325.504C774.569 325.088 775.321 324.72 775.737 324.4L777.849 314.704C777.017 314.64 776.249 314.496 775.545 314.272C774.841 314.048 774.153 313.808 773.481 313.552L773.817 312.16H785.577L785.289 313.552C784.937 313.776 784.505 313.984 783.993 314.176C783.481 314.368 782.825 314.544 782.025 314.704L779.721 325.696Z"
        fill="#362E8B"/>
    <path
        d="M813.739 294.4C813.483 295.68 813.179 296.976 812.827 298.288C812.475 299.6 812.059 300.896 811.579 302.176H810.331L809.515 296.896H799.003L796.363 309.616H804.139L806.779 306.064H807.979C807.723 307.664 807.419 309.28 807.067 310.912C806.747 312.512 806.363 314.128 805.915 315.76H804.715L803.611 312.112H795.787L793.003 325.504H803.995L807.595 319.744H808.795C808.731 320.992 808.603 322.336 808.411 323.776C808.219 325.184 807.947 326.592 807.595 328H783.931L784.171 326.608C785.483 326.064 786.891 325.68 788.395 325.456L794.395 296.992C793.755 296.832 793.131 296.656 792.523 296.464C791.915 296.272 791.307 296.048 790.699 295.792L791.035 294.4H813.739Z"
        fill="#362E8B"/>
    <defs>
        <linearGradient id="paint0_linear" x1="505.124" y1="365.495" x2="791.883" y2="78.5004"
                        gradientUnits="userSpaceOnUse">
            <stop stop-color="#DEEBFF"/>
            <stop offset="0.7925" stop-color="#FBEFFF"/>
        </linearGradient>
        <linearGradient id="paint1_linear" x1="715.991" y1="395.981" x2="1112.08" y2="-0.192965"
                        gradientUnits="userSpaceOnUse">
            <stop stop-color="#4497DF"/>
            <stop offset="0.8006" stop-color="#85E3EA"/>
        </linearGradient>
        <linearGradient id="paint2_linear" x1="673.938" y1="15.7595" x2="1147.51" y2="15.7595"
                        gradientUnits="userSpaceOnUse">
            <stop stop-color="#4497DF"/>
            <stop offset="0.8006" stop-color="#85E3EA"/>
        </linearGradient>
        <radialGradient id="paint3_radial" cx="0" cy="0" r="1" gradientUnits="userSpaceOnUse"
                        gradientTransform="translate(960.334 248.92) rotate(90) scale(81.3654 93.2225)">
            <stop offset="0.0572917" stop-color="#F1E846"/>
            <stop offset="1" stop-color="#FFB800"/>
        </radialGradient>
        <clipPath id="clip0">
            <rect width="592" height="394" fill="white" transform="translate(576)"/>
        </clipPath>
    </defs>
</svg>
