<svg viewBox="0 0 1017 346" fill="none" xmlns="http://www.w3.org/2000/svg">
    <path
        d="M744.373 130.152C714.492 107.036 677.214 108.155 641.536 109.133C627.712 109.512 613.359 110.88 599.595 108.933C594.566 108.222 589.322 108.163 585.465 104.472C579.125 98.4017 583.886 86.2584 585.65 79.3549C590.273 61.258 595.525 41.7311 586.442 24.1844C575.107 2.29317 545.091 -0.7511 523.161 0.492041C506.662 1.42634 490.433 6.61432 474.935 11.9866C439.745 24.1844 406.186 44.7364 378.807 69.9315C368.981 78.9734 359.817 88.9082 352.339 99.9796C338.453 120.534 327.074 145.709 350.456 164.639C356.666 169.666 363.794 172.959 371.137 175.912C384.402 181.243 398.464 184.915 410.29 193.275C413.093 195.258 416.064 197.246 417.023 200.799C420.267 212.817 395.7 226.598 387.957 231.952C373.83 241.724 358.864 250.989 349.007 265.284C334.539 286.264 345.053 303.328 354.362 313.255H652.453C676.403 299.183 699.674 280.056 718.7 261.341C731.463 248.788 744.308 234.306 753.014 218.6C769.471 188.91 773.973 153.048 744.373 130.152Z"
        fill="url(#paint0_linear)"/>
    <path
        d="M650.16 313.023H359.146C359.146 318.998 369.229 324.53 386.356 329.041C392.956 330.78 400.605 332.366 409.124 333.77C434.685 337.979 468.094 340.526 504.654 340.526C540.885 340.526 574.219 337.867 599.814 333.595C630.574 328.459 650.16 320.996 650.16 313.023Z"
        fill="white" stroke="#9C8FF4" stroke-width="2" stroke-miterlimit="10" stroke-linecap="round"
        stroke-linejoin="round"/>
    <path d="M1015.5 313.254H1.49951" stroke="#9C8FF4" stroke-width="2" stroke-miterlimit="10" stroke-linecap="round"
          stroke-linejoin="round"/>
    <path
        d="M339.662 277.172H375.619C376.375 277.172 376.962 277.831 376.872 278.583L372.738 313.023H342.543L338.41 278.583C338.32 277.831 338.906 277.172 339.662 277.172Z"
        stroke="#9C8FF4" stroke-width="2" stroke-miterlimit="10" stroke-linecap="round" stroke-linejoin="round"/>
    <path d="M338.611 280.252H351.741" stroke="#9C8FF4" stroke-width="2" stroke-miterlimit="10" stroke-linecap="round"
          stroke-linejoin="round"/>
    <path d="M364.607 307.117H373.468" stroke="#9C8FF4" stroke-width="2" stroke-miterlimit="10" stroke-linecap="round"
          stroke-linejoin="round"/>
    <path d="M340.029 310.004H375.251" stroke="#9C8FF4" stroke-width="2" stroke-miterlimit="10" stroke-linecap="round"
          stroke-linejoin="round"/>
    <path
        d="M351.49 277.171C342.277 248.216 326.934 237.782 326.934 237.782C326.934 237.782 325.07 234.914 319.621 235.919C314.171 236.924 302.628 250.258 302.236 253.554C311.466 248.216 323.637 254.95 326.934 237.782C327.921 232.637 321.368 230.465 315.439 232.781C311.527 234.308 307.885 237.79 306.861 243.66"
        stroke="#9C8FF4" stroke-width="2" stroke-miterlimit="10" stroke-linecap="round" stroke-linejoin="round"/>
    <path
        d="M354.322 277.171C342.11 255.87 331.24 253.442 326.866 258.731C322.492 264.02 323.066 269.525 323.066 269.525C323.066 269.525 334.741 260.996 334.106 258.731C333.471 256.466 333.471 256.466 333.471 256.466"
        stroke="#9C8FF4" stroke-width="2" stroke-miterlimit="10" stroke-linecap="round" stroke-linejoin="round"/>
    <path
        d="M364.607 277.172C368.653 247.057 378.983 231.859 378.983 231.859C378.983 231.859 382.452 225.203 388.828 226.712C394.219 227.989 401.78 239.289 409.013 241.06C405.222 244.843 381.199 249.198 378.985 231.859C378.267 226.242 386.162 221.644 392.404 222.897C396.523 223.722 400.471 228.31 402.498 233.915"
        stroke="#9C8FF4" stroke-width="2" stroke-miterlimit="10" stroke-linecap="round" stroke-linejoin="round"/>
    <path
        d="M364.607 277.173C371.383 253.413 384.86 253.444 389.234 258.733C393.608 264.022 393.034 269.527 393.034 269.527C393.034 269.527 400.663 260.952 393.034 255.855C389.594 253.556 385.291 254.945 385.291 254.945"
        stroke="#9C8FF4" stroke-width="2" stroke-miterlimit="10" stroke-linecap="round" stroke-linejoin="round"/>
    <path
        d="M356.329 277.172C350.736 243.948 341.08 212.254 323.039 212.903C304.998 213.553 303.92 231.859 303.92 231.859C303.92 231.859 306.861 218.141 321.056 224.452C332.125 229.371 348.729 209.534 323.039 212.906"
        stroke="#9C8FF4" stroke-width="2" stroke-miterlimit="10" stroke-linecap="round" stroke-linejoin="round"/>
    <path
        d="M362.1 210.849C370.252 212.462 376.524 221.667 375.923 229.895C375.324 238.123 367.26 248.189 367.26 248.189C367.26 248.189 355.925 244.844 350.496 237.162C343.049 226.628 348.574 212.929 352.921 208.377C357.268 203.825 366.832 224.047 364.479 238.152"
        stroke="#9C8FF4" stroke-width="2" stroke-miterlimit="10" stroke-linecap="round" stroke-linejoin="round"/>
    <path d="M354.597 241.483C355.421 245.069 359.795 266.952 358.766 277.172" stroke="#9C8FF4" stroke-width="2"
          stroke-miterlimit="10" stroke-linecap="round" stroke-linejoin="round"/>
    <path d="M360.109 277.172C361.168 274.965 366.958 257.741 362.199 246.186" stroke="#9C8FF4" stroke-width="2"
          stroke-miterlimit="10" stroke-linecap="round" stroke-linejoin="round"/>
    <path
        d="M348.906 215.01C348.728 211.295 339.481 184.943 339.481 184.943C339.481 184.943 339.647 192.852 338.404 199.978C336.852 208.877 342.32 214.178 348.906 215.01Z"
        stroke="#9C8FF4" stroke-width="2" stroke-miterlimit="10" stroke-linecap="round" stroke-linejoin="round"/>
    <path d="M343.522 191.116C348.514 196.062 352.75 205.341 350.918 211.026" stroke="#9C8FF4" stroke-width="2"
          stroke-miterlimit="10" stroke-linecap="round" stroke-linejoin="round"/>
    <path d="M504.651 337.627C539.058 337.627 572.659 335.182 599.269 330.74" stroke="#9C8FF4" stroke-width="2"
          stroke-miterlimit="10" stroke-linecap="round" stroke-linejoin="round"/>
    <path
        d="M543.459 343.155C530.86 343.841 517.811 344.196 504.652 344.196C469.34 344.196 435.223 341.781 408.589 337.397C402.619 336.414 397.061 335.339 391.988 334.186"
        stroke="#9C8FF4" stroke-width="2" stroke-miterlimit="10" stroke-linecap="round" stroke-linejoin="round"/>
    <path
        d="M682.286 303.701H692.078C693.581 303.701 694.798 304.92 694.798 306.421V310.304C694.798 311.807 693.579 313.023 692.078 313.023H682.286"
        stroke="#9C8FF4" stroke-width="2" stroke-miterlimit="10" stroke-linecap="round" stroke-linejoin="round"/>
    <path
        d="M656.735 303.701H683.45C684.953 303.701 686.169 304.92 686.169 306.421V310.304C686.169 311.807 684.951 313.023 683.45 313.023H656.735"
        stroke="#9C8FF4" stroke-width="2" stroke-miterlimit="10" stroke-linecap="round" stroke-linejoin="round"/>
    <path d="M658.029 303.701V313.023" stroke="#9C8FF4" stroke-width="2" stroke-miterlimit="10" stroke-linecap="round"
          stroke-linejoin="round"/>
    <path
        d="M690.459 297.252H701.847C702.732 297.252 703.45 297.97 703.45 298.855V302.096C703.45 302.981 702.732 303.699 701.847 303.699H690.459"
        stroke="#9C8FF4" stroke-width="2" stroke-miterlimit="10" stroke-linecap="round" stroke-linejoin="round"/>
    <path
        d="M663.085 297.252H690.916C691.801 297.252 692.519 297.97 692.519 298.855V302.096C692.519 302.981 691.801 303.699 690.916 303.699H663.085"
        stroke="#9C8FF4" stroke-width="2" stroke-miterlimit="10" stroke-linecap="round" stroke-linejoin="round"/>
    <path d="M664.382 297.252V303.701" stroke="#9C8FF4" stroke-width="2" stroke-miterlimit="10" stroke-linecap="round"
          stroke-linejoin="round"/>
    <path
        d="M403.543 299.459H388.075V307.071C388.075 310.36 390.742 313.024 394.028 313.024H397.587C400.876 313.024 403.54 310.358 403.54 307.071V301.948V299.459H403.543Z"
        stroke="#9C8FF4" stroke-width="2" stroke-miterlimit="10" stroke-linecap="round" stroke-linejoin="round"/>
    <path
        d="M403.543 307.484C407.64 307.674 408.601 304.881 408.81 303.19C408.89 302.529 408.367 301.947 407.698 301.947H403.543"
        stroke="#9C8FF4" stroke-width="2" stroke-miterlimit="10" stroke-linecap="round" stroke-linejoin="round"/>
    <path d="M395.724 296.262H402.217" stroke="#9C8FF4" stroke-width="2" stroke-miterlimit="10" stroke-linecap="round"
          stroke-linejoin="round"/>
    <path d="M392.118 293.064H398.611" stroke="#9C8FF4" stroke-width="2" stroke-miterlimit="10" stroke-linecap="round"
          stroke-linejoin="round"/>
    <path d="M395.724 288.166H404.452" stroke="#9C8FF4" stroke-width="2" stroke-miterlimit="10" stroke-linecap="round"
          stroke-linejoin="round"/>
    <path d="M398.969 281.264H401.436" stroke="#9C8FF4" stroke-width="2" stroke-miterlimit="10" stroke-linecap="round"
          stroke-linejoin="round"/>
    <path
        d="M636.37 268.693H640.579H646.418L659.353 303.701M620.112 313.023H631.529L634.086 304.742M638.482 290.535L636.643 296.49"
        stroke="#9C8FF4" stroke-width="2" stroke-miterlimit="10" stroke-linecap="round" stroke-linejoin="round"/>
    <path
        d="M642.892 304.742H628.247L625.69 313.023H614.273L630.532 268.693H640.579L656.959 313.023H645.481L642.892 304.742ZM630.804 296.49H640.333L635.553 281.115L630.804 296.49Z"
        stroke="#9C8FF4" stroke-width="2" stroke-miterlimit="10" stroke-linecap="round" stroke-linejoin="round"/>
    <path
        d="M682.608 275.648H685.041C687.697 275.648 689.797 276.298 691.337 277.592C692.877 278.889 693.667 280.667 693.706 282.927V292.15C693.73 294.062 694.027 295.527 694.592 296.541V296.869H692.159M684.766 287.627C682.868 287.783 681.919 288.79 681.919 290.649C681.919 291.24 682.119 291.717 682.515 292.084C682.661 292.218 682.824 292.33 683 292.415M683.479 280.383C682.761 280.713 682.403 281.397 682.403 282.436H679.971L683.479 280.383Z"
        stroke="#9C8FF4" stroke-width="2" stroke-miterlimit="10" stroke-linecap="round" stroke-linejoin="round"/>
    <path
        d="M685.669 296.869C685.438 296.445 685.233 295.822 685.053 295C683.859 296.501 682.19 297.253 680.047 297.253C678.083 297.253 676.415 296.659 675.04 295.472C673.666 294.285 672.979 292.794 672.979 290.996C672.979 288.736 673.814 287.028 675.483 285.875C677.152 284.719 679.577 284.143 682.762 284.143H684.764V283.041C684.764 281.119 683.937 280.158 682.28 280.158C680.74 280.158 679.969 280.919 679.969 282.442H673.481C673.481 280.43 674.337 278.795 676.052 277.538C677.765 276.282 679.952 275.652 682.608 275.652C685.265 275.652 687.364 276.302 688.904 277.596C690.444 278.893 691.235 280.671 691.274 282.931V292.154C691.298 294.066 691.595 295.53 692.159 296.545V296.873H685.669V296.869ZM681.606 292.633C682.414 292.633 683.085 292.46 683.618 292.112C684.151 291.767 684.533 291.375 684.764 290.937V287.607H682.876C680.616 287.607 679.487 288.621 679.487 290.65C679.487 291.242 679.687 291.718 680.083 292.086C680.485 292.451 680.991 292.633 681.606 292.633Z"
        stroke="#9C8FF4" stroke-width="2" stroke-miterlimit="10" stroke-linecap="round" stroke-linejoin="round"/>
    <path
        d="M613.693 99.0386C614.942 98.268 616.192 97.4989 617.441 96.7314L617.788 96.5178L618.186 96.6081C622.343 97.5513 626.561 98.4897 630.842 99.4258C631.787 99.6318 633.022 99.0291 633.49 98.0444L633.49 98.0427C634.647 95.6204 635.824 93.2227 636.997 90.832C638.479 87.8112 639.955 84.8017 641.38 81.7685C641.6 81.2971 641.584 80.8992 641.48 80.6349C641.38 80.3832 641.176 80.1827 640.838 80.0991C631.156 77.7066 621.684 75.2875 612.164 72.8424L613.693 99.0386ZM613.693 99.0386C613.467 98.0413 613.257 97.0425 613.061 96.0429L612.936 95.4071L612.305 95.2612C608.201 94.313 604.153 93.36 600.15 92.4044L600.15 92.4043C599.814 92.324 599.682 92.1507 599.63 91.9637C599.568 91.7369 599.588 91.3281 599.912 90.8039L599.913 90.8026C600.177 90.3748 600.441 89.9468 600.705 89.5186C603.835 84.4494 606.981 79.3532 609.681 74.2622M613.693 99.0386L612.164 72.8424C611.823 72.7548 611.361 72.811 610.873 73.0712C610.39 73.3282 609.954 73.7492 609.681 74.2622M609.681 74.2622C609.681 74.2623 609.681 74.2625 609.681 74.2626L608.798 73.7933L609.681 74.2618C609.681 74.262 609.681 74.2621 609.681 74.2622ZM642.285 82.1936C640.862 85.2229 639.374 88.2552 637.886 91.2901C636.712 93.6831 635.537 96.0776 634.393 98.4737C633.738 99.8506 632.057 100.714 630.629 100.403L642.285 82.1936Z"
        fill="#F1E846" stroke="#F1E846" stroke-width="2"/>
    <path
        d="M616.016 81.4202C617.904 79.418 622.898 78.2746 622.611 83.2666C627.16 79.3329 629.905 82.42 629.474 84.7385C628.71 88.6284 624.674 90.7498 617.276 92.8152C613.651 88.1614 612.863 84.7749 616.016 81.4202Z"
        fill="black"/>
    <path
        d="M467.786 51.5232L467.786 51.5233C456.381 53.9692 444.418 56.444 432.213 58.945C431.099 59.1749 430.552 60.1432 430.83 61.0709C432.66 67.1384 434.466 73.2099 436.1 79.2748M467.786 51.5232L435.135 79.5368M467.786 51.5232C468.815 51.3019 470.133 51.986 470.578 53.0761L467.786 51.5232ZM436.1 79.2748C436.1 79.2754 436.1 79.276 436.1 79.2767L435.135 79.5368M436.1 79.2748C436.1 79.2743 436.1 79.2739 436.1 79.2734L435.135 79.5368M436.1 79.2748C436.379 80.295 437.44 80.937 438.471 80.7066L438.472 80.7063C443.16 79.6646 447.905 78.6254 452.685 77.5912L453.148 77.4911L453.518 77.7853C454.607 78.6498 455.681 79.5131 456.738 80.3763M435.135 79.5368C435.553 81.0694 437.132 82.0304 438.689 81.6825C443.375 80.6413 448.119 79.6025 452.897 78.5685C454.029 79.4675 455.144 80.365 456.242 81.2621C456.407 80.9668 456.573 80.6715 456.738 80.3763M456.738 80.3763C457.168 79.6102 457.597 78.8442 458.027 78.0787C458.302 77.5889 458.576 77.0993 458.851 76.61L459.072 76.2159L459.514 76.1213C464.324 75.092 469.159 74.0652 474.004 73.0456L474.004 73.0455C475.166 72.8017 475.85 71.7506 475.686 70.8481L475.685 70.8471C474.617 64.9299 472.978 59.0077 470.579 53.078L474.21 74.0241C469.366 75.0435 464.532 76.0701 459.723 77.0992C459.448 77.5891 459.173 78.0793 458.898 78.5696C458.44 79.386 457.982 80.2029 457.524 81.0199C457.263 80.8053 457.001 80.5908 456.738 80.3763Z"
        fill="#F1E846" stroke="#F1E846" stroke-width="2"/>
    <path
        d="M444.319 64.3398C444.472 61.7708 448.671 58.4209 452.775 62.8023C453.992 57.3189 459.504 58.6618 461.064 60.8683C463.638 64.5734 461.198 68.2371 455.4 73.3289C448.012 71.0251 444.044 68.6434 444.319 64.3398Z"
        fill="black"/>
    <path
        d="M675.174 101.073L675.175 101.073C682.309 99.0445 689.284 97.0965 696.147 95.202L696.148 95.2019C696.48 95.11 696.94 95.3133 697.083 95.828C698.155 99.7139 699.179 103.63 700.143 107.585L700.143 107.586C700.278 108.138 699.956 108.575 699.629 108.667C697.915 109.143 696.199 109.62 694.482 110.097C693.446 110.384 692.409 110.672 691.371 110.961L690.898 111.092L690.713 111.546C690.442 112.209 690.169 112.874 689.894 113.54C689.382 113.108 688.869 112.677 688.353 112.246L687.95 111.91L687.445 112.05C684.681 112.817 681.912 113.586 679.131 114.359L679.131 114.36C678.83 114.443 678.381 114.264 678.239 113.715C677.223 109.721 676.055 105.813 674.724 102.004L674.723 102.004C674.57 101.565 674.791 101.181 675.174 101.073Z"
        fill="#F1E846" stroke="#F1E846" stroke-width="2"/>
    <path
        d="M682.295 103.815C682.309 102.153 684.691 99.8569 687.133 102.611C687.746 99.0079 690.97 99.7426 691.865 101.161C693.366 103.538 692.103 106.007 688.96 109.483C684.598 108.085 682.251 106.613 682.295 103.815Z"
        fill="black"/>
    <path
        d="M603.336 33.6745C603.326 34.689 602.436 35.3118 601.387 35.0612M603.336 33.6745C603.37 29.6654 602.903 25.661 601.857 21.6567C601.596 20.6422 600.395 19.6156 599.217 19.3626C590.486 17.4796 581.477 15.5845 572.189 13.6797M603.336 33.6745L602.336 33.665L602.336 33.6651M603.336 33.6745L602.336 33.666C602.336 33.6657 602.336 33.6654 602.336 33.6651M601.387 35.0612L572.189 13.6797M601.387 35.0612C598.229 34.3119 595.038 33.5602 591.812 32.806L601.387 35.0612ZM572.189 13.6797L571.988 14.6593C571.989 14.6593 571.989 14.6594 571.989 14.6594C571.989 14.6594 571.989 14.6595 571.989 14.6595L572.189 13.6797ZM602.336 33.6651C602.334 33.863 602.257 33.9671 602.173 34.026C602.081 34.0916 601.898 34.1552 601.62 34.0886L601.618 34.0882C598.459 33.3387 595.266 32.5867 592.039 31.8323L591.504 31.7072L591.112 32.092C590.645 32.5497 590.171 33.0077 589.691 33.4658C589.147 32.6877 588.582 31.9094 587.995 31.1312L587.777 30.8409L587.422 30.7589C584.162 30.0046 580.867 29.2478 577.538 28.4886C577.199 28.4112 576.835 28.2011 576.534 27.8962C576.231 27.5887 576.056 27.2511 576.008 26.9824L602.336 33.6651ZM571.824 14.6324C571.82 14.6247 571.816 14.6171 571.812 14.6094L571.812 14.6094L571.81 14.6049C571.769 14.5256 571.746 14.4642 571.733 14.4211C571.722 14.3804 571.721 14.3612 571.721 14.3612C571.721 14.3612 571.721 14.3613 571.721 14.3614C571.721 14.365 571.721 14.3924 571.706 14.4345C571.691 14.4782 571.665 14.5238 571.629 14.5635C571.581 14.6175 571.539 14.6336 571.535 14.6353C571.536 14.6347 571.544 14.6324 571.559 14.6298C571.598 14.623 571.667 14.6181 571.768 14.6266C571.771 14.6269 571.774 14.6271 571.777 14.6274C571.792 14.6288 571.808 14.6304 571.824 14.6324Z"
        fill="#F1E846" stroke="#F1E846" stroke-width="2"/>
    <path
        d="M581.886 20.7906C581.908 19.3286 585.022 18.533 587.941 22.2333C588.863 19.365 592.88 21.6859 593.836 23.4034C595.429 26.2863 593.5 27.8165 589.291 29.2591C584.518 25.7608 581.743 23.2429 581.886 20.7906Z"
        fill="black"/>
    <path
        d="M338.472 79.9585L338.472 79.9571C338.364 75.8425 337.904 71.7341 336.971 67.6289C336.859 67.1342 336.308 66.7663 335.739 66.8885C327.719 68.616 319.558 70.3532 311.289 72.1025L338.472 79.9585ZM338.472 79.9585C338.486 80.4541 337.985 81.1387 337.248 81.2923L337.248 81.2924M338.472 79.9585L337.248 81.2924M337.248 81.2924C333.85 82.0026 330.439 82.7129 327.016 83.4257L326.646 83.503M337.248 81.2924L326.646 83.503M326.646 83.503L326.419 83.8064M326.646 83.503L326.419 83.8064M326.419 83.8064C325.815 84.6153 325.2 85.4245 324.576 86.234M326.419 83.8064L324.576 86.234M324.576 86.234C324.071 85.7265 323.561 85.218 323.044 84.7091L322.663 84.3335L322.138 84.4427C319.435 85.006 316.726 85.5694 314.012 86.134C313.281 86.2862 312.549 86.4384 311.817 86.5907C311.473 86.6619 311.267 86.5813 311.17 86.5097C311.086 86.4469 311.002 86.3326 311.008 86.1037L311.008 86.1023C311.109 81.8618 310.93 77.6091 310.35 73.3445L310.35 73.3435C310.279 72.826 310.66 72.2362 311.288 72.1026L324.576 86.234Z"
        fill="#F1E846" stroke="#F1E846" stroke-width="2"/>
    <path
        d="M318.569 75.5349C318.973 73.7542 322.089 71.4212 324.354 74.4621C325.741 70.65 329.261 71.5744 330.073 73.1095C331.385 75.6858 329.392 78.2402 324.802 81.7798C320.128 80.1742 317.871 78.5224 318.569 75.5349Z"
        fill="black"/>
    <path
        d="M401.321 128.066L401.321 128.066L400.996 127.982C394.082 126.199 387.123 124.405 380.078 122.605C379.903 122.56 379.63 122.585 379.32 122.761C379.015 122.933 378.745 123.216 378.59 123.554L401.321 128.066ZM401.321 128.066C401.442 128.097 401.501 128.158 401.535 128.269C401.577 128.406 401.585 128.672 401.409 129.024L401.408 129.025M401.321 128.066L401.408 129.025M401.408 129.025C399.295 133.258 397.332 137.501 395.617 141.753L395.617 141.753M401.408 129.025L395.617 141.753M395.617 141.753C395.318 142.494 394.65 142.742 394.328 142.659L394.327 142.659M395.617 141.753L394.327 142.659M394.327 142.659C391.506 141.94 388.689 141.218 385.872 140.496L385.865 140.494L385.399 140.375M394.327 142.659L385.399 140.375M385.399 140.375L385.015 140.664M385.399 140.375L385.015 140.664M385.015 140.664C384.369 141.15 383.729 141.636 383.093 142.123M385.015 140.664L383.093 142.123M383.093 142.123C382.914 141.475 382.74 140.828 382.569 140.179L382.42 139.611L381.851 139.465C379.855 138.952 377.86 138.437 375.863 137.922C375.041 137.71 374.218 137.498 373.394 137.286C373.257 137.25 373.153 137.162 373.091 137.004C373.024 136.835 373.002 136.564 373.132 136.235L373.132 136.235C374.802 132.012 376.648 127.786 378.589 123.554L383.093 142.123Z"
        fill="#F1E846" stroke="#F1E846" stroke-width="2"/>
    <path
        d="M383.32 128.981C384.573 127.429 388.198 126.522 388.13 130.38C391.302 127.322 393.37 129.696 393.056 131.492C392.555 134.506 389.791 136.163 384.882 137.776C382.136 134.19 381.231 131.584 383.32 128.981Z"
        fill="black"/>
    <path
        d="M646.876 13.5506C650.372 14.4069 653.892 15.2632 657.441 16.1147C657.918 16.229 658.193 16.718 658.052 17.2046C657.5 19.1313 656.935 21.0581 656.361 22.9848C656.215 23.4738 655.699 23.7755 655.206 23.6635C653.729 23.323 652.257 22.9799 650.793 22.6369C650.306 22.9921 649.817 23.3473 649.326 23.7025C649.119 23.1843 648.914 22.6685 648.71 22.1504C647.25 21.8073 645.793 21.4643 644.343 21.1213C643.862 21.007 643.609 20.518 643.776 20.029C644.443 18.095 645.095 16.1633 645.732 14.2317C645.895 13.7379 646.406 13.4362 646.876 13.5506Z"
        stroke="#F1E846" stroke-width="2" stroke-miterlimit="10" stroke-linecap="round" stroke-linejoin="round"/>
    <path
        d="M652.786 18.0018C652.822 18.0549 652.828 18.0897 652.828 18.0897C652.832 18.3968 652.73 18.6415 652.344 18.9315C651.994 19.194 651.461 19.4497 650.694 19.7175L652.076 18.2112C652.3 17.9676 652.459 17.8989 652.528 17.8798C652.589 17.8632 652.623 17.8713 652.652 17.8842C652.693 17.9021 652.744 17.9415 652.786 18.0018ZM650.687 19.7199C650.648 19.7335 650.608 19.7471 650.568 19.7608C650.049 19.1775 649.749 18.7266 649.614 18.3654C649.48 18.0072 649.507 17.7595 649.723 17.4492L650.687 19.7199Z"
        fill="#F1E846" stroke="#F1E846" stroke-width="2"/>
    <path
        d="M343.304 30.4018C347.877 30.3337 352.463 30.2655 357.056 30.1974C357.674 30.1877 358.149 30.6329 358.117 31.19C357.993 33.3916 357.866 35.5933 357.742 37.7925C357.711 38.3496 357.212 38.8094 356.631 38.8216C354.881 38.8532 353.132 38.8848 351.383 38.9164C350.967 39.4225 350.556 39.9285 350.152 40.4321C349.736 39.9406 349.318 39.4517 348.894 38.9602C347.145 38.9919 345.398 39.0235 343.649 39.0551C343.068 39.0648 342.567 38.6196 342.53 38.0601C342.392 35.8512 342.289 33.6422 342.221 31.4333C342.202 30.8713 342.688 30.4091 343.304 30.4018Z"
        stroke="#F1E846" stroke-width="2" stroke-miterlimit="10" stroke-linecap="round" stroke-linejoin="round"/>
    <path
        d="M347.961 33.7219L347.961 33.7219L347.963 33.7145C347.962 33.7185 347.962 33.7184 347.964 33.7148C347.972 33.7019 348.007 33.6453 348.1 33.573C348.21 33.4874 348.349 33.423 348.487 33.3991C348.618 33.3765 348.735 33.3913 348.84 33.4427C348.943 33.4932 349.103 33.6118 349.266 33.9083L350.136 35.4867L351.015 33.9136C351.189 33.6021 351.362 33.4669 351.48 33.4061C351.598 33.3451 351.721 33.3287 351.847 33.3466C351.981 33.3656 352.111 33.4232 352.211 33.4986C352.3 33.5651 352.325 33.6138 352.325 33.6134C352.325 33.6134 352.325 33.6133 352.325 33.6132C352.39 33.8099 352.388 33.9586 352.354 34.0923C352.317 34.2374 352.225 34.4248 352.022 34.6625C351.656 35.09 351.036 35.5619 350.119 36.1241C349.205 35.597 348.595 35.1509 348.239 34.7439C348.043 34.5189 347.958 34.3419 347.924 34.2054C347.893 34.0788 347.891 33.9288 347.961 33.7219Z"
        fill="#F1E846" stroke="#F1E846" stroke-width="2"/>
    <path
        d="M521.443 44.169C525.185 44.9897 528.958 45.808 532.761 46.6262M521.443 44.169C521.442 44.1687 521.44 44.1684 521.439 44.1682L532.761 46.6262M521.443 44.169C521.443 44.1694 521.413 44.1675 521.364 44.1944C521.306 44.2262 521.277 44.2676 521.269 44.2871L521.268 44.2886C520.472 46.2141 519.755 48.1368 519.128 50.0591C519.541 50.1462 519.954 50.2335 520.367 50.3208C521.492 50.5586 522.619 50.7968 523.749 51.0338L524.237 51.1364L524.449 51.5887C524.525 51.7516 524.602 51.9142 524.679 52.0767C524.858 51.9449 525.037 51.8131 525.216 51.6814L525.576 51.4166L526.013 51.5081C527.606 51.8413 529.204 52.1745 530.807 52.5077L530.603 53.4868M521.443 44.169L532.761 46.6262M532.761 46.6262C532.045 48.5781 531.404 50.532 530.857 52.4941C530.856 52.4954 530.853 52.4969 530.851 52.4986C530.835 52.5077 530.818 52.51 530.804 52.507L530.603 53.4868M530.603 53.4868C531.138 53.5962 531.676 53.2775 531.817 52.774L525.121 52.9937C525.349 52.825 525.578 52.6562 525.808 52.4869C527.402 52.8202 529 53.1535 530.603 53.4868Z"
        fill="#F1E846" stroke="#F1E846" stroke-width="2"/>
    <path
        d="M525.412 47.1043L525.675 49.0977L527.106 47.6856C527.802 46.9988 528.234 47.0902 528.388 47.1528C528.655 47.2616 528.755 47.5128 528.754 47.5827L528.754 47.5861C528.746 48.0726 528.546 48.4829 527.932 48.9253C527.352 49.3434 526.471 49.7345 525.227 50.1416C524.402 49.3173 523.921 48.6735 523.713 48.1493C523.601 47.8677 523.58 47.6493 523.606 47.4656C523.632 47.2818 523.716 47.0625 523.921 46.7946C523.979 46.7223 524.11 46.6107 524.311 46.5202C524.51 46.4308 524.713 46.3908 524.877 46.3984C525.032 46.4055 525.123 46.4512 525.182 46.5073C525.242 46.5636 525.361 46.7164 525.412 47.1043Z"
        fill="black" stroke="#F1E846" stroke-width="2"/>
    <path
        d="M518.297 83.3144C522.101 84.1488 525.938 84.9808 529.806 85.8128C530.327 85.9247 530.592 86.4234 530.405 86.927C529.67 88.917 529.015 90.9046 528.461 92.897C528.32 93.4006 527.782 93.7193 527.247 93.6098C525.644 93.2765 524.045 92.9432 522.452 92.6099C521.946 92.9822 521.445 93.3519 520.948 93.7242C520.688 93.1938 520.435 92.6659 520.187 92.1356C518.598 91.8023 517.015 91.4666 515.436 91.1333C514.91 91.0214 514.611 90.5226 514.774 90.0166C515.421 88.0193 516.163 86.0245 516.988 84.0296C517.197 83.5211 517.786 83.2025 518.297 83.3144Z"
        stroke="#F1E846" stroke-width="2" stroke-miterlimit="10" stroke-linecap="round" stroke-linejoin="round"/>
    <path
        d="M522.016 87.4855L522.278 89.4794L523.709 88.0669C523.98 87.7997 524.186 87.7048 524.307 87.6727C524.422 87.6425 524.494 87.6577 524.542 87.6771C524.599 87.7003 524.651 87.7432 524.688 87.7954C524.711 87.8284 524.718 87.8507 524.719 87.8572C524.712 88.1752 524.588 88.4542 524.133 88.7827C523.704 89.0924 523.047 89.3902 522.106 89.7039C521.495 89.0833 521.151 88.6098 521.002 88.237C520.922 88.034 520.911 87.8908 520.927 87.7806C520.943 87.6705 520.994 87.5233 521.144 87.3278C521.169 87.297 521.249 87.2243 521.389 87.1611C521.528 87.0986 521.663 87.0742 521.762 87.0786C521.851 87.0827 521.878 87.1067 521.887 87.1152C521.897 87.1239 521.978 87.2034 522.016 87.4855ZM524.72 87.8433L524.72 87.8452L524.72 87.8433Z"
        fill="#F1E846" stroke="#F1E846" stroke-width="2"/>
    <path
        d="M517.282 19.0636C512.845 19.1439 508.41 19.2218 503.98 19.302C503.384 19.3118 502.525 19.7935 502.084 20.3749C500.343 22.6738 498.859 24.9728 497.606 27.2693C497.289 27.8508 497.525 28.3154 498.117 28.3057C499.89 28.2765 501.666 28.2497 503.444 28.2205C503.598 28.7339 503.761 29.2472 503.936 29.7605C504.605 29.235 505.283 28.7071 505.977 28.1792C507.755 28.15 509.536 28.1232 511.319 28.094C511.913 28.0843 512.638 27.6026 512.964 27.0188C514.243 24.7125 515.757 22.4038 517.532 20.0976C517.978 19.5186 517.878 19.0539 517.282 19.0636Z"
        stroke="#F1E846" stroke-width="2" stroke-miterlimit="10" stroke-linecap="round" stroke-linejoin="round"/>
    <path
        d="M508.961 23.2286C509.559 22.7441 510 22.5127 510.295 22.4049C510.052 22.7756 509.657 23.171 509.042 23.6071C508.515 23.9807 507.861 24.3608 507.067 24.765L508.961 23.2286ZM507.316 22.4241L506.799 24.9C506.542 25.0276 506.272 25.1578 505.988 25.291C505.547 24.8539 505.382 24.5493 505.344 24.3378C505.314 24.1667 505.33 23.815 506.013 23.1479C506.171 22.9985 506.42 22.822 506.711 22.67C506.929 22.5567 507.138 22.4737 507.316 22.4241ZM507.658 22.3725C507.658 22.3727 507.655 22.3724 507.649 22.3712C507.655 22.3717 507.658 22.3723 507.658 22.3725ZM507.374 22.0836C507.373 22.0765 507.373 22.0725 507.373 22.0723C507.373 22.072 507.374 22.0756 507.374 22.0836Z"
        fill="#F1E846" stroke="#F1E846" stroke-width="2"/>
    <path
        d="M367.482 76.4299C371.919 76.5102 376.354 76.588 380.784 76.6683C381.38 76.6781 382.239 77.1597 382.679 77.7412C384.421 80.0401 385.905 82.3391 387.158 84.6356C387.474 85.217 387.238 85.6817 386.647 85.672C384.874 85.6428 383.098 85.616 381.319 85.5868C381.166 86.1001 381.003 86.6135 380.828 87.1268C380.159 86.6013 379.48 86.0734 378.787 85.5455C377.009 85.5163 375.228 85.4895 373.445 85.4603C372.851 85.4506 372.126 84.9689 371.8 84.385C370.52 82.0788 369.007 79.7701 367.231 77.4638C366.786 76.8824 366.886 76.4178 367.482 76.4299Z"
        stroke="#F1E846" stroke-width="2" stroke-miterlimit="10" stroke-linecap="round" stroke-linejoin="round"/>
    <path
        d="M375.721 80.9713C375.106 80.5353 374.71 80.1399 374.467 79.7692C374.763 79.877 375.204 80.1083 375.802 80.5929L377.696 82.1293C376.902 81.725 376.248 81.3449 375.721 80.9713ZM378.775 82.6552C378.491 82.522 378.22 82.3919 377.964 82.2642L377.447 79.7884C377.625 79.838 377.834 79.921 378.052 80.0343C378.343 80.1863 378.592 80.3627 378.75 80.5122C379.433 81.1793 379.449 81.531 379.419 81.702C379.381 81.9136 379.216 82.2181 378.775 82.6552ZM377.39 79.4365C377.39 79.4367 377.39 79.4407 377.389 79.4478C377.389 79.4398 377.389 79.4363 377.39 79.4365ZM377.113 79.7355C377.108 79.7367 377.105 79.7369 377.105 79.7367C377.105 79.7366 377.108 79.736 377.113 79.7355Z"
        fill="#F1E846" stroke="#F1E846" stroke-width="2"/>
    <path
        d="M445.525 3.77077C450.023 4.74144 454.512 5.70725 458.988 6.67305C459.589 6.80199 460.212 7.3299 460.363 7.85294C460.963 9.91349 461.399 11.9765 461.686 14.0395C461.759 14.5625 461.333 14.8812 460.749 14.7523C458.991 14.3654 457.227 13.9786 455.461 13.5894C455.105 13.964 454.745 14.3387 454.38 14.7133C453.911 14.1538 453.432 13.5967 452.943 13.0372C451.172 12.6479 449.398 12.2611 447.622 11.8719C447.031 11.7429 446.484 11.2126 446.384 10.6895C445.995 8.62169 445.459 6.55141 444.761 4.486C444.584 3.95809 444.919 3.6394 445.525 3.77077Z"
        stroke="#F1E846" stroke-width="2" stroke-miterlimit="10" stroke-linecap="round" stroke-linejoin="round"/>
    <path
        d="M450.805 7.75246C450.803 7.75096 450.812 7.74681 450.838 7.74455C450.82 7.75283 450.807 7.75397 450.805 7.75246ZM451.021 7.75532C451.274 7.80112 451.753 8.00874 452.307 8.725L453.428 10.1738C452.647 9.60086 452.053 9.10575 451.636 8.66204C451.257 8.25801 451.088 7.96522 451.021 7.75532ZM454.036 10.6089C453.831 10.4649 453.636 10.3256 453.451 10.1906L454.046 8.43354C454.048 8.42753 454.05 8.4221 454.051 8.4172C454.096 8.41989 454.174 8.43146 454.291 8.47213C454.49 8.54184 454.715 8.66859 454.919 8.82709C455.127 8.98928 455.254 9.13904 455.303 9.22072C455.464 9.49574 455.483 9.64426 455.483 9.69908C455.483 9.72808 455.481 9.76651 455.412 9.84789C455.239 10.0524 454.829 10.3085 454.036 10.6089Z"
        fill="#F1E846" stroke="#F1E846" stroke-width="2"/>
    <path
        d="M413.165 36.8489L413.165 36.8497C414.139 39.698 414.988 42.5436 415.719 45.3914L415.719 45.3922C415.739 45.4712 415.726 45.544 415.683 45.6094C415.638 45.6769 415.556 45.7434 415.431 45.7699C414.602 45.9438 413.774 46.1177 412.944 46.2918C411.477 46.5997 410.008 46.908 408.536 47.2173L408.073 47.3148L407.854 47.7352C407.641 48.1461 407.426 48.5572 407.208 48.9686C406.83 48.6755 406.45 48.3827 406.068 48.0905L405.704 47.8116L405.255 47.9057C403.491 48.2756 401.726 48.6441 399.956 49.0134C399.41 49.1273 398.864 49.2413 398.318 49.3555C398.037 49.4135 397.844 49.2398 397.809 49.0842C397.152 46.1832 396.393 43.282 395.523 40.3806C395.495 40.2824 395.513 40.2095 395.543 40.16C395.572 40.1106 395.631 40.0554 395.742 40.0319L395.535 39.0536L395.741 40.0321C401.376 38.8424 406.967 37.6576 412.511 36.4751C412.761 36.4222 413.08 36.6006 413.165 36.8489Z"
        fill="#F1E846" stroke="#F1E846" stroke-width="2"/>
    <path
        d="M400.237 41.8314C400.31 40.3231 402.687 38.3501 405.105 40.9313C405.752 37.703 408.958 38.4912 409.883 39.7952C411.406 41.9823 410.104 44.1474 406.774 47.1373C402.383 45.7652 400.105 44.3615 400.237 41.8314Z"
        fill="black"/>
    <path
        d="M567.357 106.61C567.574 106.199 567.79 105.788 568.003 105.377L568.221 104.956L568.685 104.859C570.158 104.549 571.627 104.241 573.095 103.933C573.924 103.759 574.752 103.585 575.579 103.411L567.357 106.61ZM567.357 106.61C566.978 106.317 566.598 106.024 566.217 105.732L565.853 105.453L565.404 105.547C563.642 105.917 561.879 106.285 560.112 106.653C559.564 106.768 559.015 106.882 558.466 106.997C558.186 107.055 557.993 106.881 557.958 106.726C557.301 103.824 556.541 100.921 555.67 98.0185L555.67 98.0184C555.641 97.9201 555.659 97.8487 555.688 97.801C555.716 97.7533 555.774 97.6977 555.887 97.6737C561.522 96.484 567.113 95.2991 572.658 94.1167C572.906 94.0641 573.228 94.2417 573.314 94.4933L574.26 94.1676L573.314 94.4913C574.288 97.3396 575.137 100.185 575.867 103.033L575.868 103.034C575.888 103.113 575.874 103.186 575.831 103.251C575.787 103.318 575.705 103.385 575.58 103.411L567.357 106.61Z"
        fill="#F1E846" stroke="#F1E846" stroke-width="2"/>
    <path
        d="M560.381 99.473C560.454 97.9647 562.831 95.9917 565.249 98.5729C565.896 95.3446 569.103 96.1328 570.027 97.4368C571.55 99.6239 570.249 101.789 566.918 104.779C562.529 103.407 560.25 102.003 560.381 99.473Z"
        fill="black"/>
    <path
        d="M592.175 135.077C596.184 134.23 600.167 133.384 604.12 132.542C604.65 132.43 605.078 132.749 605.066 133.257C605.025 135.262 604.908 137.266 604.733 139.271C604.689 139.779 604.21 140.283 603.667 140.397C602.035 140.74 600.398 141.083 598.758 141.429C598.32 141.964 597.875 142.499 597.43 143.034C597.094 142.662 596.758 142.292 596.42 141.92C594.776 142.266 593.129 142.609 591.477 142.954C590.927 143.068 590.535 142.75 590.596 142.241C590.839 140.232 591.029 138.22 591.148 136.208C591.18 135.697 591.637 135.191 592.175 135.077Z"
        stroke="#F1E846" stroke-width="2" stroke-miterlimit="10" stroke-linecap="round" stroke-linejoin="round"/>
    <path
        d="M595.262 137.143C594.703 138.576 595.654 139.367 597.753 140.133C600.104 138.432 601.215 137.201 600.821 135.968L595.262 137.143ZM595.262 137.143L595.262 137.143L595.262 137.143ZM596.194 137.507L596.194 137.507L596.195 137.504C596.21 137.465 596.273 137.354 596.412 137.224C596.544 137.098 596.695 137.003 596.826 136.955C596.958 136.906 597.014 136.922 597.019 136.923C597.019 136.923 597.019 136.923 597.019 136.923C597.021 136.924 597.031 136.927 597.05 136.944C597.071 136.963 597.114 137.007 597.165 137.101L598.025 138.678C597.891 138.783 597.75 138.891 597.602 139.003C596.874 138.704 596.459 138.444 596.25 138.215C596.146 138.101 596.118 138.02 596.109 137.958C596.098 137.887 596.099 137.748 596.194 137.507ZM599.526 137.263C599.228 137.647 598.769 138.084 598.128 138.596L598.926 137.091C599.286 136.413 599.642 136.337 599.756 136.332C599.823 136.328 599.865 136.338 599.888 136.348C599.923 136.532 599.884 136.8 599.526 137.263ZM599.914 136.365C599.914 136.365 599.912 136.363 599.909 136.36C599.913 136.362 599.914 136.364 599.914 136.365Z"
        fill="#F1E846" stroke="#F1E846" stroke-width="2"/>
    <path
        d="M332.721 119.5C336.032 118.534 339.355 117.573 342.693 116.612C343.143 116.483 343.642 116.809 343.814 117.34C344.5 119.434 345.262 121.526 346.111 123.619C346.325 124.149 346.147 124.684 345.702 124.813C344.369 125.205 343.036 125.594 341.705 125.986C341.588 126.552 341.477 127.117 341.369 127.684C340.844 127.304 340.323 126.922 339.808 126.543C338.475 126.934 337.144 127.326 335.808 127.72C335.365 127.851 334.823 127.526 334.604 126.995C333.74 124.898 332.957 122.799 332.237 120.699C332.057 120.164 332.276 119.629 332.721 119.5Z"
        stroke="#F1E846" stroke-width="2" stroke-miterlimit="10" stroke-linecap="round" stroke-linejoin="round"/>
    <path
        d="M337.903 121.652L339.425 123.371C338.78 123.118 338.307 122.87 337.972 122.61C337.54 122.274 337.362 121.943 337.328 121.513C337.327 121.489 337.334 121.428 337.369 121.36C337.385 121.328 337.402 121.305 337.417 121.289C337.421 121.285 337.424 121.281 337.428 121.279C337.429 121.279 337.432 121.28 337.434 121.281C337.487 121.296 337.652 121.368 337.903 121.652ZM339.65 123.456C339.595 123.436 339.54 123.415 339.487 123.395L339.649 121.058C339.669 120.784 339.724 120.656 339.751 120.608C339.784 120.612 339.841 120.624 339.915 120.662C340.013 120.712 340.076 120.776 340.099 120.81L340.099 120.81L340.101 120.813C340.374 121.213 340.431 121.57 340.325 122.02C340.234 122.409 340.018 122.873 339.65 123.456Z"
        fill="#F1E846" stroke="#F1E846" stroke-width="2"/>
    <path
        d="M576.882 53.7196C580.193 52.7538 583.516 51.7928 586.854 50.8319C587.304 50.7029 587.803 51.0289 587.975 51.5593C588.661 53.6539 589.423 55.7461 590.272 57.8382C590.486 58.3686 590.308 58.9038 589.863 59.0327C588.53 59.4244 587.197 59.8136 585.866 60.2053C585.749 60.7722 585.638 61.3366 585.531 61.9034C585.005 61.5239 584.484 61.1419 583.969 60.7624C582.636 61.1541 581.305 61.5458 579.969 61.9399C579.527 62.0712 578.984 61.7453 578.765 61.2149C577.901 59.1179 577.118 57.0184 576.398 54.9189C576.22 54.3861 576.437 53.8509 576.882 53.7196Z"
        stroke="#F1E846" stroke-width="2" stroke-miterlimit="10" stroke-linecap="round" stroke-linejoin="round"/>
    <path
        d="M582.064 55.8713L583.586 57.5904C582.942 57.3383 582.469 57.0906 582.134 56.8305C581.703 56.4959 581.525 56.1648 581.489 55.7325C581.488 55.7083 581.495 55.6477 581.53 55.5795C581.546 55.5482 581.563 55.5246 581.578 55.5088C581.582 55.5045 581.586 55.501 581.589 55.4983C581.591 55.4988 581.593 55.4995 581.596 55.5003C581.648 55.5158 581.813 55.5873 582.064 55.8713ZM583.811 57.6761C583.756 57.6556 583.701 57.6351 583.648 57.6146L583.811 55.2778C583.83 55.0038 583.885 54.8754 583.912 54.8281C583.945 54.8313 584.002 54.8436 584.076 54.8813C584.174 54.932 584.237 54.9958 584.26 55.0297L584.26 55.0297L584.262 55.0327C584.535 55.433 584.592 55.7899 584.486 56.2398C584.395 56.6288 584.179 57.0929 583.811 57.6761Z"
        fill="#F1E846" stroke="#F1E846" stroke-width="2"/>
    <path
        d="M651.284 63.5272C654.594 62.5614 657.918 61.6004 661.255 60.6395C661.705 60.5106 662.204 60.8365 662.377 61.3669C663.063 63.4615 663.824 65.5537 664.673 67.6459C664.887 68.1762 664.71 68.7114 664.265 68.8403C662.932 69.232 661.598 69.6213 660.268 70.0129C660.151 70.5798 660.039 71.1442 659.932 71.711C659.406 71.3315 658.886 70.9496 658.37 70.57C657.037 70.9617 655.706 71.3534 654.371 71.7475C653.928 71.8789 653.385 71.5529 653.166 71.0225C652.303 68.9255 651.519 66.826 650.799 64.7265C650.619 64.1938 650.838 63.6586 651.284 63.5272Z"
        stroke="#F1E846" stroke-width="2" stroke-miterlimit="10" stroke-linecap="round" stroke-linejoin="round"/>
    <path
        d="M656.466 65.6789L657.987 67.3981C657.343 67.146 656.87 66.8981 656.534 66.638C656.102 66.303 655.925 65.9722 655.891 65.5405C655.889 65.5166 655.896 65.4557 655.931 65.3871C655.947 65.3558 655.965 65.3322 655.979 65.3164C655.983 65.3121 655.987 65.3086 655.99 65.3059C655.992 65.3064 655.994 65.3071 655.997 65.3079C656.049 65.3234 656.214 65.395 656.466 65.6789ZM658.212 67.4837C658.157 67.4632 658.103 67.4427 658.05 67.4223L658.212 65.0854C658.231 64.8114 658.287 64.683 658.313 64.6357C658.346 64.6389 658.404 64.6512 658.477 64.689C658.575 64.7396 658.638 64.8034 658.661 64.8373L658.661 64.8373L658.663 64.8403C658.936 65.2406 658.993 65.5976 658.888 66.0474C658.796 66.4364 658.58 66.9006 658.212 67.4837Z"
        fill="#F1E846" stroke="#F1E846" stroke-width="2"/>
    <path
        d="M478.54 125.903C477.689 123.837 476.916 121.766 476.205 119.693C479.41 118.758 482.627 117.828 485.858 116.898C485.864 116.909 485.87 116.923 485.875 116.938L485.876 116.94C486.562 119.034 487.322 121.126 488.17 123.22C487.678 123.364 487.184 123.509 486.691 123.653C485.938 123.874 485.185 124.094 484.435 124.315L483.859 124.485L483.737 125.073C483.726 125.129 483.715 125.185 483.703 125.24C483.606 125.169 483.509 125.098 483.412 125.026L483.013 124.733L482.537 124.872C481.234 125.255 479.934 125.638 478.628 126.023C478.617 126.014 478.605 126.003 478.592 125.988C478.571 125.963 478.553 125.934 478.54 125.903L477.616 126.284L478.54 125.903Z"
        fill="#F1E846" stroke="#F1E846" stroke-width="2"/>
    <path
        d="M478.752 120.747C478.671 119.64 479.975 118.154 481.617 120.007C481.783 117.628 483.79 118.154 484.425 119.095C485.503 120.674 484.931 122.285 483.345 124.53C480.459 123.598 478.895 122.606 478.752 120.747Z"
        fill="black"/>
    <path
        d="M702.24 57.0591L702.239 57.06C700.828 58.7531 699.458 60.5093 698.133 62.3382L695.222 59.7548L694.773 59.3559L694.209 59.5655C694.156 59.5854 694.102 59.6053 694.049 59.6253C694.058 59.5059 694.067 59.3865 694.076 59.2673L694.114 58.7727L693.743 58.4435C693.223 57.982 692.702 57.5212 692.182 57.0609C691.686 56.621 691.189 56.1816 690.694 55.7417C690.695 55.7278 690.698 55.7112 690.704 55.6929C690.714 55.6628 690.728 55.6327 690.748 55.6053L690.749 55.6035C692.051 53.7832 693.395 52.0288 694.773 50.3283C697.266 52.5488 699.762 54.7784 702.264 57.0238C702.258 57.0349 702.25 57.0469 702.24 57.0591Z"
        fill="#F1E846" stroke="#F1E846" stroke-width="2"/>
    <path
        d="M695.227 53.0436C696.123 52.3867 698.074 52.703 697.375 55.0798C699.48 53.9558 700.1 55.9361 699.638 56.9749C698.872 58.7265 697.205 59.0963 694.459 58.9455C693.719 56.0042 693.731 54.1529 695.227 53.0436Z"
        fill="black"/>
    <path
        d="M483.557 283.85C472.215 282.366 472.519 276.114 472.519 276.114C472.519 276.114 478.623 262.612 488.722 269.692C495.236 274.258 483.557 283.85 483.557 283.85Z"
        fill="#E484FF"/>
    <path
        d="M482.128 266.479C482.128 266.479 476.63 275.407 476.044 277.952C463.802 274.599 438.949 267.372 427.116 271.432C424.365 272.376 420.65 281.024 422.175 285.846C426.048 298.102 444.547 309.298 482.146 316.708C504.023 321.021 515.457 291.437 513.407 266.313C495.363 260.008 482.182 265.71 482.128 266.479Z"
        fill="#282828"/>
    <path
        d="M512.068 266.555C523.067 268.688 533.88 264.681 536.255 291.313C567.015 293.651 590.498 295.135 590.496 307.651C590.491 326.68 557.831 324.756 511.017 322.014C481.372 320.277 491.533 308.902 502.975 300.791C509.597 296.096 512.068 266.555 512.068 266.555Z"
        fill="#282828"/>
    <path d="M534.7 290.855C525.92 290.855 511.227 295.232 511.227 295.232" stroke="#4543AA" stroke-width="2"
          stroke-miterlimit="10" stroke-linecap="round" stroke-linejoin="round"/>
    <path
        d="M501.766 315.719C503.503 313.554 507.135 312.88 513.317 315.733C519.214 318.456 521.432 320.263 535.151 320.005C543.142 319.854 547.392 322.574 546.945 326.024C546.874 326.576 545.454 329.612 538.111 332.39C533.348 334.193 522.491 332.439 511.767 331.23C490.799 328.865 501.766 315.719 501.766 315.719Z"
        fill="#9C8FF4"/>
    <path
        d="M488.933 305.32C494.09 310.565 508.229 316.65 515.459 318.944C516.798 319.367 534.455 321.189 529.462 328.093C526.134 332.694 508.738 327.532 508.738 327.532C501.78 326.271 480.829 321.029 476.533 314.032C472.064 306.753 483.773 300.075 488.933 305.32Z"
        fill="#FF8A66"/>
    <path
        d="M436.088 276.234C458.436 283.238 477.676 295.526 495.99 308.162C489.607 312.925 492.434 322.683 491.609 322.496C484.393 320.859 436.084 306.882 425.523 291.875C414.965 276.869 436.088 276.234 436.088 276.234Z"
        fill="#282828"/>
    <path
        d="M488.376 319.421C486.138 312.138 484.005 313.108 477.013 312.882C470.342 312.665 462.755 311.887 455.67 308.673C451.542 306.8 444.09 303.688 442.273 310.512C441.981 311.607 444.475 318.336 448.786 321.737C451.581 323.944 468.659 326.435 472.819 327.016C480.032 328.023 490.615 326.705 488.376 319.421Z"
        fill="#9C8FF4"/>
    <path
        d="M506.576 313.27C493.274 317.14 487.496 317.588 474.904 315.206C472.445 314.741 460.133 314.522 460.035 317.077C459.804 323.171 469.543 325.302 477.846 326.567C486.151 327.832 505.533 329.754 515.527 329.438C513.211 324.124 509.457 318.643 506.576 313.27Z"
        fill="#FF8A66"/>
    <path
        d="M574.491 297.156C550.834 298.774 514.496 311.451 494.587 314.716C493.757 314.852 493.419 315.91 493.738 316.689C495.895 321.973 496.051 326.357 495.939 328.571C495.895 329.427 496.572 330.145 497.428 330.154C504.919 330.247 557.452 332.716 582.779 320.046C596.388 311.78 574.491 297.156 574.491 297.156Z"
        fill="#282828"/>
    <path d="M563.502 298.76C539.133 301.248 516.009 312.057 494.584 314.714" stroke="#4543AA" stroke-width="2"
          stroke-miterlimit="10" stroke-linecap="round" stroke-linejoin="round"/>
    <path d="M436.733 277.855C454.884 276.4 478.815 300.966 496.188 308.678" stroke="#4543AA" stroke-width="2"
          stroke-miterlimit="10" stroke-linecap="round" stroke-linejoin="round"/>
    <path
        d="M565.422 224.296C569.893 222.286 569.056 191.833 562.77 193.966C553.796 197.01 554.406 229.244 565.422 224.296Z"
        fill="#2E2E2E"/>
    <path
        d="M664.083 133.861C661.774 131.978 652.432 135.717 644.411 135.092C644.883 134.569 646.053 133.965 648.396 133.304C651.605 132.396 651.695 130.479 649.922 130.761C648.815 130.937 642.305 130.445 638.629 131.173C636.41 131.613 632.423 134.218 632.423 134.218C630.567 135.233 630.063 136.875 630.063 136.875C630.063 136.875 627.701 146.161 605.383 170.048C590.647 185.241 572.715 194.765 537.922 200.609C528.568 206.058 535.1 257.963 537.27 245.354C538.949 235.596 550.336 225.646 559.416 221.776C576.99 214.281 601.201 199.314 611.282 186.839C626.438 169.121 633.024 145.959 638.22 142.524C640.75 140.853 645.467 144.998 652.807 141.288C660.146 137.578 666.803 136.077 664.083 133.861Z"
        fill="#FF8A66"/>
    <path
        d="M500.572 194.433C466.727 184.325 455.344 173.178 443.47 155.658C425.64 128.258 425.757 121.46 425.757 121.46C425.757 121.46 423.536 115.967 421.945 114.359C419.31 111.693 413.647 108.448 412.829 107.681C411.518 106.453 411.331 109.382 413.221 111.574C417.196 116.181 412.014 114.96 412.014 114.96C403.183 112.316 407.166 112.7 401.001 109.031C399.087 108.289 397.938 109.155 398.347 110.343C398.654 111.231 398.928 112.128 399.118 113.05C399.573 115.235 401.018 118.495 402.225 119.407C404.672 122.322 415.065 125.431 417.267 127.516C421.787 131.8 422.891 151.094 434.739 171.174C442.502 185.211 466.812 203.184 478.728 211.592C483.068 214.652 483.311 226.466 484.017 226.809C499.457 234.272 510.218 202.593 500.572 194.433Z"
        fill="#FF8A66"/>
    <path
        d="M536.615 198.301C511.718 187.208 508.288 191.003 496.435 189.967C487.471 203.7 500.88 240.493 519.272 235.632C537.661 230.769 543.753 207.612 536.615 198.301Z"
        fill="#2E2E2E"/>
    <path
        d="M544.291 151.984C548.796 145.515 544.811 139.859 539.252 138.039C539.068 137.978 538.931 138.214 539.08 138.338C540.624 139.633 543.459 141.681 542.94 144.629C541.863 150.77 544.291 151.984 544.291 151.984Z"
        fill="#362E8B"/>
    <path
        d="M548.183 162.672C554.482 164.92 559.834 159.347 560.355 153.547C560.372 153.357 560.111 153.284 560.024 153.452C559.097 155.235 556.55 159.125 553.557 159.257C547.327 159.534 548.183 162.672 548.183 162.672Z"
        fill="#362E8B"/>
    <path
        d="M544.152 162.202C551.443 165.199 557.26 159.417 557.834 153.597C557.854 153.403 557.593 153.323 557.503 153.495C556.574 155.283 554.029 159.161 551.04 159.293C548.183 162.674 544.152 162.202 544.152 162.202Z"
        fill="#362E8B"/>
    <path
        d="M550.904 162.425C546.736 162.481 541.182 157.318 541.097 150.862C541.012 144.405 542.554 138.311 546.722 138.255C550.889 138.199 557.151 143.773 557.236 150.229C557.321 156.684 555.071 162.369 550.904 162.425Z"
        fill="#362E8B"/>
    <path
        d="M555.034 146.642C554.314 145.343 553.472 144.216 552.635 143.107C552.073 142.363 551.499 141.609 550.871 141.115C550.443 140.777 549.983 140.57 549.604 140.677C549.224 140.784 548.947 141.251 548.986 141.91C549.008 142.299 549.134 142.711 549.259 143.107C549.682 144.455 550.127 145.81 550.723 147.068C551.319 148.323 552.081 149.486 552.939 150.172C553.173 150.359 553.467 150.495 553.572 150.238C553.29 149.374 552.825 148.615 552.441 147.81C552.056 147.002 551.733 146.024 551.849 145.282C552.042 145.662 552.261 146.014 552.497 146.328C552.436 145.803 552.343 145.27 552.222 144.735C552.431 144.581 552.745 145.034 552.947 145.418C553.496 146.472 554.022 147.552 554.521 148.651C554.944 149.588 555.374 150.675 555.282 151.556C555.883 152.313 556.515 151.466 556.491 150.639C556.445 149.406 555.615 147.693 555.034 146.642Z"
        fill="#4543AA"/>
    <path
        d="M534.711 174.308C537.165 173.236 538.569 175.174 538.447 176.86C538.231 179.865 530.03 183.619 527.687 181.485C524.578 178.661 532.429 175.311 534.711 174.308Z"
        fill="#FF8A66"/>
    <path
        d="M531.078 180.155C534.26 176.54 531.09 180.902 530.803 183.104C539.622 180.717 549.324 175.886 552.19 169.004C554.9 162.494 546.67 144.973 544.522 143.348C533.876 135.293 524.558 138.458 518.442 142.968C512.326 147.479 509.66 164.223 511.283 171.414C513.355 180.613 531.078 180.155 531.078 180.155Z"
        fill="#362E8B"/>
    <path
        d="M534.803 172.574C537.258 171.501 538.299 173.221 538.18 174.907C537.963 177.911 531.915 181.675 529.57 179.541C526.461 176.715 530.592 178.571 534.803 172.574Z"
        fill="#FF8A66"/>
    <path
        d="M508.945 189.526C505.349 192.968 492.772 190.455 492.869 190.382C492.869 190.382 485.22 211.489 503.072 223.519C509.186 228.209 517.34 227.63 524.288 225.054C537.571 222.225 546.426 202.468 544.081 202.081C536.936 202.035 533.686 198.337 532.08 195.031C530.898 192.601 530.961 189.935 531.119 187.237C531.324 183.746 533.336 179.384 536.359 177.929C536.286 177.535 528.998 174.525 528.796 174.567C527.395 174.861 523.792 181.663 522.383 181.846C523.945 181.7 516.396 183.648 512.246 183.821C512.798 184.123 512.864 185.772 508.945 189.526Z"
        fill="#FF8A66"/>
    <path
        d="M532.929 181.377C533.408 180.555 533.97 179.808 534.603 179.188C532.788 180.209 530.727 180.594 529.569 179.543C530.306 180.754 531.54 181.35 532.929 181.377Z"
        fill="#DD7652"/>
    <path
        d="M524.825 183.152C522.641 183.86 514.982 183.709 512.243 183.821C512.683 184.062 512.71 185.352 510.856 187.526C515.043 188.809 522.925 185.772 524.825 183.152Z"
        fill="#2E2E2E"/>
    <path
        d="M514.526 173.368C511.149 166.823 511.025 155.358 516.382 147.502C521.214 140.418 533.592 137.737 542.242 142.362C533.348 136.655 525.296 137.718 518.445 142.968C512.414 147.59 509.738 164.597 514.064 172.976C515.027 174.844 513.954 175.71 516.229 176.827C514.966 175.939 515.156 174.591 514.526 173.368Z"
        fill="#4543AA"/>
    <path
        d="M534.557 170.117C534.423 166.507 523.563 150.286 525.614 145.398C528.086 139.504 535.583 140.956 543.597 143.286C536.581 139.465 525.011 139.214 523.038 146.247C520.369 155.757 523.308 170.3 525.31 177.62C528.548 178.53 534.71 174.309 534.557 170.117Z"
        fill="#4543AA"/>
    <path
        d="M506.663 161.558C505.07 164.553 503.814 178.271 508.77 182.913C510.419 184.458 525.544 187.769 530.151 178.69C531.105 176.97 533.555 173.715 533.088 171.219C531.866 164.689 524.147 163.149 523.04 146.249C520.51 146.273 518.829 147.01 517.452 147.772C516.912 148.069 516.44 148.412 516.017 148.791C513.297 151.224 512.638 155.129 509.466 158.028C508.432 159.065 507.471 160.031 506.663 161.558Z"
        fill="#FF8A66"/>
    <path
        d="M526.881 160.784C526.227 160.579 525.57 160.428 525.358 161.18C525.027 162.246 526.828 162.414 528.027 162.64C527.643 162.066 527.258 161.45 526.881 160.784Z"
        fill="#362E8B"/>
    <path
        d="M516.654 164.762C518.452 163.77 520.699 159.807 519.697 157.116C519.104 155.523 517.924 155.343 518.697 157.517C519.962 161.074 516.583 164.49 515.377 165.144C514.029 165.85 515.313 165.502 516.654 164.762Z"
        fill="#DD7652"/>
    <path
        d="M514.025 152.488C514.874 152.475 515.762 152.94 516.494 153.278C517.049 153.534 517.55 153.843 518.037 154.19C519.214 155.154 520.508 158.173 519.095 157.922C518.572 157.837 518.29 156.056 517.261 155.198C516.161 154.1 513.697 152.845 514.025 152.488Z"
        fill="#362E8B"/>
    <path
        d="M510.324 165.116C510.266 165.298 509.731 165.291 509.556 165.359C509.405 165.42 509.266 165.51 509.137 165.61C509.127 165.617 508.947 165.794 508.938 165.787C508.853 165.729 508.969 165.288 509.003 165.213C509.157 164.853 509.4 164.644 509.772 164.564C510.12 164.491 510.446 164.739 510.324 165.116Z"
        fill="#DD7652"/>
    <path
        d="M523.154 173.426C522.967 173.587 523.252 174.222 523.257 174.462C523.261 174.672 523.225 174.883 523.171 175.09C523.166 175.105 523.047 175.411 523.059 175.416C523.171 175.487 523.634 175.124 523.709 175.046C524.057 174.679 524.181 174.285 524.088 173.803C524.003 173.351 523.544 173.088 523.154 173.426Z"
        fill="#DD7652"/>
    <path
        d="M510.327 168.592C511.112 170.443 510.132 173.022 510.066 174.671C509.971 177.033 513.433 178.992 516.017 177.707C517.562 176.941 518.238 175.287 520.449 174.328C513.227 174.542 510.327 168.592 510.327 168.592Z"
        fill="#E2543D"/>
    <path
        d="M510.796 173.656C510.694 174.836 513.35 177.641 516.343 176.058C517.654 175.364 518.527 175.024 519.936 174.289C514.545 174.45 512.346 171.175 511.163 169.45C510.881 169.287 510.893 172.552 510.796 173.656Z"
        fill="#2E2E2E"/>
    <path
        d="M510.957 169.248C511.054 169.968 511.157 170.961 511.283 171.413C511.49 172.155 512.884 173.841 515.835 174.556C516.83 174.797 519.442 174.187 519.442 174.187C515.713 173.136 513.039 171.335 510.957 169.248Z"
        fill="white"/>
    <path
        d="M513.983 170.825C516.825 174.024 520.943 174.25 520.943 174.25C520.943 174.25 516.895 175.187 512.949 172.022C509.57 169.309 510.174 167.008 510.174 167.008C510.174 167.008 510.093 167.862 510.799 168.587C511.723 169.535 513.163 169.9 513.983 170.825Z"
        fill="#E2543D"/>
    <path
        d="M515.715 169.434C517.048 169.271 517.688 170.519 517.357 170.684C517.026 170.852 515.885 169.803 515.625 169.638C515.326 169.451 515.715 169.434 515.715 169.434Z"
        fill="#DD7652"/>
    <path
        d="M513.638 167.948C513.519 166.958 512.82 166.987 512.76 167.255C512.699 167.525 513.638 167.948 513.638 167.948Z"
        fill="#DD7652"/>
    <path
        d="M527.77 166.629C527.602 166.215 527.439 165.797 527.139 165.466C525.704 163.875 523.286 163.709 524.089 164.123C524.206 164.164 524.322 164.21 524.439 164.259C523.846 164.629 523.24 165.3 523.683 165.994C524.091 166.636 525.359 166.989 526.069 166.171C526.152 166.076 526.441 165.874 526.592 166.052C526.848 166.351 527.147 166.979 526.991 168.093C527.976 168.713 528.881 168.356 529.319 167.932C529.404 167.884 528.366 168.103 527.77 166.629Z"
        fill="#2E2E2E"/>
    <path
        d="M515.608 157.061C515.313 156.774 514.943 156.581 514.557 156.44C513.515 156.063 513.35 155.47 513.236 155.501C513.155 155.817 513.146 156.136 513.467 156.849C513.126 157.666 513.304 158.282 513.732 158.703C514.355 159.313 515.012 159.109 515.462 158.759C515.666 158.598 515.963 158.661 516.111 158.875C516.44 159.355 516.7 159.89 516.86 160.413C517.038 160.844 517.004 158.421 515.608 157.061Z"
        fill="#2E2E2E"/>
    <path d="M513.401 170.585C513.421 170.663 513.443 170.67 513.401 170.585V170.585Z" fill="#DD7652"/>
    <path
        d="M543.597 237.286C547.482 232.187 561.785 226.03 565.419 224.295C559.442 227.09 556.484 196.747 562.767 193.966C558.955 195.316 543.174 198.177 539.863 198.223C538.238 198.245 536.827 198.272 536.615 198.301C536.226 202.537 511.692 215.739 501.856 213.017C494.251 210.913 494.202 195.662 496.433 189.964C496.331 189.932 482.416 187.646 472.49 181.96C468.714 179.798 459.275 200.792 462.251 207.402C463.129 209.353 473.259 218.807 477.11 223.869C474.94 229.088 473.981 232.43 475.283 236.936C480.723 255.753 472.439 269.834 472.512 276.111C477.395 265.523 496.151 272.116 511.932 280.052C523.753 285.995 532.691 293.133 539.515 291.967C545.641 290.269 537.54 286.321 537.394 268.53C537.277 253.513 540.919 240.801 543.597 237.286Z"
        fill="url(#paint1_radial)"/>
    <path
        d="M474.312 220.554C476.013 222.352 477.115 223.872 477.117 223.872C477.117 223.872 479.874 218.287 480.1 217.233C478.604 218.204 476.779 220.467 474.312 220.554Z"
        fill="#2E2E2E"/>
    <path
        d="M493.003 239.103C497.9 238.064 503.899 243.591 510.857 246.168C518.793 249.107 480.396 242.137 483.766 241.623C487.661 241.03 488.106 240.142 493.003 239.103Z"
        fill="#2E2E2E"/>
    <path
        d="M537.269 199.191C536.768 204.911 511.677 216.892 501.493 214.077C493.621 211.9 492.506 196.104 494.817 190.207"
        stroke="white" stroke-width="2.3331" stroke-miterlimit="10" stroke-linecap="round" stroke-linejoin="round"/>
    <path
        d="M506.325 273.42L421.631 266.773C421.631 266.773 421.901 269.554 422.932 270.535C433.386 280.48 472.169 297.964 477.003 295.524C479.684 294.171 499.029 281.188 501.557 279.305C506.51 275.617 506.325 273.42 506.325 273.42Z"
        fill="white" stroke="#9C8FF4" stroke-width="2" stroke-miterlimit="10" stroke-linecap="round"
        stroke-linejoin="round"/>
    <path
        d="M506.325 273.421C495.356 281.121 485.019 288.103 476.5 293.034L432.605 271.259L455.264 261.07C473.78 264.625 491.301 268.553 506.325 273.421Z"
        fill="white" stroke="#9C8FF4" stroke-width="2" stroke-miterlimit="10" stroke-linecap="round"
        stroke-linejoin="round"/>
    <path d="M489.052 275.665L467.721 288.737L439.479 274.576L455.414 266.445L489.052 275.665Z" fill="white"
          stroke="#9C8FF4" stroke-width="2" stroke-miterlimit="10" stroke-linecap="round" stroke-linejoin="round"/>
    <path d="M484.082 278.711L461.217 272.092" stroke="#9C8FF4" stroke-width="2" stroke-miterlimit="10"
          stroke-linecap="round" stroke-linejoin="round"/>
    <path d="M479.623 281.444L459.005 274.824" stroke="#9C8FF4" stroke-width="2" stroke-miterlimit="10"
          stroke-linecap="round" stroke-linejoin="round"/>
    <path d="M477.684 276.86L482.644 273.906" stroke="#9C8FF4" stroke-width="2" stroke-miterlimit="10"
          stroke-linecap="round" stroke-linejoin="round"/>
    <path
        d="M421.629 266.774C426.528 273.111 465.063 293.546 476.497 293.033C476.497 293.033 471.546 247.696 470.705 245.1C469.865 242.505 412.078 228.443 412.231 231.414C412.557 237.634 420.507 265.504 421.629 266.774Z"
        fill="#EBEDFF" stroke="#9C8FF4" stroke-width="2" stroke-miterlimit="10" stroke-linecap="round"
        stroke-linejoin="round"/>
    <path
        d="M444.642 256.721C446.051 258.37 447.997 260.995 445.029 263.618C443.197 265.235 439.903 263.506 438.395 260.973C437.191 258.952 437.646 256.419 438.993 255.47C440.341 254.522 443.115 254.933 444.642 256.721Z"
        fill="white"/>
    <defs>
        <linearGradient id="paint0_linear" x1="377.624" y1="336.495" x2="664.383" y2="49.5004"
                        gradientUnits="userSpaceOnUse">
            <stop stop-color="#DEEBFF"/>
            <stop offset="0.7925" stop-color="#FBEFFF"/>
        </linearGradient>
        <radialGradient id="paint1_radial" cx="0" cy="0" r="1" gradientUnits="userSpaceOnUse"
                        gradientTransform="translate(490.764 276.278) scale(64.4298)">
            <stop offset="0.296875" stop-color="#FFB800"/>
            <stop offset="1" stop-color="#F8FF13"/>
        </radialGradient>
    </defs>
</svg>
