<svg viewBox="0 0 1015 352" fill="none" xmlns="http://www.w3.org/2000/svg">
    <path
        d="M743.373 129.898C713.492 106.781 676.214 107.9 640.536 108.878C626.712 109.257 612.359 110.625 598.595 108.678C593.566 107.967 588.322 107.908 584.465 104.217C578.125 98.1468 582.886 86.0035 584.65 79.1C589.273 61.0031 594.525 41.4762 585.442 23.9295C574.107 2.03828 544.091 -1.00598 522.161 0.237158C505.662 1.17146 489.433 6.35943 473.935 11.7317C438.745 23.9295 405.186 44.4816 377.807 69.6766C367.981 78.7185 358.817 88.6533 351.339 99.7248C337.453 120.279 326.074 145.454 349.456 164.384C355.666 169.411 362.794 172.704 370.137 175.658C383.402 180.988 397.464 184.661 409.29 193.02C412.093 195.003 415.064 196.991 416.023 200.544C419.267 212.562 394.7 226.343 386.957 231.698C372.83 241.469 357.864 250.734 348.007 265.029C333.539 286.009 344.053 303.073 353.362 313H651.453C675.403 298.928 698.674 279.801 717.7 261.087C730.463 248.533 743.308 234.051 752.014 218.345C768.471 188.655 772.973 152.793 743.373 129.898Z"
        fill="url(#paint0_linear)"/>
    <path
        d="M743.373 129.898C713.492 106.781 676.214 107.9 640.536 108.878C626.712 109.257 612.359 110.625 598.595 108.678C593.566 107.967 588.322 107.908 584.465 104.217C578.125 98.1468 582.886 86.0035 584.65 79.1C589.273 61.0031 594.525 41.4762 585.442 23.9295C574.107 2.03828 544.091 -1.00598 522.161 0.237158C505.662 1.17146 489.433 6.35943 473.935 11.7317C438.745 23.9295 405.186 44.4816 377.807 69.6766C367.981 78.7185 358.817 88.6533 351.339 99.7248C337.453 120.279 326.074 145.454 349.456 164.384C355.666 169.411 362.794 172.704 370.137 175.658C383.402 180.988 397.464 184.661 409.29 193.02C412.093 195.003 415.064 196.991 416.023 200.544C419.267 212.562 394.7 226.343 386.957 231.698C372.83 241.469 357.864 250.734 348.007 265.029C333.539 286.009 344.053 303.073 353.362 313H651.453C675.403 298.928 698.674 279.801 717.7 261.087C730.463 248.533 743.308 234.051 752.014 218.345C768.471 188.655 772.973 152.793 743.373 129.898Z"
        fill="url(#paint1_linear)"/>
    <path d="M1014 313L1 313" stroke="#9C8FF4" stroke-width="2" stroke-miterlimit="10" stroke-linecap="round"
          stroke-linejoin="round"/>
    <path
        d="M338.662 277.254H374.62C375.375 277.254 375.962 277.915 375.872 278.664L371.741 313.112H341.541L337.41 278.664C337.32 277.913 337.904 277.254 338.662 277.254Z"
        stroke="#9C8FF4" stroke-width="2" stroke-miterlimit="10" stroke-linecap="round" stroke-linejoin="round"/>
    <path d="M337.609 280.336H350.739" stroke="#9C8FF4" stroke-width="2" stroke-miterlimit="10" stroke-linecap="round"
          stroke-linejoin="round"/>
    <path d="M363.605 307.205H372.466" stroke="#9C8FF4" stroke-width="2" stroke-miterlimit="10" stroke-linecap="round"
          stroke-linejoin="round"/>
    <path d="M339.028 310.094H374.25" stroke="#9C8FF4" stroke-width="2" stroke-miterlimit="10" stroke-linecap="round"
          stroke-linejoin="round"/>
    <path
        d="M350.49 277.255C341.276 248.293 325.935 237.858 325.935 237.858C325.935 237.858 324.071 234.989 318.622 235.994C313.174 236.997 301.629 250.334 301.237 253.634C310.466 248.295 322.637 255.029 325.935 237.86C326.922 232.714 320.369 230.541 314.44 232.858C310.527 234.387 306.888 237.869 305.864 243.74"
        stroke="#9C8FF4" stroke-width="2" stroke-miterlimit="10" stroke-linecap="round" stroke-linejoin="round"/>
    <path
        d="M353.321 277.254C341.108 255.948 330.237 253.519 325.865 258.81C321.49 264.101 322.064 269.607 322.064 269.607C322.064 269.607 333.738 261.077 333.103 258.81C332.468 256.544 332.468 256.544 332.468 256.544"
        stroke="#9C8FF4" stroke-width="2" stroke-miterlimit="10" stroke-linecap="round" stroke-linejoin="round"/>
    <path
        d="M363.605 277.256C367.651 247.135 377.981 231.932 377.981 231.932C377.981 231.932 381.451 225.275 387.825 226.784C393.216 228.061 400.778 239.363 408.008 241.135C404.218 244.919 380.193 249.275 377.979 231.93C377.263 226.313 385.156 221.714 391.398 222.965C395.517 223.79 399.464 228.38 401.492 233.984"
        stroke="#9C8FF4" stroke-width="2" stroke-miterlimit="10" stroke-linecap="round" stroke-linejoin="round"/>
    <path
        d="M363.605 277.255C370.381 253.489 383.858 253.52 388.232 258.811C392.607 264.102 392.033 269.607 392.033 269.607C392.033 269.607 399.661 261.029 392.033 255.931C388.591 253.632 384.291 255.022 384.291 255.022"
        stroke="#9C8FF4" stroke-width="2" stroke-miterlimit="10" stroke-linecap="round" stroke-linejoin="round"/>
    <path
        d="M355.328 277.254C349.737 244.024 340.081 212.322 322.04 212.972C303.998 213.623 302.921 231.931 302.921 231.931C302.921 231.931 305.864 218.211 320.058 224.52C331.126 229.441 347.731 209.6 322.04 212.972"
        stroke="#9C8FF4" stroke-width="2" stroke-miterlimit="10" stroke-linecap="round" stroke-linejoin="round"/>
    <path
        d="M361.098 210.917C369.25 212.529 375.52 221.738 374.922 229.966C374.323 238.193 366.261 248.265 366.261 248.265C366.261 248.265 354.926 244.919 349.496 237.234C342.05 226.696 347.574 212.996 351.922 208.443C356.27 203.89 365.832 224.114 363.48 238.224"
        stroke="#9C8FF4" stroke-width="2" stroke-miterlimit="10" stroke-linecap="round" stroke-linejoin="round"/>
    <path d="M353.597 241.559C354.422 245.146 358.795 267.032 357.765 277.255" stroke="#9C8FF4" stroke-width="2"
          stroke-miterlimit="10" stroke-linecap="round" stroke-linejoin="round"/>
    <path d="M359.107 277.254C360.165 275.049 365.954 257.82 361.196 246.262" stroke="#9C8FF4" stroke-width="2"
          stroke-miterlimit="10" stroke-linecap="round" stroke-linejoin="round"/>
    <path
        d="M347.906 215.08C347.729 211.364 338.48 185.008 338.48 185.008C338.48 185.008 338.645 192.92 337.403 200.044C335.851 208.944 341.32 214.248 347.906 215.08Z"
        stroke="#9C8FF4" stroke-width="2" stroke-miterlimit="10" stroke-linecap="round" stroke-linejoin="round"/>
    <path d="M342.522 191.18C347.514 196.127 351.751 205.408 349.918 211.093" stroke="#9C8FF4" stroke-width="2"
          stroke-miterlimit="10" stroke-linecap="round" stroke-linejoin="round"/>
    <path d="M503.653 344.13C538.058 344.13 571.66 341.125 598.272 335.668" stroke="#9C8FF4" stroke-width="2"
          stroke-miterlimit="10" stroke-linecap="round" stroke-linejoin="round"/>
    <path
        d="M542.46 349.172C529.861 350.015 516.812 350.451 503.653 350.451C468.341 350.451 434.225 347.484 407.589 342.097C401.619 340.888 396.062 339.567 390.989 338.15"
        stroke="#9C8FF4" stroke-width="2" stroke-miterlimit="10" stroke-linecap="round" stroke-linejoin="round"/>
    <path
        d="M649.16 313.112C649.16 322.907 629.575 332.464 598.81 338.771C573.215 344.02 539.883 347.288 503.651 347.288C467.091 347.288 433.682 344.156 408.121 338.986C399.602 337.262 391.954 335.311 385.353 333.176C368.227 327.633 357.921 320.452 357.921 313.109"
        stroke="#9C8FF4" stroke-width="2" stroke-miterlimit="10" stroke-linecap="round" stroke-linejoin="round"/>
    <path d="M366.498 155.946L356.743 157.18L358.756 173.114L368.512 171.881L366.498 155.946Z" stroke="#F781EC"
          stroke-width="2" stroke-miterlimit="10" stroke-linecap="round" stroke-linejoin="round"/>
    <path d="M378.432 144.882L368.676 146.115L371.878 171.453L381.634 170.219L378.432 144.882Z" stroke="#F781EC"
          stroke-width="2" stroke-miterlimit="10" stroke-linecap="round" stroke-linejoin="round"/>
    <path d="M393.525 158.806L383.77 160.039L385.003 169.796L394.758 168.563L393.525 158.806Z" stroke="#F781EC"
          stroke-width="2" stroke-miterlimit="10" stroke-linecap="round" stroke-linejoin="round"/>
    <path d="M400.97 167.779L352.806 173.867" stroke="#9C8FF4" stroke-width="2" stroke-miterlimit="10"
          stroke-linecap="round" stroke-linejoin="round"/>
    <path d="M399.383 155.205L398.201 155.354" stroke="#9C8FF4" stroke-width="2" stroke-linecap="round"
          stroke-linejoin="round"/>
    <path d="M395.791 155.658L353.604 160.991" stroke="#9C8FF4" stroke-width="2" stroke-linecap="round"
          stroke-linejoin="round" stroke-dasharray="11.1 11.1"/>
    <path d="M352.399 161.143L351.217 161.294" stroke="#9C8FF4" stroke-width="2" stroke-linecap="round"
          stroke-linejoin="round"/>
    <path
        d="M430.893 84.8346C431.882 78.1082 427.232 71.8535 420.508 70.8643C413.783 69.8751 407.529 74.526 406.54 81.2524C405.551 87.9788 410.201 94.2335 416.926 95.2227C423.651 96.2119 429.905 91.5609 430.893 84.8346Z"
        stroke="#9C8FF4" stroke-width="2" stroke-miterlimit="10" stroke-linecap="round" stroke-linejoin="round"/>
    <path d="M418.515 77.2969L418.714 83.0455L428.392 84.677" stroke="#F781EC" stroke-width="2" stroke-miterlimit="10"
          stroke-linecap="round" stroke-linejoin="round"/>
    <path d="M570.632 132.45L561.442 130.73L559.723 139.922L568.912 141.641L570.632 132.45Z" stroke="#9C8FF4"
          stroke-width="2" stroke-miterlimit="10" stroke-linecap="round" stroke-linejoin="round"/>
    <path
        d="M562.191 135.629C562.191 135.629 564.871 138.8 564.701 138.802C564.532 138.805 570.31 134.236 570.31 134.236"
        stroke="#F781EC" stroke-width="2" stroke-miterlimit="10" stroke-linecap="round" stroke-linejoin="round"/>
    <path d="M574.238 134.973L583.456 136.698" stroke="#F781EC" stroke-width="2" stroke-miterlimit="10"
          stroke-linecap="round" stroke-linejoin="round"/>
    <path d="M573.224 140.4L596.798 144.811" stroke="#F781EC" stroke-width="2" stroke-miterlimit="10"
          stroke-linecap="round" stroke-linejoin="round"/>
    <path d="M568.01 146.472L558.82 144.752L557.101 153.943L566.29 155.663L568.01 146.472Z" stroke="#9C8FF4"
          stroke-width="2" stroke-miterlimit="10" stroke-linecap="round" stroke-linejoin="round"/>
    <path d="M571.615 148.994L587.567 151.979" stroke="#9C8FF4" stroke-width="2" stroke-miterlimit="10"
          stroke-linecap="round" stroke-linejoin="round"/>
    <path d="M570.601 154.422L575.21 155.283" stroke="#9C8FF4" stroke-width="2" stroke-miterlimit="10"
          stroke-linecap="round" stroke-linejoin="round"/>
    <path
        d="M615.83 85.5386C613.472 85.6021 611.611 87.5643 611.672 89.9229C611.722 91.8391 613.027 93.4268 614.777 93.9217L612.778 99.9725L615.477 99.9002C615.477 99.9002 620.476 93.8494 620.213 89.6951C620.15 87.3387 618.188 85.4773 615.83 85.5386Z"
        stroke="#F781EC" stroke-width="2" stroke-miterlimit="10" stroke-linecap="round" stroke-linejoin="round"/>
    <path
        d="M626.856 85.2457C624.498 85.3092 622.637 87.2714 622.698 89.63C622.749 91.5462 624.054 93.1339 625.803 93.6288L623.804 99.6797L626.504 99.6074C626.504 99.6074 631.502 93.5566 631.239 89.4022C631.178 87.0437 629.216 85.1822 626.856 85.2457Z"
        stroke="#F781EC" stroke-width="2" stroke-miterlimit="10" stroke-linecap="round" stroke-linejoin="round"/>
    <path
        d="M470.695 82.4964C472.35 82.4526 473.657 81.0729 473.614 79.4173C473.579 78.0727 472.663 76.958 471.433 76.6098L472.836 72.3613L470.94 72.4117C470.94 72.4117 467.43 76.6602 467.614 79.5772C467.66 81.2328 469.04 82.5402 470.695 82.4964Z"
        stroke="#9C8FF4" stroke-width="2" stroke-miterlimit="10" stroke-linecap="round" stroke-linejoin="round"/>
    <path
        d="M462.953 82.7034C464.608 82.6596 465.915 81.28 465.871 79.6244C465.836 78.2797 464.921 77.1651 463.691 76.8169L465.094 72.5684L463.198 72.6187C463.198 72.6187 459.688 76.8672 459.872 79.7842C459.918 81.4398 461.295 82.7472 462.953 82.7034Z"
        stroke="#9C8FF4" stroke-width="2" stroke-miterlimit="10" stroke-linecap="round" stroke-linejoin="round"/>
    <path d="M465.341 113.579L440.666 118.74L444.21 135.691L468.886 130.53L465.341 113.579Z" stroke="#9C8FF4"
          stroke-width="2" stroke-miterlimit="10" stroke-linecap="round" stroke-linejoin="round"/>
    <path d="M465.834 115.92L455.064 126.005L441.158 121.082" stroke="#9C8FF4" stroke-width="2" stroke-miterlimit="10"
          stroke-linecap="round" stroke-linejoin="round"/>
    <path d="M457.023 124.17L468.89 130.536" stroke="#9C8FF4" stroke-width="2" stroke-miterlimit="10"
          stroke-linecap="round" stroke-linejoin="round"/>
    <path d="M452.535 125.109L444.213 135.696" stroke="#9C8FF4" stroke-width="2" stroke-miterlimit="10"
          stroke-linecap="round" stroke-linejoin="round"/>
    <path
        d="M657.526 148.597L642.677 145.097C638.313 144.068 633.943 146.773 632.916 151.137C631.887 155.502 634.591 159.873 638.954 160.9L649.076 163.287L652.755 167.899L653.591 164.351L653.804 164.402C658.167 165.431 662.537 162.727 663.564 158.362C664.593 153.997 661.889 149.626 657.526 148.597Z"
        stroke="#F781EC" stroke-width="2" stroke-miterlimit="10" stroke-linecap="round" stroke-linejoin="round"/>
    <path
        d="M649.73 155.676C650.2 154.84 649.904 153.781 649.068 153.311C648.232 152.841 647.174 153.137 646.704 153.973C646.233 154.809 646.53 155.868 647.365 156.338C648.201 156.808 649.26 156.512 649.73 155.676Z"
        fill="#F781EC"/>
    <path
        d="M656.713 156.636C656.827 155.684 656.148 154.819 655.196 154.705C654.244 154.591 653.38 155.271 653.266 156.223C653.152 157.175 653.831 158.04 654.783 158.154C655.735 158.268 656.599 157.588 656.713 156.636Z"
        fill="#F781EC"/>
    <path
        d="M642.395 154.702C643.21 154.198 643.463 153.128 642.958 152.312C642.454 151.496 641.384 151.244 640.568 151.748C639.752 152.253 639.5 153.323 640.005 154.139C640.509 154.955 641.579 155.207 642.395 154.702Z"
        fill="#F781EC"/>
    <path
        d="M632.557 118.585L645.518 121.64C649.326 122.538 651.686 126.353 650.789 130.161C649.891 133.969 646.077 136.33 642.269 135.432L633.435 133.35L628.767 135.518L629.496 132.421L629.31 132.377C625.502 131.48 623.142 127.665 624.04 123.856C624.933 120.048 628.747 117.687 632.557 118.585Z"
        stroke="#9C8FF4" stroke-width="2" stroke-miterlimit="10" stroke-linecap="round" stroke-linejoin="round"/>
    <path
        d="M635.701 126.692C635.482 127.625 636.06 128.562 636.992 128.781C637.925 129.002 638.862 128.422 639.081 127.489C639.3 126.556 638.722 125.619 637.789 125.4C636.857 125.181 635.922 125.759 635.701 126.692Z"
        fill="#9C8FF4"/>
    <path
        d="M628.942 125.099C628.723 126.032 629.301 126.969 630.234 127.188C631.166 127.407 632.103 126.829 632.322 125.896C632.541 124.963 631.963 124.026 631.031 123.807C630.096 123.586 629.161 124.164 628.942 125.099Z"
        fill="#9C8FF4"/>
    <path
        d="M645.843 129.084C645.624 130.016 644.687 130.597 643.754 130.376C642.821 130.157 642.241 129.219 642.462 128.286C642.683 127.353 643.618 126.773 644.551 126.994C645.486 127.213 646.064 128.148 645.843 129.084Z"
        fill="#9C8FF4"/>
    <path d="M582.751 94.9671L566.209 90.25" stroke="#F781EC" stroke-width="2" stroke-miterlimit="10"
          stroke-linecap="round" stroke-linejoin="round"/>
    <path d="M580.197 98.0883L566.246 94.1113" stroke="#F781EC" stroke-width="2" stroke-miterlimit="10"
          stroke-linecap="round" stroke-linejoin="round"/>
    <path
        d="M565.668 86.2445L585.323 91.8508L578.928 99.6448C578.054 100.709 576.631 101.156 575.306 100.777L565.994 98.1206C564.56 97.7111 563.549 96.4278 563.487 94.9386L562.949 82.0267C562.887 80.5354 561.876 79.2542 560.442 78.8447L558.887 78.4023"
        stroke="#9C8FF4" stroke-width="2" stroke-miterlimit="10" stroke-linecap="round" stroke-linejoin="round"/>
    <path
        d="M567.385 102.408C567.46 101.504 566.788 100.711 565.884 100.636C564.98 100.56 564.186 101.233 564.111 102.137C564.036 103.041 564.708 103.834 565.612 103.909C566.516 103.984 567.31 103.312 567.385 102.408Z"
        stroke="#9C8FF4" stroke-width="2" stroke-miterlimit="10" stroke-linecap="round" stroke-linejoin="round"/>
    <path
        d="M574.899 104.89C574.649 105.761 573.741 106.267 572.869 106.02C571.998 105.77 571.492 104.861 571.74 103.99C571.989 103.118 572.898 102.612 573.769 102.86C574.643 103.109 575.149 104.018 574.899 104.89Z"
        stroke="#9C8FF4" stroke-width="2" stroke-miterlimit="10" stroke-linecap="round" stroke-linejoin="round"/>
    <path
        d="M513.909 66.2785C513.905 66.0463 513.927 65.8098 513.981 65.5733L515.698 58.0662C516.051 56.5223 517.588 55.5565 519.131 55.9113L533.961 59.3035C535.504 59.6561 536.47 61.1934 536.115 62.7373L534.399 70.2445C534.046 71.7884 532.509 72.7542 530.965 72.3994L522.683 70.5051"
        stroke="#F781EC" stroke-width="2" stroke-miterlimit="10" stroke-linecap="round" stroke-linejoin="round"/>
    <path d="M517.075 63.8281L532.443 67.3408" stroke="#F781EC" stroke-width="2" stroke-miterlimit="10"
          stroke-linecap="round" stroke-linejoin="round" stroke-dasharray="10 10"/>
    <path
        d="M517.462 80.872L502.633 77.4798C501.09 77.1272 500.124 75.5899 500.479 74.046L502.195 66.5388C502.548 64.9949 504.085 64.0292 505.628 64.3839L520.458 67.7762C522.001 68.1287 522.967 69.6661 522.612 71.21L520.896 78.7171C520.543 80.261 519.006 81.2268 517.462 80.872Z"
        stroke="#9C8FF4" stroke-width="2" stroke-miterlimit="10" stroke-linecap="round" stroke-linejoin="round"/>
    <path d="M522.503 71.6324L502.086 66.9629L501.544 69.3346L521.961 74.0041L522.503 71.6324Z" fill="#9C8FF4"/>
    <path d="M503.286 72.7305L511.895 74.6992" stroke="#9C8FF4" stroke-width="2" stroke-miterlimit="10"
          stroke-linecap="round" stroke-linejoin="round"/>
    <path d="M516.874 75.8379L518.761 76.2693" stroke="#9C8FF4" stroke-width="2" stroke-miterlimit="10"
          stroke-linecap="round" stroke-linejoin="round"/>
    <path
        d="M520.394 61.7421L517.907 61.1727C517.552 61.0917 517.331 60.7391 517.412 60.3843L517.688 59.1777C517.769 58.8229 518.122 58.6017 518.476 58.6827L520.964 59.2521C521.318 59.3332 521.539 59.6857 521.458 60.0405L521.183 61.2472C521.102 61.6019 520.749 61.8231 520.394 61.7421Z"
        fill="#F781EC"/>
    <path d="M398.762 111.904L402.624 125.243" stroke="#F781EC" stroke-width="2" stroke-miterlimit="10"
          stroke-linecap="round" stroke-linejoin="round"/>
    <path
        d="M402.624 125.243L390.796 128.669C389.745 128.973 388.646 128.366 388.344 127.317L385.585 117.785C385.281 116.733 385.888 115.634 386.936 115.332L398.764 111.907C399.815 111.602 400.914 112.209 401.216 113.258L403.975 122.791C404.279 123.842 403.675 124.939 402.624 125.243Z"
        stroke="#9C8FF4" stroke-width="2" stroke-miterlimit="10" stroke-linecap="round" stroke-linejoin="round"/>
    <path d="M408.619 120.127L403.123 119.849L402.121 116.383L406.565 113.025L408.619 120.127Z" stroke="#9C8FF4"
          stroke-width="2" stroke-miterlimit="10" stroke-linecap="round" stroke-linejoin="round"/>
    <path
        d="M533.971 112.403C533.662 113.581 532.34 114.724 531.164 114.416C529.986 114.107 529.399 112.46 529.708 111.282C530.017 110.104 531.223 109.401 532.401 109.709C533.577 110.02 534.282 111.225 533.971 112.403Z"
        stroke="#F781EC" stroke-width="2" stroke-miterlimit="10" stroke-linecap="round" stroke-linejoin="round"/>
    <path
        d="M525.358 118.962C525.73 117.547 526.79 114.413 530.882 115.491C534.974 116.566 534.136 119.757 533.763 121.171"
        stroke="#F781EC" stroke-width="2" stroke-miterlimit="10" stroke-linecap="round" stroke-linejoin="round"/>
    <path
        d="M535.444 120.553C539.296 118.304 540.596 113.357 538.347 109.504C536.099 105.651 531.153 104.35 527.301 106.599C523.448 108.849 522.148 113.795 524.397 117.649C526.646 121.502 531.591 122.802 535.444 120.553Z"
        stroke="#9C8FF4" stroke-width="2" stroke-miterlimit="10" stroke-linecap="round" stroke-linejoin="round"/>
    <path
        d="M489.781 264.736C489.051 266.856 490.122 273.463 489.516 276.102C476.825 272.626 439.891 267.057 427.628 271.268C424.777 272.247 420.926 281.213 422.504 286.212C426.52 298.921 442.164 307.921 481.141 315.606C503.82 320.078 520.129 295.931 518.003 269.88C499.294 263.343 490.041 263.98 489.781 264.736Z"
        fill="#282828"/>
    <path
        d="M512.155 263.605C523.556 265.817 539.78 257.572 542.243 285.183C574.131 287.607 593.455 293.238 593.455 306.215C593.455 315.625 584.354 320.045 568.826 321.722C547.058 311.149 480.773 335.567 496.373 300.856C499.824 293.179 512.155 263.605 512.155 263.605Z"
        fill="#282828"/>
    <path
        d="M499.69 318.024C501.593 315.865 505.385 315.341 511.649 318.593C517.624 321.696 519.836 323.674 534.054 324.064C542.337 324.292 546.607 327.314 545.978 330.866C545.878 331.435 544.262 334.512 536.524 337.035C531.506 338.673 520.348 336.334 509.3 334.569C487.703 331.115 499.69 318.024 499.69 318.024Z"
        fill="#9C8FF4"/>
    <path
        d="M486.899 306.638C491.99 312.317 506.34 319.301 513.714 322.021C515.08 322.524 533.277 325.257 527.775 332.169C524.108 336.774 506.342 330.592 506.342 330.592C499.198 328.952 477.754 322.518 473.642 315.065C469.364 307.315 481.809 300.96 486.899 306.638Z"
        fill="#FF8A66"/>
    <path
        d="M437.055 276.37C459.859 284.696 475.713 295.952 494.072 309.92C487.234 314.547 489.693 324.789 488.848 324.555C481.454 322.514 435.58 308.113 425.366 292.063C415.152 276.015 437.055 276.37 437.055 276.37Z"
        fill="#282828"/>
    <path
        d="M488.099 322.733C485.984 315.121 483.747 316.067 476.506 315.638C469.6 315.228 461.758 314.21 454.506 310.682C450.28 308.626 442.646 305.192 440.572 312.215C440.239 313.341 442.635 320.383 447.007 324.03C449.842 326.395 467.47 329.45 471.764 330.168C479.212 331.419 490.214 330.345 488.099 322.733Z"
        fill="#9C8FF4"/>
    <path
        d="M507.13 316.863C493.238 320.505 487.239 320.807 474.255 317.989C471.72 317.437 458.966 316.87 458.795 319.513C458.386 325.822 468.418 328.301 476.988 329.845C485.56 331.389 503.264 333.082 516.727 330.612C510.82 331.696 509.966 322.513 507.13 316.863Z"
        fill="#FF8A66"/>
    <path
        d="M576.228 295.797C551.815 298.65 514.82 313.588 494.368 317.961C493.516 318.143 493.218 319.256 493.586 320.046C496.082 325.412 496.463 329.945 496.456 332.24C496.454 333.129 497.19 333.838 498.077 333.806C505.838 333.53 561.103 333.083 586.234 317.959C599.916 308.722 576.228 295.797 576.228 295.797Z"
        fill="#282828"/>
    <path d="M564.93 298.008C539.821 301.799 516.416 314.143 494.365 317.963" stroke="#4543AA" stroke-width="2"
          stroke-miterlimit="10" stroke-linecap="round" stroke-linejoin="round"/>
    <path d="M434.163 275.685C453.028 275.05 476.63 301.642 494.249 310.464" stroke="#4543AA" stroke-width="4.8343"
          stroke-miterlimit="10" stroke-linecap="round" stroke-linejoin="round"/>
    <path
        d="M526.938 198.972C519.973 196.375 508.481 193.758 508.481 193.758C508.481 193.758 496.41 205.08 509.746 207.416C523.08 209.753 537.362 202.861 526.938 198.972Z"
        fill="#2E2E2E"/>
    <path
        d="M474.745 215.229C474.745 215.229 490.201 242.509 512.514 242.664C520.484 243.21 527.194 238.035 531.718 231.824C541.568 221.764 543.845 212.511 540.89 206.27C538.433 204.132 529.701 201.296 522.537 199.275C515.365 197.249 508.86 187.624 510.635 184.633C510.346 184.333 493.813 187.925 493.662 188.076C492.62 189.131 498.284 194.345 494.704 199.529C491.125 204.717 480.62 204.57 474.745 215.229Z"
        fill="#FF8A66"/>
    <path
        d="M469.994 238.838C467.496 258.974 471.089 269.131 471.737 275.671C472.183 280.158 481.491 286.057 482.568 279.503C484.998 264.732 483.796 248.809 483.796 248.809L469.994 238.838Z"
        fill="#FF8A66"/>
    <path
        d="M556.798 246.772C557.046 247.826 550.311 253.178 547.438 252.374C544.566 251.571 546.179 240.886 549.282 241.361C552.384 241.836 556.196 244.197 556.798 246.772Z"
        fill="#2E2E2E"/>
    <path
        d="M556.798 246.773C555.631 230.23 550.887 211.966 543.077 206.434C538.026 202.855 531.166 200.063 526.938 198.973C529.346 204.671 505.772 228.587 495.773 220.922C491.055 217.307 490.264 209.443 488.773 203.769C485.636 204.41 480.69 206.331 476.797 209.894C468.417 217.563 466.508 245.997 466.591 247.749C466.668 249.361 472.788 253.734 477.287 256.264C478.971 257.21 482.883 258.48 482.883 258.48C491.223 273.262 483.796 271.948 482.568 279.504C481.445 286.406 488.907 298.004 508.879 293.248C524.795 289.457 532.348 285.454 542.243 285.182C547.968 281.831 536.556 262.619 535.26 253.796C535.219 252.158 545.371 247.583 551.473 246.788C553.626 246.505 555.631 246.254 556.798 246.773Z"
        fill="url(#paint2_radial)"/>
    <path
        d="M528.95 237.143C528.011 247.713 531.304 253.587 532.278 255.621C533.261 257.676 538.345 256.887 542.076 255.58C544.999 254.555 539.977 249.187 535.219 253.055C534.457 253.674 533.209 254.375 533.209 254.375C529.839 247.869 529.36 240.806 528.95 237.143Z"
        fill="#2E2E2E"/>
    <path
        d="M528.335 200.447C528.335 207.273 509.51 226.727 497.52 223.551C491.49 221.955 488.832 211.141 487.862 205.289"
        stroke="white" stroke-width="2" stroke-miterlimit="10" stroke-linecap="round" stroke-linejoin="round"/>
    <path
        d="M498.067 196.63C498.186 196.619 497.98 196.73 497.57 196.914C497.658 197.742 497.643 198.368 497.45 198.647C497.441 198.476 489.362 200.863 486.113 202.286C490.818 206.211 494.527 209.406 497.082 208.514C501.481 206.981 503.451 200.449 505.437 195.883C503.953 197.746 500.369 194.961 498.067 196.63Z"
        fill="#2E2E2E"/>
    <path
        d="M522.536 295.257L437.054 295.172C437.054 295.172 437.542 297.94 438.652 298.844C449.913 308.009 490.175 322.54 494.836 319.715C497.422 318.149 515.818 303.616 518.207 301.531C522.893 297.449 522.536 295.257 522.536 295.257Z"
        fill="white" stroke="#9C8FF4" stroke-width="5.2961" stroke-miterlimit="10" stroke-linecap="round"
        stroke-linejoin="round"/>
    <path
        d="M522.535 295.259C512.129 303.837 502.302 311.646 494.14 317.257L448.413 298.82L470.351 286.834C489.205 288.963 507.084 291.545 522.535 295.259Z"
        fill="white" stroke="#9C8FF4" stroke-width="2" stroke-miterlimit="10" stroke-linecap="round"
        stroke-linejoin="round"/>
    <path d="M505.385 298.854L485.001 313.628L455.568 301.616L470.923 292.219L505.385 298.854Z" fill="white"
          stroke="#9C8FF4" stroke-width="2" stroke-miterlimit="10" stroke-linecap="round" stroke-linejoin="round"/>
    <path d="M500.634 302.295L477.183 297.434" stroke="#9C8FF4" stroke-width="2" stroke-miterlimit="10"
          stroke-linecap="round" stroke-linejoin="round"/>
    <path d="M496.374 305.385L475.177 300.346" stroke="#9C8FF4" stroke-width="2" stroke-miterlimit="10"
          stroke-linecap="round" stroke-linejoin="round"/>
    <path d="M494.072 300.936L498.819 297.59" stroke="#9C8FF4" stroke-width="5.2961" stroke-miterlimit="10"
          stroke-linecap="round" stroke-linejoin="round"/>
    <path
        d="M535.217 253.055C535.661 261.462 538.431 267.073 537.785 269.998C537.071 273.235 550.834 280 551.763 266.197C552.361 257.314 551.472 246.787 551.472 246.787C546.655 246.474 536.073 251.62 535.217 253.055Z"
        fill="#FF8A66"/>
    <path
        d="M537.785 269.998C530.652 275.672 521.207 280.615 513.524 283.983C508.652 286.12 499.861 286.436 498.504 287.312C496.222 288.781 490.267 293.638 486.967 295.701C486.203 296.179 486.503 297.311 487.408 297.526C486.201 298.382 486.72 298.137 486.166 298.426C485.503 298.774 485.836 299.65 486.065 300.044C486.328 300.493 489.737 302.011 496.31 300.121C496.7 300.009 499.601 298.844 500.985 298.388C504.216 297.326 505.464 297.445 507.851 296.672C510.126 295.936 510.126 295.366 512.558 293.785C521.202 288.175 537.177 288.42 547.688 279.452C551.651 276.071 551.522 269.466 551.761 266.198C550.528 261.948 542.337 266.378 537.785 269.998Z"
        fill="#FF8A66"/>
    <path
        d="M542.652 269.053C540.413 269.237 536.951 270.973 537.899 270.892C538.847 270.811 542.153 271.076 542.153 271.076"
        stroke="#DD7652" stroke-width="3" stroke-miterlimit="10" stroke-linecap="round"/>
    <path
        d="M437.056 295.17C442.462 301.149 482.709 318.658 494.14 317.254C494.14 317.254 485.649 272.148 484.605 269.609C483.561 267.071 424.497 257.453 424.882 260.423C425.69 266.64 435.83 293.986 437.056 295.17Z"
        fill="#EBEDFF" stroke="#9C8FF4" stroke-width="2" stroke-miterlimit="10" stroke-linecap="round"
        stroke-linejoin="round"/>
    <path
        d="M459.362 283.298C460.904 284.844 463.058 287.325 460.286 290.187C458.574 291.952 455.137 290.474 453.427 288.05C452.063 286.116 452.321 283.538 453.6 282.483C454.876 281.425 457.69 281.622 459.362 283.298Z"
        fill="white"/>
    <path
        d="M499.566 159.439C498.541 151.332 491.545 149.746 486.004 152.203C485.82 152.284 485.877 152.56 486.08 152.554C488.167 152.477 491.773 152.085 493.42 154.713C496.853 160.19 499.566 159.439 499.566 159.439Z"
        fill="#362E8B"/>
    <path
        d="M509.985 164.963C516.391 162.317 516.641 154.311 513.013 149.484C512.895 149.327 512.643 149.449 512.691 149.642C513.219 151.659 513.957 156.422 511.745 158.603C507.145 163.143 509.985 164.963 509.985 164.963Z"
        fill="#362E8B"/>
    <path
        d="M506.554 167.399C514.246 164.642 514.708 156.149 511.108 151.272C510.988 151.11 510.732 151.226 510.782 151.421C511.308 153.442 512.043 158.197 509.834 160.373C509.985 164.964 506.554 167.399 506.554 167.399Z"
        fill="#362E8B"/>
    <path
        d="M511.903 162.884C508.735 165.821 500.875 165.707 496.325 160.795C491.775 155.885 488.73 150.121 491.898 147.184C495.066 144.247 503.754 144.186 508.306 149.096C512.858 154.006 515.074 159.945 511.903 162.884Z"
        fill="#362E8B"/>
    <path
        d="M504.122 147.864C502.665 147.363 501.236 147.082 499.821 146.811C498.873 146.629 497.906 146.447 497.08 146.502C496.515 146.539 496.018 146.701 495.801 147.045C495.585 147.391 495.694 147.945 496.182 148.423C496.469 148.705 496.852 148.935 497.225 149.154C498.486 149.899 499.771 150.632 501.1 151.184C502.431 151.738 503.824 152.102 504.962 152.036C505.271 152.019 505.593 151.918 505.492 151.646C504.675 151.175 503.791 150.917 502.935 150.564C502.079 150.212 501.148 149.682 500.723 149.029C501.135 149.187 501.549 149.307 501.947 149.384C501.536 149.021 501.093 148.675 500.629 148.35C500.684 148.088 501.24 148.217 501.663 148.372C502.819 148.802 503.973 149.266 505.12 149.767C506.096 150.192 507.185 150.733 507.723 151.475C508.711 151.64 508.61 150.549 508.017 149.929C507.128 149.007 505.297 148.267 504.122 147.864Z"
        fill="#4543AA"/>
    <path
        d="M510.635 184.637C510.701 189.122 511.785 190.258 512.726 191.627C515.914 183.338 520.039 174.34 517.464 167.049C515.03 160.155 496.528 152.386 493.746 152.629C479.961 153.824 474.986 162.731 473.412 170.453C471.838 178.174 481.414 192.913 487.659 197.323C495.642 202.964 510.635 184.637 510.635 184.637Z"
        fill="#362E8B"/>
    <path
        d="M506.565 181.877C507.708 179.346 509.707 179.946 510.784 181.328C512.704 183.789 510.662 190.889 507.377 190.876C503.02 190.86 507.489 189.422 506.565 181.877Z"
        fill="#FF8A66"/>
    <path
        d="M512.12 190.754C512.12 190.754 510.885 188.732 511.006 187.107C510.318 189.155 509 190.883 507.38 190.876C508.783 191.299 511.032 191.698 512.12 190.754Z"
        fill="#DD7652"/>
    <path
        d="M491.508 196.575C484.363 193.886 476.306 185.144 474.975 175.376C473.775 166.566 481.436 155.903 491.306 153.455C480.497 155.24 474.544 161.575 473.412 170.451C472.026 181.327 481.732 193.15 490.879 196.595C492.918 197.364 492.694 198.774 495.221 198.056C493.634 198.246 492.843 197.077 491.508 196.575Z"
        fill="#4543AA"/>
    <path
        d="M504.667 180.158C502.057 177.471 482.435 172.529 480.617 167.343C478.426 161.088 485.207 156.998 492.99 153.227C484.935 155.158 475.858 163.002 479.225 169.789C483.777 178.963 496.137 188.117 502.762 192.359C505.886 190.808 507.699 183.279 504.667 180.158Z"
        fill="#4543AA"/>
    <path
        d="M477.839 192.926C478.691 196.338 487.602 206.891 494.043 205.93C494.608 205.844 498.019 204.394 501.002 201.377C504.29 198.046 507.82 193.329 507.233 189.82C506.771 187.834 506.396 183.627 504.303 182.031C498.827 177.852 491.817 182.031 479.229 169.791C477.298 171.567 476.517 173.304 475.987 174.843C475.779 175.448 475.674 176.041 475.59 176.624C474.723 182.699 478.089 183.183 477.546 188.263C477.467 189.776 477.399 191.187 477.839 192.926Z"
        fill="#FF8A66"/>
    <path
        d="M492.279 178.307C491 178.648 489.395 180.045 489.862 180.705C490.549 181.673 492.294 179.675 494.449 178.937C493.755 178.762 493.032 178.556 492.279 178.307Z"
        fill="#362E8B"/>
    <path
        d="M486.822 189.483C487.753 186.597 486.251 182.252 483.505 181.104C481.879 180.425 480.906 181.192 483.102 182.147C486.691 183.706 486.52 188.452 486.822 189.483Z"
        fill="#DD7652"/>
    <path
        d="M476.81 182.121C476.63 181.666 478.251 180.398 480.112 180.291C481.675 180.08 484.876 181.239 483.685 182.13C483.249 182.465 482.155 181.613 480.322 181.591C477.646 181.537 476.81 182.121 476.81 182.121Z"
        fill="#362E8B"/>
    <path
        d="M484.208 195.171C484.276 195.318 483.934 195.616 483.864 195.758C483.803 195.881 483.768 196.016 483.744 196.152C483.742 196.161 483.729 196.375 483.72 196.375C483.634 196.386 483.459 196.045 483.435 195.979C483.328 195.666 483.363 195.399 483.549 195.138C483.726 194.895 484.07 194.867 484.208 195.171Z"
        fill="#DD7652"/>
    <path
        d="M498.199 191.688C498.173 191.892 498.701 192.124 498.839 192.271C498.959 192.396 499.053 192.547 499.134 192.705C499.141 192.716 499.237 192.972 499.248 192.967C499.357 192.948 499.441 192.468 499.443 192.378C499.454 191.958 499.309 191.645 498.985 191.399C498.681 191.169 498.252 191.264 498.199 191.688Z"
        fill="#DD7652"/>
    <path
        d="M488.973 193.423C490.043 192.534 491.3 193.263 491.105 193.594C490.91 193.925 489.327 193.653 489.008 193.653C488.644 193.655 488.973 193.423 488.973 193.423Z"
        fill="#DD7652"/>
    <path d="M488.712 195.215C488.782 195.261 488.804 195.252 488.712 195.215V195.215Z" fill="#DD7652"/>
    <path
        d="M489.11 196.58C489.651 196.583 490.341 196.326 491.125 196.217C493.108 195.934 495.69 195.174 497.958 193.381C497.958 193.381 494.794 197.43 490.619 197.903C486.971 198.317 485.266 196.534 485.266 196.534C486.866 197.213 487.459 196.572 489.11 196.58Z"
        fill="#DD7652"/>
    <path
        d="M488.123 199.095C491.644 201.605 494.794 197.889 494.794 197.889C494.794 197.889 493.281 201.476 491.418 201.073C489.988 200.764 488.123 199.095 488.123 199.095Z"
        fill="#DD7652"/>
    <path
        d="M491.907 184.7C493.271 184.993 495.37 184.654 497.004 183.147C497.004 183.147 498.149 183.287 498.823 182.818C498.795 182.976 498.438 183.576 497.402 184.248C495.699 185.352 492.918 185.468 491.843 184.925C491.727 184.866 491.782 184.673 491.907 184.7Z"
        fill="#282828"/>
    <path
        d="M483.169 186.358C481.632 186.781 479.803 186.824 478.448 186.154C477.629 186.654 476.668 186.397 476.668 186.397C476.753 186.533 477.101 186.962 477.982 187.179C480.344 187.757 482.155 187.015 483.208 186.457C483.265 186.426 483.23 186.34 483.169 186.358Z"
        fill="#282828"/>
    <path
        d="M495.53 181.863C493.152 182.218 492.537 183.569 492.25 184.329C492.071 183.661 492.539 182.452 493.454 182.028C494.694 181.456 495.53 181.863 495.53 181.863Z"
        fill="#DD7652"/>
    <path
        d="M478.978 185.918C479.356 184.876 480.563 184.002 481.196 183.868C482.277 183.638 479.381 183.428 478.949 185.125C478.956 185.502 478.978 185.918 478.978 185.918Z"
        fill="#DD7652"/>
    <path
        d="M479.628 186.945C479.742 187.758 480.537 188.443 480.88 188.391C481.774 188.257 482.29 187.708 482.236 186.691C481.679 186.72 479.628 186.945 479.628 186.945Z"
        fill="#282828"/>
    <path
        d="M492.64 184.994C492.773 185.795 493.299 186.494 493.813 186.507C494.612 186.527 495.628 186.03 495.67 184.816C494.831 185.029 492.64 184.994 492.64 184.994Z"
        fill="#282828"/>
    <path
        d="M486.551 191.369C486.054 192.405 486.172 193.447 487.263 194.078C487.718 194.341 488.211 194.536 488.611 194.514C488.611 194.514 485.99 194.785 485.706 192.959C485.612 192.341 486.551 191.369 486.551 191.369Z"
        fill="#DD7652"/>
    <path
        d="M482.544 258.391C482.691 258.435 482.807 258.468 482.884 258.481C482.884 258.481 477.657 253.411 477.657 248.81C477.657 245.988 478.467 242.26 478.938 238.986C477.388 242.705 476.164 245.685 476.144 248.874C476.105 254.539 479.367 257.43 482.544 258.391Z"
        fill="#2E2E2E"/>
    <path
        d="M500.075 257.091C491.637 254.187 485.305 261.157 488.537 261.166C499.219 261.194 520.534 264.177 517.022 263.111C511.962 261.573 508.514 259.994 500.075 257.091Z"
        fill="#282828"/>
    <path d="M613.029 313.113L629.363 230.559" stroke="#9C8FF4" stroke-width="2" stroke-miterlimit="10"
          stroke-linecap="round" stroke-linejoin="round"/>
    <path d="M681.44 313.113L665.106 230.559" stroke="#9C8FF4" stroke-width="2" stroke-miterlimit="10"
          stroke-linecap="round" stroke-linejoin="round"/>
    <path d="M619.171 230.559H675.301" stroke="#9C8FF4" stroke-width="2" stroke-miterlimit="10" stroke-linecap="round"
          stroke-linejoin="round"/>
    <path d="M608.361 216.67H686.108" stroke="#9C8FF4" stroke-width="2" stroke-miterlimit="10" stroke-linecap="round"
          stroke-linejoin="round"/>
    <path
        d="M647.236 226.228C648.347 226.228 649.248 225.327 649.248 224.216C649.248 223.104 648.347 222.203 647.236 222.203C646.125 222.203 645.224 223.104 645.224 224.216C645.224 225.327 646.125 226.228 647.236 226.228Z"
        stroke="#9C8FF4" stroke-width="2" stroke-miterlimit="10" stroke-linecap="round" stroke-linejoin="round"/>
    <path d="M621.573 216.67V230.559" stroke="#9C8FF4" stroke-width="2" stroke-miterlimit="10" stroke-linecap="round"
          stroke-linejoin="round"/>
    <path d="M672.704 216.67V230.559" stroke="#9C8FF4" stroke-width="2" stroke-miterlimit="10" stroke-linecap="round"
          stroke-linejoin="round"/>
    <path d="M674.462 277.842H620.009" stroke="#9C8FF4" stroke-width="2" stroke-miterlimit="10" stroke-linecap="round"
          stroke-linejoin="round"/>
    <path
        d="M639.091 208.885H647.267C648.521 208.885 649.54 209.903 649.54 211.158V214.401C649.54 215.656 648.521 216.674 647.267 216.674H639.091"
        stroke="#9C8FF4" stroke-width="2" stroke-miterlimit="10" stroke-linecap="round" stroke-linejoin="round"/>
    <path
        d="M617.754 208.885H640.063C641.318 208.885 642.336 209.903 642.336 211.158V214.401C642.336 215.656 641.318 216.674 640.063 216.674H617.754"
        stroke="#9C8FF4" stroke-width="2" stroke-miterlimit="10" stroke-linecap="round" stroke-linejoin="round"/>
    <path d="M618.836 208.885V216.672" stroke="#9C8FF4" stroke-width="2" stroke-miterlimit="10" stroke-linecap="round"
          stroke-linejoin="round"/>
    <path
        d="M634.968 203.5H644.479C645.219 203.5 645.817 204.1 645.817 204.838V207.545C645.817 208.285 645.217 208.883 644.479 208.883H634.968"
        stroke="#9C8FF4" stroke-width="2" stroke-miterlimit="10" stroke-linecap="round" stroke-linejoin="round"/>
    <path
        d="M612.109 203.5H635.351C636.091 203.5 636.689 204.1 636.689 204.838V207.545C636.689 208.285 636.089 208.883 635.351 208.883H612.109"
        stroke="#9C8FF4" stroke-width="2" stroke-miterlimit="10" stroke-linecap="round" stroke-linejoin="round"/>
    <path d="M613.191 203.5V208.883" stroke="#9C8FF4" stroke-width="2" stroke-miterlimit="10" stroke-linecap="round"
          stroke-linejoin="round"/>
    <path d="M654.77 199.035H672.364L669.962 216.634H657.171L654.77 199.035Z" stroke="#9C8FF4" stroke-width="2"
          stroke-miterlimit="10" stroke-linecap="round" stroke-linejoin="round"/>
    <path
        d="M657.798 199.035C656.013 197.71 654.855 195.586 654.855 193.193C654.855 189.176 658.111 185.922 662.124 185.922C666.14 185.922 669.393 189.178 669.393 193.193C669.393 195.586 668.235 197.71 666.451 199.035"
        stroke="#9C8FF4" stroke-width="2" stroke-miterlimit="10" stroke-linecap="round" stroke-linejoin="round"/>
    <path d="M670.422 201.74H665.281" stroke="#9C8FF4" stroke-width="2" stroke-miterlimit="10" stroke-linecap="round"
          stroke-linejoin="round"/>
    <path d="M669.875 204.242H662.764" stroke="#9C8FF4" stroke-width="2" stroke-miterlimit="10" stroke-linecap="round"
          stroke-linejoin="round"/>
    <path d="M668.817 213.311H658.227" stroke="#9C8FF4" stroke-width="2" stroke-miterlimit="10" stroke-linecap="round"
          stroke-linejoin="round"/>
    <path
        d="M639.907 266.924H652.352V273.051C652.352 275.697 650.207 277.843 647.562 277.843H644.698C642.053 277.843 639.907 275.697 639.907 273.051V268.928V266.924V266.924Z"
        stroke="#9C8FF4" stroke-width="2" stroke-miterlimit="10" stroke-linecap="round" stroke-linejoin="round"/>
    <path
        d="M639.907 273.384C636.61 273.538 635.837 271.288 635.671 269.929C635.605 269.394 636.028 268.928 636.564 268.928H639.907"
        stroke="#9C8FF4" stroke-width="2" stroke-miterlimit="10" stroke-linecap="round" stroke-linejoin="round"/>
    <path d="M646.2 264.352H640.976" stroke="#9C8FF4" stroke-width="2" stroke-miterlimit="10" stroke-linecap="round"
          stroke-linejoin="round"/>
    <path d="M649.101 261.777H643.877" stroke="#9C8FF4" stroke-width="2" stroke-miterlimit="10" stroke-linecap="round"
          stroke-linejoin="round"/>
    <path d="M646.2 257.836H639.176" stroke="#9C8FF4" stroke-width="2" stroke-miterlimit="10" stroke-linecap="round"
          stroke-linejoin="round"/>
    <path d="M643.588 252.279H641.604" stroke="#9C8FF4" stroke-width="2" stroke-miterlimit="10" stroke-linecap="round"
          stroke-linejoin="round"/>
    <defs>
        <linearGradient id="paint0_linear" x1="376.624" y1="336.24" x2="663.383" y2="49.2455"
                        gradientUnits="userSpaceOnUse">
            <stop stop-color="#DEEBFF"/>
            <stop offset="0.7925" stop-color="#FBEFFF"/>
        </linearGradient>
        <linearGradient id="paint1_linear" x1="376.624" y1="336.24" x2="663.383" y2="49.2455"
                        gradientUnits="userSpaceOnUse">
            <stop stop-color="#DEEBFF"/>
            <stop offset="0.7925" stop-color="#FBEFFF"/>
        </linearGradient>
        <radialGradient id="paint2_radial" cx="0" cy="0" r="1" gradientUnits="userSpaceOnUse"
                        gradientTransform="translate(491.877 280.68) scale(56.0152 56.0269)">
            <stop stop-color="#F8FF13"/>
            <stop offset="1" stop-color="#FFB800"/>
        </radialGradient>
    </defs>
</svg>
