<svg viewBox="0 0 251 39" xmlns="http://www.w3.org/2000/svg">
    <path fill-rule="evenodd" clip-rule="evenodd"
          d="M59.7466 23.7548H62.1325V-0.000441261H59.7466V23.7548ZM33.4521 26.7965C33.4521 32.9888 28.4022 38.0079 22.1805 38.0079C17.9063 38.0079 14.9894 35.0668 12.2747 32.1508L0 19.0038L12.2747 5.85667C14.9894 2.94068 17.9063 -0.000441261 22.1805 -0.000441261C28.4106 -0.000441261 33.4521 5.01874 33.4521 11.2026V11.211C33.4521 14.8393 30.4845 17.7804 26.8341 17.7804C23.2006 17.7804 20.2415 14.8644 20.2162 11.2529V11.2026C20.2162 10.1217 21.093 9.25028 22.1805 9.25028C23.2681 9.25028 24.1448 10.1217 24.1448 11.2026C24.1448 12.4763 25.1902 13.5153 26.4716 13.5153C27.7531 13.5153 28.7984 12.4763 28.7984 11.2026C28.7984 7.56604 25.8309 4.62492 22.1805 4.62492C18.5217 4.62492 15.5626 7.57442 15.5626 11.2026C15.5626 12.912 16.2202 14.4622 17.2909 15.6353C17.7208 16.1632 18.3447 16.8084 19.2299 17.6463C17.8894 16.5235 16.0769 15.8364 14.0873 15.8364C13.9355 15.8364 13.7922 15.8448 13.6405 15.8448C13.5056 15.8364 13.3791 15.8364 13.2442 15.8364C10.8416 15.8364 8.74238 17.1017 7.57898 19.0038C8.74238 20.9058 10.8416 22.1711 13.2442 22.1711C13.3791 22.1711 13.514 22.1627 13.6405 22.1627C13.7838 22.1711 13.9355 22.1711 14.0873 22.1711C16.0769 22.1711 17.8894 21.484 19.2299 20.3612C18.3531 21.1907 17.7292 21.8443 17.2909 22.3722C16.2202 23.5453 15.5626 25.0955 15.5626 26.8049C15.5626 30.4415 18.5301 33.3826 22.1805 33.3826C25.8393 33.3826 28.7984 30.4331 28.7984 26.8049C28.7984 25.5312 27.7531 24.4922 26.4716 24.4922C25.1902 24.4922 24.1448 25.5312 24.1448 26.8049C24.1448 27.8858 23.2681 28.7572 22.1805 28.7572C21.093 28.7572 20.2162 27.8858 20.2162 26.8049V26.7546C20.2415 23.1431 23.2006 20.2271 26.8341 20.2271C30.493 20.2187 33.4521 23.1599 33.4521 26.7965ZM96.1662 37.9996L91.7065 28.4975H91.0658L90.8635 28.9332L86.6145 37.9996H87.6683L89.228 34.673H93.5612L95.1208 37.9996H96.1662ZM243.354 37.9996H244.306V30.5923L250.039 37.3879L250.562 37.9996H251V37.0359V28.5058H250.047V35.9131L244.315 29.1175L243.792 28.5058H243.354V29.4695V37.9996ZM197.273 37.9996H200.62C203.25 37.9996 205.4 35.8628 205.4 33.2485C205.4 30.6342 203.25 28.4975 200.62 28.4975H197.273V37.9996ZM198.225 37.0527V29.4527H200.611C202.71 29.4527 204.439 31.1621 204.439 33.2569C204.439 35.3433 202.719 37.0611 200.611 37.0611H198.225V37.0527ZM221.645 37.9996H222.598V33.9189L226.703 37.9996H228.052L223.272 33.2485L228.052 28.4975H226.703L222.598 32.5782V28.4975H221.645V31.6229V32.9636V33.5167V34.8573V37.9996ZM213.527 37.9996C215.364 37.9996 216.873 36.4997 216.873 34.673V28.4975H215.921V34.673C215.921 35.9802 214.842 37.0443 213.535 37.0443C212.22 37.0443 211.149 35.9718 211.149 34.673V28.4975H210.197V34.673C210.18 36.5081 211.68 37.9996 213.527 37.9996ZM232.841 37.9996H233.793H238.573V37.0527H233.793V33.7261H238.573V32.7793H233.793V29.4527H238.573V28.5058H233.793H232.841V29.4527V32.7793V33.7261V37.0527V37.9996ZM182.132 37.9996H183.084H187.864V37.0527H183.084V33.7261H187.864V32.7793H183.084V29.4527H187.864V28.5058H183.084H182.132V29.4527V32.7793V33.7261V37.0527V37.9996ZM169.705 37.9996H170.658V30.5923L176.39 37.3879L176.913 37.9996H177.352V37.0359V28.5058H176.399V35.9131L170.666 29.1175L170.143 28.5058H169.705V29.4695V37.9996ZM163.972 37.9996H164.925V28.5058H163.972V37.9996ZM153.46 37.9996H154.412H159.192V37.0527H154.412V28.5058H153.46V37.0527V37.9996ZM141.033 37.9996H141.986V30.5923L147.718 37.3879L148.241 37.9996H148.68V37.0359V28.5058H147.727V35.9131L141.994 29.1175L141.471 28.5058H141.033V29.4695V37.9996ZM131.473 28.5058C134.112 28.5058 136.253 30.6342 136.253 33.2569C136.253 35.8796 134.112 38.0079 131.473 38.0079C128.834 38.0079 126.693 35.8796 126.693 33.2569C126.693 30.6258 128.834 28.5058 131.473 28.5058ZM131.473 29.4527C129.357 29.4527 127.646 31.1537 127.646 33.2569C127.646 35.3517 129.357 37.0611 131.473 37.0611C133.581 37.0611 135.3 35.3601 135.3 33.2569C135.292 31.1537 133.581 29.4527 131.473 29.4527ZM113.297 37.9996H114.25V33.7261L117.285 28.4975H116.18L113.769 32.6452L111.358 28.4975H110.254L113.288 33.7261V37.9996H113.297ZM100.946 37.9996H101.899H106.679V37.0527H101.899V28.5058H100.946V37.0527V37.9996ZM74.8962 37.9996H78.2431C80.8734 37.9996 83.0231 35.8628 83.0231 33.2485C83.0231 30.6342 80.8734 28.4975 78.2431 28.4975H74.8962V37.9996ZM75.8488 37.0527V29.4527H78.2346C80.3338 29.4527 82.0621 31.1621 82.0621 33.2569C82.0621 35.3433 80.3423 37.0611 78.2346 37.0611H75.8488V37.0527ZM66.1201 37.9996H67.0727V33.7261L70.1077 28.4975H69.0033L66.6006 32.6536L64.1895 28.5058H63.0851L66.1201 33.7345V37.9996ZM59.5022 37.9996L55.0509 28.5058H54.4102L54.2078 28.9416L49.9589 38.0079H51.0127L52.5723 34.6814H56.9056L58.4652 38.0079H59.5022V37.9996ZM53.0023 33.7261L54.7221 30.0644L56.4419 33.7261H53.0023ZM40.6264 28.5058H41.579H43.7288C45.1704 28.5058 46.3591 29.6789 46.3591 31.1202C46.3591 32.5614 45.1788 33.7345 43.7288 33.7345H41.579V38.0079H40.6264V33.7345V32.7877V29.4611V28.5058ZM41.579 29.4527V32.7793H43.7288C44.6477 32.7793 45.398 32.0251 45.398 31.1202C45.398 30.2068 44.6393 29.4611 43.7288 29.4611H41.579V29.4527ZM89.6663 33.7261L91.3861 30.0644L93.106 33.7261H89.6663ZM40.6264 23.7548H43.0122H48.3908C52.0075 23.7548 54.9666 20.8137 54.9666 17.219C54.9666 14.4287 53.1793 12.0322 50.6923 11.1021C51.8557 9.92062 52.5808 8.30342 52.5808 6.53539C52.5808 2.94068 49.6217 -0.000441261 46.005 -0.000441261H43.0206H40.6348V2.37089V10.6831V13.0545V21.3667V23.7548H40.6264ZM46.005 10.6915H43.0206V2.37089H46.005C48.2981 2.37089 50.1865 4.24785 50.1865 6.52701C50.1865 8.81455 48.2981 10.6915 46.005 10.6915ZM43.0122 21.3751V13.0628H45.9966H48.3824C50.6755 13.0628 52.5639 14.9398 52.5639 17.219C52.5639 19.4981 50.6755 21.3751 48.3824 21.3751H43.0122ZM236.66 2.37089H246.97L238.059 21.3751L236.946 23.7464H239.585H251.008V21.3751H240.69L249.601 2.37089L250.722 -0.000441261H248.083H236.66V2.37089ZM215.853 23.7548H218.239V13.5572L228.499 23.7548H231.88L219.934 11.8814L231.88 -0.000441261H228.499L218.239 10.1971V-0.000441261H215.853V7.81742V11.1775V12.5685V15.9286V23.7548ZM209.286 20.1852C210.272 20.1852 211.082 20.9813 211.082 21.97C211.082 22.9504 210.281 23.7548 209.286 23.7548C208.3 23.7548 207.49 22.9588 207.49 21.97C207.49 20.9896 208.291 20.1852 209.286 20.1852ZM156.115 23.7548H164.478C171.054 23.7548 176.424 18.4088 176.424 11.8814C176.424 5.34554 171.054 -0.000441261 164.478 -0.000441261H156.115V23.7548ZM158.501 21.3751V2.37089H164.478C169.73 2.37089 174.038 6.6527 174.038 11.873C174.038 17.0933 169.73 21.3751 164.478 21.3751H158.501ZM141.353 23.7548H143.739V13.0628L151.327 -0.000441261H148.57L142.542 10.3731L136.523 -0.000441261H133.766L141.353 13.0628V23.7548ZM202.71 23.7548L191.565 -0.000441261H189.955L189.441 1.08886L178.81 23.7464H181.449L185.352 15.4342H196.177L200.08 23.7464H202.71V23.7548ZM186.465 13.0628L190.764 3.9043L195.064 13.0628H186.465ZM133.766 23.7548H131.127L127.224 15.4426H116.399L112.496 23.7548H109.857L120.497 1.08886L121.011 -0.000441261H122.621L133.766 23.7548ZM117.521 13.0628H126.12L121.82 3.9043L117.521 13.0628ZM95.5339 -0.000441261V2.37089V10.6831V13.0545V23.7464H97.9198V13.0628H103.298C106.915 13.0628 109.874 10.1217 109.874 6.52701C109.874 2.9323 106.915 -0.00882053 103.298 -0.00882053H97.9198H95.5339V-0.000441261ZM97.9198 2.37089H103.298C105.591 2.37089 107.48 4.24785 107.48 6.52701C107.48 8.80618 105.591 10.6831 103.298 10.6831H97.9198V2.37089ZM78.8585 -0.000441261C83.0737 -0.000441261 86.7831 2.16979 88.9076 5.44609L87.1709 7.17222C85.527 4.30651 82.4246 2.37089 78.8585 2.37089C73.581 2.37089 69.2983 6.62756 69.2983 11.873C69.2983 17.1184 73.581 21.3751 78.8585 21.3751C82.8714 21.3751 86.3026 18.92 87.7189 15.4342H78.8585V13.0628H88.3428H90.7454V13.1047C90.737 13.1802 90.7286 13.2472 90.7201 13.3226L90.7117 13.3813C90.7033 13.4567 90.6948 13.5321 90.678 13.5991V13.6243V13.641V13.6494C90.6696 13.7248 90.6527 13.8002 90.6443 13.8756L90.6358 13.9343C90.619 14.0097 90.6105 14.0851 90.5937 14.1522L90.5853 14.194C90.5684 14.2695 90.5515 14.3533 90.5347 14.4287L90.5262 14.4538V14.4706C90.5094 14.5544 90.4841 14.6381 90.4672 14.7219V14.7303V14.7387C90.4504 14.8225 90.4251 14.9063 90.3998 14.9901V14.9985C90.3745 15.0906 90.3492 15.1744 90.3239 15.2666V15.2834L90.2649 15.4593C88.739 20.2774 84.2118 23.7716 78.8669 23.7716C72.2659 23.7716 66.921 18.4507 66.921 11.8981C66.921 5.34554 72.2659 -0.000441261 78.8585 -0.000441261ZM90.3998 14.9817L90.3239 15.2498C90.3492 15.1577 90.3745 15.0655 90.3998 14.9817Z"
          />
</svg>
