<svg width="256" height="256" viewBox="0 0 256 256" fill="none" xmlns="http://www.w3.org/2000/svg">
<path fill-rule="evenodd" clip-rule="evenodd" d="M60.9348 132.753H63.368V109.008H60.9348V132.753ZM34.1173 135.793C34.1173 141.983 28.967 147 22.6216 147C18.2624 147 15.2874 144.06 12.5188 141.145L0 128.004L12.5188 114.863C15.2874 111.948 18.2624 109.008 22.6216 109.008C28.9756 109.008 34.1173 114.025 34.1173 120.207V120.215C34.1173 123.842 31.0908 126.781 27.3678 126.781C23.662 126.781 20.6441 123.867 20.6183 120.257V120.207C20.6183 119.126 21.5125 118.255 22.6216 118.255C23.7308 118.255 24.625 119.126 24.625 120.207C24.625 121.48 25.6911 122.518 26.9981 122.518C28.305 122.518 29.3711 121.48 29.3711 120.207C29.3711 116.572 26.3446 113.632 22.6216 113.632C18.89 113.632 15.8721 116.58 15.8721 120.207C15.8721 121.915 16.5428 123.465 17.6347 124.637C18.0732 125.165 18.7095 125.81 19.6123 126.647C18.2452 125.525 16.3966 124.838 14.3674 124.838C14.2127 124.838 14.0665 124.847 13.9117 124.847C13.7742 124.838 13.6452 124.838 13.5076 124.838C11.0572 124.838 8.91624 126.103 7.7297 128.004C8.91624 129.905 11.0572 131.17 13.5076 131.17C13.6452 131.17 13.7828 131.162 13.9117 131.162C14.0579 131.17 14.2127 131.17 14.3674 131.17C16.3966 131.17 18.2452 130.483 19.6123 129.361C18.7181 130.19 18.0818 130.844 17.6347 131.371C16.5428 132.544 15.8721 134.093 15.8721 135.802C15.8721 139.437 18.8986 142.377 22.6216 142.377C26.3532 142.377 29.3711 139.428 29.3711 135.802C29.3711 134.529 28.305 133.49 26.9981 133.49C25.6911 133.49 24.625 134.529 24.625 135.802C24.625 136.882 23.7308 137.753 22.6216 137.753C21.5125 137.753 20.6183 136.882 20.6183 135.802V135.752C20.6441 132.142 23.662 129.227 27.3678 129.227C31.0993 129.219 34.1173 132.158 34.1173 135.793ZM98.0786 146.992L93.5302 137.494H92.8767L92.6704 137.929L88.3369 146.992H89.4117L91.0023 143.667H95.4218L97.0124 146.992H98.0786ZM248.193 146.992H249.165V139.588L255.011 146.38L255.544 146.992H255.991V146.028V137.502H255.02V144.906L249.173 138.114L248.64 137.502H248.193V138.465V146.992ZM201.196 146.992H204.609C207.292 146.992 209.484 144.856 209.484 142.243C209.484 139.629 207.292 137.494 204.609 137.494H201.196V146.992ZM202.167 146.045V138.449H204.601C206.741 138.449 208.504 140.157 208.504 142.251C208.504 144.337 206.75 146.054 204.601 146.054H202.167V146.045ZM226.053 146.992H227.024V142.913L231.212 146.992H232.587L227.712 142.243L232.587 137.494H231.212L227.024 141.573V137.494H226.053V140.618V141.958V142.511V143.851V146.992ZM217.773 146.992C219.647 146.992 221.186 145.492 221.186 143.667V137.494H220.215V143.667C220.215 144.973 219.114 146.037 217.781 146.037C216.44 146.037 215.348 144.965 215.348 143.667V137.494H214.377V143.667C214.359 145.501 215.89 146.992 217.773 146.992ZM237.471 146.992H238.443H243.318V146.045H238.443V142.72H243.318V141.774H238.443V138.449H243.318V137.502H238.443H237.471V138.449V141.774V142.72V146.045V146.992ZM185.753 146.992H186.725H191.6V146.045H186.725V142.72H191.6V141.774H186.725V138.449H191.6V137.502H186.725H185.753V138.449V141.774V142.72V146.045V146.992ZM173.08 146.992H174.051V139.588L179.898 146.38L180.431 146.992H180.878V146.028V137.502H179.907V144.906L174.06 138.114L173.527 137.502H173.08V138.465V146.992ZM167.233 146.992H168.205V137.502H167.233V146.992ZM156.511 146.992H157.483H162.358V146.045H157.483V137.502H156.511V146.045V146.992ZM143.838 146.992H144.809V139.588L150.656 146.38L151.189 146.992H151.636V146.028V137.502H150.665V144.906L144.818 138.114L144.285 137.502H143.838V138.465V146.992ZM134.087 137.502C136.779 137.502 138.963 139.629 138.963 142.251C138.963 144.873 136.779 147 134.087 147C131.396 147 129.212 144.873 129.212 142.251C129.212 139.621 131.396 137.502 134.087 137.502ZM134.087 138.449C131.929 138.449 130.184 140.149 130.184 142.251C130.184 144.345 131.929 146.054 134.087 146.054C136.237 146.054 137.991 144.353 137.991 142.251C137.982 140.149 136.237 138.449 134.087 138.449ZM115.55 146.992H116.522V142.72L119.617 137.494H118.49L116.031 141.64L113.572 137.494H112.446L115.541 142.72V146.992H115.55ZM102.954 146.992H103.925H108.8V146.045H103.925V137.502H102.954V146.045V146.992ZM76.3856 146.992H79.799C82.4816 146.992 84.6741 144.856 84.6741 142.243C84.6741 139.629 82.4816 137.494 79.799 137.494H76.3856V146.992ZM77.3572 146.045V138.449H79.7904C81.9314 138.449 83.694 140.157 83.694 142.251C83.694 144.337 81.9399 146.054 79.7904 146.054H77.3572V146.045ZM67.4349 146.992H68.4065V142.72L71.5019 137.494H70.3755L67.925 141.648L65.466 137.502H64.3396L67.4349 142.728V146.992ZM60.6854 146.992L56.1456 137.502H55.4922L55.2858 137.938L50.9524 147H52.0271L53.6178 143.675H58.0372L59.6279 147H60.6854V146.992ZM54.0563 142.72L55.8103 139.06L57.5643 142.72H54.0563ZM41.4343 137.502H42.4059H44.5984C46.0686 137.502 47.281 138.675 47.281 140.115C47.281 141.556 46.0772 142.728 44.5984 142.728H42.4059V147H41.4343V142.728V141.782V138.457V137.502ZM42.4059 138.449V141.774H44.5984C45.5356 141.774 46.3008 141.02 46.3008 140.115C46.3008 139.202 45.527 138.457 44.5984 138.457H42.4059V138.449ZM91.4495 142.72L93.2035 139.06L94.9575 142.72H91.4495ZM41.4343 132.753H43.8675H49.3531C53.0417 132.753 56.0596 129.813 56.0596 126.22C56.0596 123.431 54.2369 121.036 51.7004 120.106C52.887 118.925 53.6264 117.309 53.6264 115.541C53.6264 111.948 50.6085 109.008 46.9199 109.008H43.8761H41.4429V111.379V119.687V122.058V130.366V132.753H41.4343ZM46.9199 119.696H43.8761V111.379H46.9199C49.2585 111.379 51.1845 113.255 51.1845 115.533C51.1845 117.819 49.2585 119.696 46.9199 119.696ZM43.8675 130.374V122.066H46.9113H49.3445C51.6832 122.066 53.6092 123.942 53.6092 126.22C53.6092 128.498 51.6832 130.374 49.3445 130.374H43.8675ZM241.366 111.379H251.882L242.793 130.374L241.658 132.745H244.35H256V130.374H245.476L254.564 111.379L255.708 109.008H253.016H241.366V111.379ZM220.146 132.753H222.579V122.56L233.043 132.753H236.491L224.307 120.885L236.491 109.008H233.043L222.579 119.201V109.008H220.146V116.823V120.181V121.572V124.93V132.753ZM213.448 129.185C214.454 129.185 215.279 129.981 215.279 130.969C215.279 131.949 214.463 132.753 213.448 132.753C212.442 132.753 211.617 131.957 211.617 130.969C211.617 129.989 212.433 129.185 213.448 129.185ZM159.22 132.753H167.749C174.456 132.753 179.933 127.41 179.933 120.885C179.933 114.352 174.456 109.008 167.749 109.008H159.22V132.753ZM161.653 130.374V111.379H167.749C173.106 111.379 177.499 115.659 177.499 120.877C177.499 126.095 173.106 130.374 167.749 130.374H161.653ZM144.164 132.753H146.598V122.066L154.336 109.008H151.524L145.377 119.377L139.238 109.008H136.426L144.164 122.066V132.753ZM206.741 132.753L195.375 109.008H193.733L193.208 110.097L182.366 132.745H185.057L189.038 124.436H200.078L204.059 132.745H206.741V132.753ZM190.173 122.066L194.558 112.911L198.943 122.066H190.173ZM136.426 132.753H133.735L129.754 124.445H118.714L114.733 132.753H112.042L122.893 110.097L123.417 109.008H125.059L136.426 132.753ZM119.858 122.066H128.628L124.243 112.911L119.858 122.066ZM97.4337 109.008V111.379V119.687V122.058V132.745H99.867V122.066H105.353C109.041 122.066 112.059 119.126 112.059 115.533C112.059 111.94 109.041 109 105.353 109H99.867H97.4337V109.008ZM99.867 111.379H105.353C107.691 111.379 109.617 113.255 109.617 115.533C109.617 117.811 107.691 119.687 105.353 119.687H99.867V111.379ZM80.4267 109.008C84.7257 109.008 88.5089 111.178 90.6756 114.453L88.9044 116.178C87.2278 113.313 84.0637 111.379 80.4267 111.379C75.0443 111.379 70.6764 115.633 70.6764 120.877C70.6764 126.12 75.0443 130.374 80.4267 130.374C84.5194 130.374 88.0188 127.92 89.4633 124.436H80.4267V122.066H90.0996H92.55V122.108C92.5414 122.183 92.5328 122.25 92.5242 122.326L92.5156 122.384C92.507 122.46 92.4984 122.535 92.4812 122.602V122.627V122.644V122.652C92.4726 122.728 92.4554 122.803 92.4468 122.878L92.4382 122.937C92.421 123.012 92.4124 123.088 92.3952 123.155L92.3866 123.197C92.3694 123.272 92.3523 123.356 92.3351 123.431L92.3265 123.456V123.473C92.3093 123.557 92.2835 123.641 92.2663 123.724V123.733V123.741C92.2491 123.825 92.2233 123.909 92.1975 123.992V124.001C92.1717 124.093 92.1459 124.177 92.1201 124.269V124.285L92.0599 124.461C90.5037 129.277 85.8865 132.77 80.4353 132.77C73.703 132.77 68.2518 127.451 68.2518 120.902C68.2518 114.352 73.703 109.008 80.4267 109.008ZM92.1975 123.984L92.1201 124.252C92.1459 124.16 92.1717 124.068 92.1975 123.984Z" fill="#212121"/>
</svg>
