<svg width="200" height="36" viewBox="0 0 200 36" fill="none" xmlns="http://www.w3.org/2000/svg">
<g clip-path="url(#clip0)">
<path fill-rule="evenodd" clip-rule="evenodd" d="M47.6069 21.8063H49.5079V3.00004H47.6069V21.8063ZM26.655 24.2143C26.655 29.1165 22.6312 33.09 17.6737 33.09C14.268 33.09 11.9437 30.7616 9.78067 28.4531L0 18.045L9.78067 7.63692C11.9437 5.32843 14.268 3.00004 17.6737 3.00004C22.638 3.00004 26.655 6.97356 26.655 11.8692V11.8758C26.655 14.7481 24.2905 17.0765 21.3818 17.0765C18.4865 17.0765 16.1287 14.768 16.1086 11.909V11.8692C16.1086 11.0134 16.8072 10.3235 17.6737 10.3235C18.5403 10.3235 19.2389 11.0134 19.2389 11.8692C19.2389 12.8775 20.0719 13.7 21.0929 13.7C22.114 13.7 22.947 12.8775 22.947 11.8692C22.947 8.99018 20.5824 6.66178 17.6737 6.66178C14.7583 6.66178 12.4005 8.99681 12.4005 11.8692C12.4005 13.2224 12.9245 14.4496 13.7776 15.3783C14.1202 15.7962 14.6173 16.307 15.3226 16.9704C14.2545 16.0815 12.8103 15.5375 11.2249 15.5375C11.104 15.5375 10.9898 15.5442 10.8689 15.5442C10.7614 15.5375 10.6607 15.5375 10.5532 15.5375C8.6387 15.5375 6.96604 16.5392 6.03903 18.045C6.96604 19.5509 8.6387 20.5525 10.5532 20.5525C10.6607 20.5525 10.7681 20.5459 10.8689 20.5459C10.9831 20.5525 11.104 20.5525 11.2249 20.5525C12.8103 20.5525 14.2545 20.0086 15.3226 19.1197C14.624 19.7764 14.1269 20.2938 13.7776 20.7117C12.9245 21.6404 12.4005 22.8676 12.4005 24.2209C12.4005 27.0999 14.7651 29.4283 17.6737 29.4283C20.5891 29.4283 22.947 27.0932 22.947 24.2209C22.947 23.2126 22.114 22.39 21.0929 22.39C20.0719 22.39 19.2389 23.2126 19.2389 24.2209C19.2389 25.0766 18.5403 25.7665 17.6737 25.7665C16.8072 25.7665 16.1086 25.0766 16.1086 24.2209V24.1811C16.1287 21.322 18.4865 19.0135 21.3818 19.0135C24.2972 19.0069 26.655 21.3353 26.655 24.2143ZM76.6265 33.0834L73.0729 25.5609H72.5624L72.4012 25.9058L69.0155 33.0834H69.8552L71.098 30.4498H74.5508L75.7935 33.0834H76.6265ZM193.907 33.0834H194.666V27.2193L199.234 32.5991L199.651 33.0834H200V32.3205V25.5675H199.241V31.4316L194.673 26.0518L194.257 25.5675H193.907V26.3304V33.0834ZM157.189 33.0834H159.856C161.952 33.0834 163.665 31.3918 163.665 29.3221C163.665 27.2525 161.952 25.5609 159.856 25.5609H157.189V33.0834ZM157.948 32.3338V26.3171H159.85C161.522 26.3171 162.899 27.6704 162.899 29.3288C162.899 30.9805 161.529 32.3404 159.85 32.3404H157.948V32.3338ZM176.61 33.0834H177.369V29.8528L180.64 33.0834H181.715L177.906 29.3221L181.715 25.5609H180.64L177.369 28.7914V25.5609H176.61V28.0352V29.0966V29.5344V30.5958V33.0834ZM170.141 33.0834C171.605 33.0834 172.808 31.896 172.808 30.4498V25.5609H172.048V30.4498C172.048 31.4847 171.189 32.3271 170.147 32.3271C169.1 32.3271 168.246 31.4781 168.246 30.4498V25.5609H167.487V30.4498C167.474 31.9026 168.67 33.0834 170.141 33.0834ZM185.531 33.0834H186.29H190.098V32.3338H186.29V29.7002H190.098V28.9507H186.29V26.3171H190.098V25.5675H186.29H185.531V26.3171V28.9507V29.7002V32.3338V33.0834ZM145.125 33.0834H145.884H149.693V32.3338H145.884V29.7002H149.693V28.9507H145.884V26.3171H149.693V25.5675H145.884H145.125V26.3171V28.9507V29.7002V32.3338V33.0834ZM135.223 33.0834H135.982V27.2193L140.55 32.5991L140.967 33.0834H141.316V32.3205V25.5675H140.557V31.4316L135.989 26.0518L135.572 25.5675H135.223V26.3304V33.0834ZM130.655 33.0834H131.414V25.5675H130.655V33.0834ZM122.279 33.0834H123.038H126.846V32.3338H123.038V25.5675H122.279V32.3338V33.0834ZM112.377 33.0834H113.136V27.2193L117.704 32.5991L118.12 33.0834H118.47V32.3205V25.5675H117.711V31.4316L113.143 26.0518L112.726 25.5675H112.377V26.3304V33.0834ZM104.759 25.5675C106.862 25.5675 108.568 27.2525 108.568 29.3288C108.568 31.4051 106.862 33.09 104.759 33.09C102.657 33.09 100.951 31.4051 100.951 29.3288C100.951 27.2458 102.657 25.5675 104.759 25.5675ZM104.759 26.3171C103.073 26.3171 101.71 27.6637 101.71 29.3288C101.71 30.9872 103.073 32.3404 104.759 32.3404C106.439 32.3404 107.809 30.9938 107.809 29.3288C107.802 27.6637 106.439 26.3171 104.759 26.3171ZM90.2764 33.0834H91.0355V29.7002L93.4538 25.5609H92.5738L90.6526 28.8445L88.7314 25.5609H87.8514L90.2697 29.7002V33.0834H90.2764ZM80.4353 33.0834H81.1944H85.0032V32.3338H81.1944V25.5675H80.4353V32.3338V33.0834ZM59.6782 33.0834H62.3451C64.4409 33.0834 66.1539 31.3918 66.1539 29.3221C66.1539 27.2525 64.4409 25.5609 62.3451 25.5609H59.6782V33.0834ZM60.4373 32.3338V26.3171H62.3384C64.011 26.3171 65.3881 27.6704 65.3881 29.3288C65.3881 30.9805 64.0177 32.3404 62.3384 32.3404H60.4373V32.3338ZM52.6853 33.0834H53.4444V29.7002L55.8627 25.5609H54.9827L53.0682 28.8511L51.147 25.5675H50.267L52.6853 29.7069V33.0834ZM47.4121 33.0834L43.8652 25.5675H43.3547L43.1935 25.9125L39.8079 33.09H40.6476L41.8903 30.4565H45.3431L46.5858 33.09H47.4121V33.0834ZM42.2329 29.7002L43.6033 26.8014L44.9736 29.7002H42.2329ZM32.3716 25.5675H33.1307H34.8436C35.9923 25.5675 36.9395 26.4962 36.9395 27.6372C36.9395 28.7782 35.9991 29.7069 34.8436 29.7069H33.1307V33.09H32.3716V29.7069V28.9573V26.3237V25.5675ZM33.1307 26.3171V28.9507H34.8436C35.5759 28.9507 36.1737 28.3536 36.1737 27.6372C36.1737 26.9141 35.5691 26.3237 34.8436 26.3237H33.1307V26.3171ZM71.4473 29.7002L72.8176 26.8014L74.188 29.7002H71.4473ZM32.3716 21.8063H34.2727H38.5584C41.4402 21.8063 43.7981 19.4779 43.7981 16.6321C43.7981 14.4231 42.374 12.5259 40.3923 11.7896C41.3193 10.8542 41.897 9.57393 41.897 8.17424C41.897 5.32843 39.5392 3.00004 36.6574 3.00004H34.2794H32.3783V4.87735V11.4579V13.3352V19.9157V21.8063H32.3716ZM36.6574 11.4645H34.2794V4.87735H36.6574C38.4845 4.87735 39.9893 6.36327 39.9893 8.16761C39.9893 9.97858 38.4845 11.4645 36.6574 11.4645ZM34.2727 19.9223V13.3418H36.6507H38.5517C40.3789 13.3418 41.8836 14.8277 41.8836 16.6321C41.8836 18.4364 40.3789 19.9223 38.5517 19.9223H34.2727ZM188.574 4.87735H196.789L189.689 19.9223L188.802 21.7996H190.904H200.007V19.9223H191.784L198.885 4.87735L199.778 3.00004H197.676H188.574V4.87735ZM171.995 21.8063H173.896V13.7332L182.071 21.8063H184.765L175.246 12.4065L184.765 3.00004H182.071L173.896 11.0731V3.00004H171.995V9.18918V11.8493V12.9504V15.6105V21.8063ZM166.762 18.9804C167.548 18.9804 168.193 19.6106 168.193 20.3933C168.193 21.1694 167.554 21.8063 166.762 21.8063C165.976 21.8063 165.331 21.1761 165.331 20.3933C165.331 19.6172 165.969 18.9804 166.762 18.9804ZM124.395 21.8063H131.058C136.298 21.8063 140.577 17.574 140.577 12.4065C140.577 7.23227 136.298 3.00004 131.058 3.00004H124.395V21.8063ZM126.296 19.9223V4.87735H131.058C135.243 4.87735 138.676 8.26711 138.676 12.3998C138.676 16.5326 135.243 19.9223 131.058 19.9223H126.296ZM112.632 21.8063H114.533V13.3418L120.579 3.00004H118.382L113.579 11.2124L108.783 3.00004H106.586L112.632 13.3418V21.8063ZM161.522 21.8063L152.642 3.00004H151.359L150.949 3.86241L142.478 21.7996H144.581L147.691 15.2191H156.316L159.426 21.7996H161.522V21.8063ZM148.578 13.3418L152.003 6.0913L155.429 13.3418H148.578ZM106.586 21.8063H104.484L101.374 15.2258H92.7485L89.6383 21.8063H87.5357L96.0132 3.86241L96.4229 3.00004H97.706L106.586 21.8063ZM93.6419 13.3418H100.494L97.0678 6.0913L93.6419 13.3418ZM76.1227 3.00004V4.87735V11.4579V13.3352V21.7996H78.0237V13.3418H82.3095C85.1913 13.3418 87.5491 11.0134 87.5491 8.16761C87.5491 5.3218 85.1913 2.99341 82.3095 2.99341H78.0237H76.1227V3.00004ZM78.0237 4.87735H82.3095C84.1366 4.87735 85.6413 6.36327 85.6413 8.16761C85.6413 9.97195 84.1366 11.4579 82.3095 11.4579H78.0237V4.87735ZM62.8355 3.00004C66.1942 3.00004 69.1499 4.71814 70.8427 7.31188L69.4589 8.6784C68.149 6.40971 65.677 4.87735 62.8355 4.87735C58.6303 4.87735 55.2178 8.24721 55.2178 12.3998C55.2178 16.5525 58.6303 19.9223 62.8355 19.9223C66.033 19.9223 68.767 17.9787 69.8955 15.2191H62.8355V13.3418H70.3926H72.3071V13.375C72.3004 13.4347 72.2937 13.4878 72.287 13.5475L72.2803 13.5939C72.2735 13.6536 72.2668 13.7133 72.2534 13.7664V13.7863V13.7995V13.8062C72.2467 13.8659 72.2332 13.9256 72.2265 13.9853L72.2198 14.0317C72.2064 14.0914 72.1996 14.1511 72.1862 14.2042L72.1795 14.2373C72.1661 14.297 72.1526 14.3634 72.1392 14.4231L72.1325 14.443V14.4563C72.119 14.5226 72.0989 14.5889 72.0854 14.6553V14.6619V14.6685C72.072 14.7349 72.0519 14.8012 72.0317 14.8675V14.8742C72.0116 14.9471 71.9914 15.0135 71.9712 15.0864V15.0997L71.9242 15.239C70.7084 19.0533 67.1011 21.8195 62.8422 21.8195C57.5824 21.8195 53.3235 17.6072 53.3235 12.4197C53.3235 7.23227 57.5824 3.00004 62.8355 3.00004ZM72.0317 14.8609L71.9712 15.0732C71.9914 15.0002 72.0116 14.9272 72.0317 14.8609Z" fill="#212121"/>
</g>
<defs>
<clipPath id="clip0">
<rect width="200" height="36" fill="white"/>
</clipPath>
</defs>
</svg>
