<svg viewBox="0 0 30 20" xmlns="http://www.w3.org/2000/svg">
    <path
        d="M14.1788 17.5385C14.2513 17.5998 14.3288 17.661 14.4051 17.721C12.8844 18.733 11.0979 19.2715 9.2713 19.2685C7.82481 19.2685 6.3984 18.93 5.10616 18.28C3.81392 17.6301 2.69171 16.6867 1.82929 15.5254C0.966872 14.3642 0.388177 13.0172 0.139492 11.5922C-0.109192 10.1673 -0.0209642 8.70392 0.397119 7.31917C0.815203 5.93442 1.55154 4.66673 2.54723 3.61748C3.54293 2.56824 4.77035 1.76656 6.13132 1.27657C7.49228 0.786583 8.94903 0.621883 10.385 0.795646C11.8211 0.969408 13.1965 1.47681 14.4013 2.27727C14.3263 2.34102 14.2513 2.39977 14.195 2.46477C13.1122 3.39906 12.2435 4.55572 11.6479 5.85599C11.0523 7.15626 10.744 8.5696 10.7438 9.99977C10.7441 11.4289 11.0509 12.8413 11.6435 14.1418C12.236 15.4423 13.1006 16.6006 14.1788 17.5385ZM20.73 0.729767C18.83 0.729767 17.0663 1.29977 15.5988 2.27727C15.6738 2.34102 15.7488 2.39977 15.805 2.46477C16.8879 3.39906 17.7566 4.55572 18.3522 5.85599C18.9478 7.15626 19.2561 8.5696 19.2563 9.99977C19.2555 11.4288 18.9485 12.8411 18.356 14.1415C17.7634 15.4419 16.8992 16.6002 15.8213 17.5385C15.7488 17.5998 15.6713 17.661 15.595 17.721C17.1155 18.7334 18.9021 19.2719 20.7288 19.2685C21.9462 19.269 23.1519 19.0296 24.2768 18.564C25.4017 18.0984 26.4238 17.4158 27.2848 16.555C28.1458 15.6943 28.8287 14.6723 29.2946 13.5475C29.7605 12.4228 30.0002 11.2172 30 9.99977C29.9997 7.54131 29.023 5.18364 27.2846 3.44525C25.5462 1.70686 23.1885 0.730099 20.73 0.729767ZM15 2.71727C13.8958 3.58261 13.0032 4.68817 12.39 5.95002C11.7769 7.21187 11.4592 8.59683 11.4613 9.99977C11.4589 11.4029 11.7763 12.7882 12.3895 14.0503C13.0027 15.3124 13.8955 16.4182 15 17.2835C16.1043 16.4179 16.9969 15.3121 17.6101 14.0501C18.2233 12.788 18.5409 11.4029 18.5388 9.99977C18.5409 8.59683 18.2232 7.21187 17.6101 5.95002C16.9969 4.68817 16.1043 3.58261 15 2.71727Z"
        />
</svg>
