<svg viewBox="0 0 76 20" xmlns="http://www.w3.org/2000/svg">
    <path
        d="M9.0063 0.00123024H3.1687C2.76916 0.00123024 2.42947 0.291526 2.36713 0.686005L0.00613011 15.6552C-0.0408284 15.9504 0.187981 16.2168 0.487542 16.2168H3.27451C3.67397 16.2168 4.01367 15.9266 4.076 15.5314L4.71276 11.494C4.77426 11.0987 5.11479 10.8085 5.51342 10.8085H7.36143C11.2068 10.8085 13.4261 8.94769 14.0057 5.26023C14.2669 3.64695 14.0168 2.37942 13.2614 1.4917C12.4317 0.516815 10.9601 0.00123024 9.0063 0.00123024ZM9.67979 5.46853C9.36054 7.56323 7.76006 7.56323 6.21251 7.56323H5.33164L5.94961 3.65128C5.98635 3.4148 6.19116 3.24068 6.4302 3.24068H6.8339C7.88806 3.24068 8.88254 3.24068 9.39636 3.84153C9.70282 4.20009 9.79673 4.7327 9.67979 5.46853Z"
        />
    <path
        d="M26.456 5.40096H23.6606C23.4225 5.40096 23.2168 5.5751 23.1799 5.81155L23.0563 6.59342L22.8608 6.31C22.2556 5.43164 20.906 5.13807 19.5591 5.13807C16.47 5.13807 13.8316 7.47771 13.3177 10.7597C13.0506 12.3969 13.4304 13.9624 14.3591 15.054C15.211 16.0578 16.4299 16.4761 17.8802 16.4761C20.3692 16.4761 21.7495 14.8757 21.7495 14.8757L21.6248 15.6525C21.5778 15.9495 21.8066 16.2158 22.1046 16.2158H24.6225C25.0228 16.2158 25.3609 15.9256 25.4241 15.5304L26.9349 5.96259C26.9828 5.6681 26.7548 5.40096 26.456 5.40096ZM22.5594 10.8417C22.2898 12.4387 21.0221 13.5109 19.4056 13.5109C18.5938 13.5109 17.945 13.2505 17.5284 12.7571C17.1153 12.2671 16.9582 11.5698 17.0897 10.793C17.3415 9.20961 18.6305 8.10258 20.2223 8.10258C21.0162 8.10258 21.6615 8.3663 22.0866 8.86386C22.5126 9.36662 22.6814 10.0683 22.5594 10.8417Z"
        />
    <path
        d="M41.3442 5.40112H38.5351C38.2671 5.40112 38.0152 5.53428 37.8633 5.75711L33.9889 11.4641L32.3467 5.97987C32.2434 5.63668 31.9267 5.40112 31.5682 5.40112H28.8078C28.4722 5.40112 28.2393 5.72887 28.346 6.0447L31.4402 15.1251L28.5312 19.2317C28.3023 19.5551 28.5328 20 28.9281 20H31.7338C32.0001 20 32.2494 19.8702 32.4005 19.6517L41.7436 6.16513C41.9673 5.8424 41.7378 5.40112 41.3442 5.40112Z"
        />
    <path
        d="M50.6447 0.00123024H44.8062C44.4077 0.00123024 44.0679 0.291526 44.0055 0.686005L41.6445 15.6552C41.5977 15.9504 41.8264 16.2168 42.1243 16.2168H45.1204C45.3986 16.2168 45.6369 16.0137 45.6803 15.7371L46.3503 11.494C46.4118 11.0987 46.7525 10.8085 47.151 10.8085H48.9982C52.8444 10.8085 55.0629 8.94769 55.6433 5.26023C55.9054 3.64695 55.6536 2.37942 54.8981 1.4917C54.0693 0.516815 52.5986 0.00123024 50.6447 0.00123024ZM51.3183 5.46853C50.9998 7.56323 49.3995 7.56323 47.8509 7.56323H46.971L47.5899 3.65128C47.6265 3.4148 47.8296 3.24068 48.0695 3.24068H48.4732C49.5266 3.24068 50.5218 3.24068 51.0356 3.84153C51.3421 4.20009 51.4351 4.7327 51.3183 5.46853Z"
        />
    <path
        d="M68.0936 5.40096H65.2998C65.0599 5.40096 64.8558 5.5751 64.82 5.81155L64.6963 6.59342L64.5 6.31C63.8948 5.43164 62.5461 5.13807 61.1992 5.13807C58.11 5.13807 55.4726 7.47771 54.9586 10.7597C54.6924 12.3969 55.0704 13.9624 55.9992 15.054C56.8528 16.0578 58.0699 16.4761 59.5201 16.4761C62.0092 16.4761 63.3894 14.8757 63.3894 14.8757L63.2647 15.6525C63.2179 15.9495 63.4466 16.2158 63.7463 16.2158H66.2635C66.6621 16.2158 67.0019 15.9256 67.0642 15.5304L68.5759 5.96259C68.6218 5.6681 68.3931 5.40096 68.0936 5.40096ZM64.1969 10.8417C63.9289 12.4387 62.6596 13.5109 61.043 13.5109C60.2329 13.5109 59.5825 13.2505 59.1659 12.7571C58.7529 12.2671 58.5974 11.5698 58.7273 10.793C58.9807 9.20961 60.268 8.10258 61.8599 8.10258C62.6537 8.10258 63.2989 8.3663 63.7241 8.86386C64.1517 9.36662 64.3207 10.0683 64.1969 10.8417Z"
        />
    <path
        d="M71.3892 0.411919L68.9932 15.6552C68.9463 15.9504 69.175 16.2168 69.4729 16.2168H71.8817C72.282 16.2168 72.6218 15.9266 72.6833 15.5314L75.0459 0.563121C75.0929 0.267662 74.8642 0.000520706 74.5663 0.000520706H71.8688C71.6307 0.00123405 71.4259 0.175587 71.3892 0.411919Z"
        />
</svg>
