<svg viewBox="0 0 60 20" xmlns="http://www.w3.org/2000/svg">
    <path
        d="M43.6123 1.55726C42.2188 1.05002 40.746 0.795263 39.2631 0.804954C34.4631 0.804954 31.0754 3.22495 31.0508 6.69265C31.02 9.24342 33.46 10.6773 35.3031 11.5326C37.1954 12.408 37.8262 12.9573 37.8231 13.745C37.8092 14.9373 36.3108 15.4773 34.9169 15.4773C33.0031 15.4773 31.9523 15.2096 30.34 14.5403L29.7431 14.2634L29.0662 18.2573C30.2292 18.745 32.3308 19.1634 34.5031 19.1957C39.6046 19.1957 42.94 16.7926 42.98 13.0973C43.02 11.0665 41.7046 9.52342 38.9277 8.25265C37.2431 7.42803 36.1923 6.87572 36.1923 6.03726C36.1923 5.2988 37.0908 4.50803 38.9646 4.50803C40.2118 4.47769 41.4514 4.70989 42.6031 5.18957L43.0523 5.39265L43.7292 1.53265L43.6123 1.55726ZM56.0708 1.13265H52.32C51.1523 1.13265 50.28 1.45111 49.7662 2.60957L42.5554 18.945H47.6569L48.6769 16.2696L54.9031 16.2757C55.0554 16.9003 55.5031 18.945 55.5031 18.945H60L56.0708 1.13265ZM24.1508 0.984954H29.0077L25.9692 18.805H21.1077L24.1508 0.977262V0.984954ZM11.8015 10.805L12.3077 13.2803L17.06 1.13265H22.2077L14.5538 18.9203H9.42L5.22 3.85572C5.15237 3.60768 4.99139 3.39543 4.77077 3.26342C3.26011 2.47757 1.65755 1.88274 0 1.49265L0.0615385 1.12188H7.88923C8.95077 1.16188 9.80462 1.49726 10.0969 2.63265L11.8031 10.8142V10.8065L11.8015 10.805ZM50.0708 12.6234L52.0092 7.6388C51.9831 7.68803 52.4092 6.60803 52.6538 5.93726L52.9862 7.47572L54.1092 12.6173H50.0708V12.6234Z"
        />
</svg>
