<svg stroke="none" fill="none" xmlns="http://www.w3.org/2000/svg" viewBox="0 0 17 17"><g clip-path="url(#clip0)"><path d="M4.304 10.388l-.557 2.08-2.036.042a7.965 7.965 0 01-.953-3.79 7.96 7.96 0 01.894-3.68l1.813.332.794 1.802a4.756 4.756 0 00.045 3.214z" fill="#FBBB00"/><path d="M16.618 7.225a8.007 8.007 0 01-.035 3.165 7.998 7.998 0 01-2.817 4.568l-2.283-.117-.323-2.017a4.769 4.769 0 002.051-2.434H8.934V7.224H16.618z" fill="#518EF8"/><path d="M13.765 14.957a7.967 7.967 0 01-5.007 1.762 7.999 7.999 0 01-7.047-4.21l2.592-2.121a4.757 4.757 0 006.857 2.436l2.605 2.133z" fill="#28B446"/><path d="M13.864 2.56l-2.591 2.122a4.758 4.758 0 00-7.014 2.491L1.653 5.04A7.998 7.998 0 018.757.719c1.94 0 3.72.691 5.106 1.842z" fill="#F14336"/></g><defs><clipPath id="clip0"><path fill="#fff" transform="translate(.758 .719)" d="M0 0h16v16H0z"/></clipPath></defs></svg>
