<svg viewBox="0 0 20 20" xmlns="http://www.w3.org/2000/svg">
    <path
        d="M10.1972 20.0007C10.131 20.0007 10.0648 20.0007 9.99809 20.0004C8.43035 20.0042 6.98177 19.9644 5.57303 19.8787C4.28147 19.8001 3.10254 19.3537 2.16347 18.588C1.25737 17.8492 0.638605 16.8501 0.324414 15.619C0.0509663 14.5472 0.0364699 13.495 0.0225839 12.4774C0.0125127 11.7472 0.00213631 10.882 0 10.0022C0.00213631 9.11865 0.0125127 8.25344 0.0225839 7.52328C0.0364699 6.50578 0.0509663 5.45365 0.324414 4.38168C0.638605 3.15055 1.25737 2.15152 2.16347 1.41266C3.10254 0.646942 4.28147 0.200605 5.57318 0.122019C6.98193 0.0364138 8.4308 -0.00356577 10.0019 0.000249077C11.5701 -0.00310799 13.0182 0.0364138 14.427 0.122019C15.7185 0.200605 16.8975 0.646942 17.8365 1.41266C18.7428 2.15152 19.3614 3.15055 19.6756 4.38168C19.949 5.4535 19.9635 6.50578 19.9774 7.52328C19.9875 8.25344 19.998 9.11865 20 9.9985V10.0022C19.998 10.882 19.9875 11.7472 19.9774 12.4774C19.9635 13.4949 19.9492 14.547 19.6756 15.619C19.3614 16.8501 18.7428 17.8492 17.8365 18.588C16.8975 19.3537 15.7185 19.8001 14.427 19.8787C13.0779 19.9607 11.692 20.0007 10.1972 20.0007ZM9.99809 18.4379C11.5404 18.4415 12.9564 18.4026 14.3321 18.319C15.3087 18.2596 16.1554 17.9427 16.8491 17.377C17.4903 16.8541 17.9319 16.1326 18.1616 15.2326C18.3892 14.3404 18.4023 13.3824 18.415 12.456C18.4249 11.7308 18.4353 10.8716 18.4374 10.0003C18.4353 9.12887 18.4249 8.26992 18.415 7.54464C18.4023 6.61825 18.3892 5.66026 18.1616 4.76789C17.9319 3.86789 17.4903 3.14643 16.8491 2.62349C16.1554 2.05798 15.3087 1.74104 14.3321 1.68168C12.9564 1.59791 11.5404 1.5593 10.0018 1.56266C8.4598 1.559 7.04357 1.59791 5.66794 1.68168C4.69134 1.74104 3.8446 2.05798 3.15091 2.62349C2.50971 3.14643 2.0681 3.86789 1.83845 4.76789C1.61078 5.66026 1.59766 6.61809 1.58499 7.54464C1.57507 8.27053 1.5647 9.13009 1.56256 10.0022C1.5647 10.8704 1.57507 11.7301 1.58499 12.456C1.59766 13.3824 1.61078 14.3404 1.83845 15.2326C2.0681 16.1326 2.50971 16.8541 3.15091 17.377C3.8446 17.9425 4.69134 18.2595 5.66794 18.3188C7.04357 18.4026 8.4601 18.4417 9.99809 18.4379ZM9.96086 14.8833C7.2685 14.8833 5.07786 12.6929 5.07786 10.0003C5.07786 7.30782 7.2685 5.11733 9.96086 5.11733C12.6534 5.11733 14.8439 7.30782 14.8439 10.0003C14.8439 12.6929 12.6534 14.8833 9.96086 14.8833ZM9.96086 6.67989C8.13004 6.67989 6.64042 8.16951 6.64042 10.0003C6.64042 11.8312 8.13004 13.3208 9.96086 13.3208C11.7918 13.3208 13.2813 11.8312 13.2813 10.0003C13.2813 8.16951 11.7918 6.67989 9.96086 6.67989ZM15.3908 3.55477C14.7436 3.55477 14.2188 4.07939 14.2188 4.72669C14.2188 5.37399 14.7436 5.89861 15.3908 5.89861C16.0381 5.89861 16.5627 5.37399 16.5627 4.72669C16.5627 4.07939 16.0381 3.55477 15.3908 3.55477Z"
        />
</svg>
