<svg viewBox="0 0 18 16" xmlns="http://www.w3.org/2000/svg">
    <path
        d="M17.7221 0.788025C17.5022 0.519135 17.1729 0.371094 16.7947 0.371094C16.5891 0.371094 16.3713 0.414352 16.1475 0.499908L0.910795 6.31621C0.102201 6.62479 -0.00670087 7.08786 0.000302909 7.33643C0.00730668 7.58499 0.142301 8.0412 0.9671 8.30363C0.972044 8.30515 0.976987 8.30666 0.981931 8.30803L4.14242 9.21248L5.85162 14.1C6.08467 14.7663 6.60776 15.1803 7.21695 15.1803C7.60106 15.1803 7.97885 15.0193 8.30954 14.715L10.2644 12.915L13.0999 15.1981C13.1001 15.1984 13.1005 15.1985 13.1008 15.1988L13.1277 15.2205C13.1302 15.2224 13.1328 15.2245 13.1353 15.2264C13.4505 15.4708 13.7945 15.5999 14.1305 15.6001H14.1306C14.7872 15.6001 15.31 15.1141 15.4623 14.362L17.9588 2.03484C18.0591 1.54004 17.975 1.09729 17.7221 0.788025ZM5.19972 9.04068L11.2973 5.92564L7.50053 9.95996C7.43832 10.026 7.39424 10.1069 7.37254 10.1949L6.64044 13.1604L5.19972 9.04068ZM7.59501 13.9391C7.56975 13.9623 7.54434 13.983 7.51893 14.0021L8.19816 11.2511L9.43371 12.2461L7.59501 13.9391ZM16.9252 1.82541L14.4286 14.1528C14.4046 14.2707 14.3278 14.5452 14.1305 14.5452C14.033 14.5452 13.9105 14.4921 13.7851 14.3956L10.5722 11.8085C10.5718 11.8081 10.5712 11.8077 10.5707 11.8074L8.6589 10.268L14.1495 4.43384C14.3252 4.24707 14.3412 3.96101 14.1872 3.75584C14.0331 3.55067 13.7539 3.48613 13.5256 3.60286L4.49508 8.21629L1.29161 7.29976L16.5236 1.48524C16.6523 1.43608 16.7421 1.42578 16.7947 1.42578C16.827 1.42578 16.8844 1.42963 16.9057 1.45586C16.9337 1.49005 16.9694 1.60664 16.9252 1.82541Z"
        />
</svg>
