<svg viewBox="0 0 16 17" xmlns="http://www.w3.org/2000/svg">
    <path
        d="M6.35873 6.01197C6.52974 5.88637 6.64349 5.69776 6.67496 5.48787C6.70643 5.27805 6.65278 5.06434 6.52607 4.89424L5.68566 3.76513C5.58703 3.6326 5.4391 3.54568 5.27538 3.52391C5.11165 3.50214 4.94591 3.54727 4.81615 3.64937C4.66123 3.7713 4.48772 3.90744 4.32358 4.03526C3.91953 4.34996 3.76703 4.88966 3.94587 5.36954C4.93226 8.01648 7.00595 10.1156 9.63571 11.1358C10.1766 11.3456 10.7905 11.1286 11.0777 10.6246L11.4006 10.0579C11.5593 9.77942 11.4761 9.4257 11.2102 9.247L10.1818 8.55605C10.002 8.4353 9.78092 8.39301 9.5693 8.43862C9.35767 8.4843 9.17329 8.61399 9.0594 8.79824C9.02578 8.85258 8.99327 8.9054 8.96291 8.95455C8.92056 9.02324 8.85221 9.0719 8.77347 9.08944C8.69472 9.10698 8.61217 9.09194 8.54465 9.04771C7.55868 8.40202 6.71634 7.5583 6.07245 6.57102C5.98511 6.43709 6.0186 6.25805 6.14857 6.16489C6.21331 6.11838 6.28512 6.06604 6.35873 6.01197Z"
        />
    <path
        d="M11.7467 7.4692C11.5768 7.4692 11.4392 7.33147 11.4392 7.16171C11.4392 5.13765 9.79248 3.49096 7.76843 3.49096C7.5986 3.49096 7.46094 3.35323 7.46094 3.18347C7.46094 3.01364 7.59867 2.87598 7.76843 2.87598C10.1316 2.87598 12.0542 4.79862 12.0542 7.16171C12.0542 7.33154 11.9166 7.4692 11.7467 7.4692Z"
        />
    <path
        d="M10.783 7.46943C10.6132 7.46943 10.4755 7.33169 10.4755 7.16193C10.4755 5.66919 9.2611 4.45482 7.76843 4.45482C7.5986 4.45482 7.46094 4.31709 7.46094 4.14733C7.46094 3.97751 7.59867 3.83984 7.76843 3.83984C9.60026 3.83984 11.0906 5.33016 11.0906 7.162C11.0905 7.33176 10.9528 7.46943 10.783 7.46943Z"
        />
    <path
        d="M9.83656 7.46975C9.66674 7.46975 9.52907 7.33201 9.52907 7.16226C9.52907 6.19147 8.73921 5.4016 7.76843 5.4016C7.5986 5.4016 7.46094 5.26387 7.46094 5.09411C7.46094 4.92429 7.59867 4.78662 7.76843 4.78662C9.07838 4.78662 10.1441 5.85237 10.1441 7.16233C10.1441 7.33208 10.0064 7.46975 9.83656 7.46975Z"
        />
    <path
        d="M15.5429 5.64206C15.5429 2.56188 13.046 0.0649414 9.96578 0.0649414H6.0172C2.84268 0.0649414 0.269287 2.63834 0.269287 5.81285V8.29219C0.269287 10.7414 1.80175 12.8314 3.95959 13.6593V15.6067C3.95959 15.8375 4.10488 16.0468 4.32108 16.1274C4.38388 16.1509 4.44932 16.1622 4.51413 16.1622C4.67259 16.1622 4.82806 16.0947 4.93537 15.971L6.61035 14.0402H9.96585C13.046 14.0402 15.543 11.5432 15.543 8.46305V5.64206H15.5429ZM14.2445 8.46305C14.2445 10.8223 12.3251 12.7417 9.96585 12.7417H6.99138L4.69941 15.407C4.66947 15.4418 4.62101 15.4542 4.57797 15.4384C4.53492 15.4224 4.50629 15.3814 4.50629 15.3354C4.50629 14.7677 4.50629 13.4921 4.50629 12.4772C2.79444 11.8572 1.56773 10.2155 1.56773 8.29226V5.81292C1.56773 3.35944 3.56379 1.36339 6.01727 1.36339H9.96592C12.3252 1.36339 14.2446 3.28278 14.2446 5.64206V8.46305H14.2445Z"
        />
</svg>
