<svg viewBox="0 0 28 33" xmlns="http://www.w3.org/2000/svg">
    <path
        d="M2.01654 1.09345L2.01655 17.8191C2.01655 20.6052 4.28403 22.8718 7.06923 22.8718L25.0779 22.8718L17.2544 15.056C17.0366 14.8377 17.0366 14.4806 17.2544 14.2623C17.4731 14.0441 17.8308 14.0441 18.0485 14.2623L27.105 23.3121L18.0495 32.3685C17.8317 32.5868 17.4746 32.5868 17.2558 32.3685C17.1448 32.258 17.0919 32.1143 17.0919 31.9715C17.0919 31.8292 17.1467 31.684 17.2558 31.5735L24.8341 23.9966L7.07115 23.9966C3.66728 23.9966 0.895063 21.2244 0.895063 17.821L0.895062 1.09345C0.895062 0.783874 1.14743 0.531984 1.45652 0.531984C1.76658 0.531984 2.01654 0.784354 2.01654 1.09345Z"
        />
</svg>
