<svg viewBox="0 0 22 23" xmlns="http://www.w3.org/2000/svg">
    <path
        d="M22.9561 16.4609C22.804 15.9926 22.301 15.7366 21.8327 15.8885L20.6733 16.2652C21.3835 14.7964 21.7555 13.1812 21.7555 11.5318C21.7555 5.53378 16.8759 0.654053 10.8778 0.654053C4.87973 0.654053 0 5.53378 0 11.5318C0 17.5298 4.87973 22.4096 10.8778 22.4096C11.3701 22.4096 11.7694 22.0103 11.7694 21.518C11.7694 21.0256 11.3701 20.6263 10.8778 20.6263C5.863 20.6263 1.78324 16.5466 1.78324 11.5318C1.78324 6.51706 5.863 2.43729 10.8778 2.43729C15.8926 2.43729 19.9723 6.51706 19.9723 11.5318C19.9723 12.9136 19.6605 14.2664 19.0648 15.4955L18.6687 14.276C18.5165 13.8078 18.0134 13.5516 17.5452 13.7036C17.0769 13.8558 16.8205 14.3588 16.9727 14.8271L18.0241 18.0632C18.1464 18.44 18.4959 18.6796 18.8718 18.6796C18.963 18.6796 19.056 18.6655 19.1475 18.6358L22.3836 17.5846C22.8519 17.4323 23.1083 16.9294 22.9561 16.4609Z"
        />
</svg>
