<svg viewBox="0 0 20 20" xmlns="http://www.w3.org/2000/svg">
    <path
        d="M16.909 15.2804H6.45571L6.23439 14.3777H18.0813L20 6.04353L4.34831 4.17288L3.63126 0H0V1.57643H2.29796L2.71036 3.97708L2.67711 3.97315L4.56651 14.3779H4.60631L4.83635 15.3153C3.71688 15.5016 2.85998 16.4719 2.85998 17.6401C2.85998 18.9414 3.92168 20 5.22662 20C6.53156 20 7.59357 18.9414 7.59357 17.6401C7.59357 17.3655 7.5438 17.1022 7.45652 16.8571H14.6791C14.5922 17.1025 14.5421 17.3657 14.5421 17.6401C14.5421 18.9414 15.6038 20 16.9085 20C18.2138 20 19.2755 18.9414 19.2755 17.6401C19.2763 16.3391 18.2143 15.2804 16.909 15.2804ZM4.62709 5.79366L18.0652 7.40013L16.8217 12.8013H5.88724L4.84238 7.04645L4.62709 5.79366ZM5.22724 18.4234C4.79406 18.4234 4.44172 18.0719 4.44172 17.6399C4.44172 17.2082 4.79406 16.8569 5.22724 16.8569C5.66042 16.8569 6.01276 17.2085 6.01276 17.6399C6.01276 18.0721 5.66042 18.4234 5.22724 18.4234ZM16.909 18.4237C16.4761 18.4237 16.1237 18.0722 16.1237 17.6402C16.1237 17.2085 16.4763 16.8572 16.909 16.8572C17.3425 16.8572 17.6949 17.2087 17.6949 17.6402C17.6952 18.0721 17.3425 18.4237 16.909 18.4237Z"
        />
</svg>
