<svg viewBox="0 0 16 16" xmlns="http://www.w3.org/2000/svg">
    <path
        d="M14 0H2C1.46976 0.000617537 0.961407 0.21153 0.586469 0.586469C0.21153 0.961407 0.000617537 1.46976 0 2L0 15.3333C0.00224943 15.4573 0.0386977 15.5782 0.105322 15.6827C0.171946 15.7872 0.266156 15.8713 0.377554 15.9257C0.488952 15.9801 0.613206 16.0026 0.736603 15.9908C0.86 15.979 0.977742 15.9334 1.07683 15.8589L4.31267 13.3333H14C14.5302 13.3327 15.0386 13.1218 15.4135 12.7469C15.7885 12.3719 15.9994 11.8636 16 11.3333V2C15.9994 1.46976 15.7885 0.961407 15.4135 0.586469C15.0386 0.21153 14.5302 0.000617537 14 0V0ZM14.6667 11.3333C14.6665 11.5101 14.5962 11.6795 14.4712 11.8045C14.3462 11.9295 14.1768 11.9998 14 12H4.08333C3.93471 12 3.79034 12.0496 3.67317 12.1411L1.33333 13.9673V2C1.33353 1.82325 1.40383 1.6538 1.52881 1.52881C1.6538 1.40383 1.82325 1.33353 2 1.33333H14C14.1768 1.33353 14.3462 1.40383 14.4712 1.52881C14.5962 1.6538 14.6665 1.82325 14.6667 2V11.3333Z"
        />
</svg>
