<svg viewBox="0 0 12 13" xmlns="http://www.w3.org/2000/svg">
    <path
        d="M0 1.79665C0 1.3726 0.158035 0.965913 0.43934 0.666061C0.720644 0.366209 1.10218 0.197754 1.5 0.197754H3C3.39782 0.197754 3.77936 0.366209 4.06066 0.666061C4.34196 0.965913 4.5 1.3726 4.5 1.79665V3.39556C4.5 3.81961 4.34196 4.2263 4.06066 4.52615C3.77936 4.826 3.39782 4.99446 3 4.99446H1.5C1.10218 4.99446 0.720644 4.826 0.43934 4.52615C0.158035 4.2263 0 3.81961 0 3.39556V1.79665ZM7.5 1.79665C7.5 1.3726 7.65804 0.965913 7.93934 0.666061C8.22064 0.366209 8.60218 0.197754 9 0.197754H10.5C10.8978 0.197754 11.2794 0.366209 11.5607 0.666061C11.842 0.965913 12 1.3726 12 1.79665V3.39556C12 3.81961 11.842 4.2263 11.5607 4.52615C11.2794 4.826 10.8978 4.99446 10.5 4.99446H9C8.60218 4.99446 8.22064 4.826 7.93934 4.52615C7.65804 4.2263 7.5 3.81961 7.5 3.39556V1.79665ZM0 9.79116C0 9.36711 0.158035 8.96042 0.43934 8.66057C0.720644 8.36071 1.10218 8.19226 1.5 8.19226H3C3.39782 8.19226 3.77936 8.36071 4.06066 8.66057C4.34196 8.96042 4.5 9.36711 4.5 9.79116V11.3901C4.5 11.8141 4.34196 12.2208 4.06066 12.5207C3.77936 12.8205 3.39782 12.989 3 12.989H1.5C1.10218 12.989 0.720644 12.8205 0.43934 12.5207C0.158035 12.2208 0 11.8141 0 11.3901V9.79116ZM7.5 9.79116C7.5 9.36711 7.65804 8.96042 7.93934 8.66057C8.22064 8.36071 8.60218 8.19226 9 8.19226H10.5C10.8978 8.19226 11.2794 8.36071 11.5607 8.66057C11.842 8.96042 12 9.36711 12 9.79116V11.3901C12 11.8141 11.842 12.2208 11.5607 12.5207C11.2794 12.8205 10.8978 12.989 10.5 12.989H9C8.60218 12.989 8.22064 12.8205 7.93934 12.5207C7.65804 12.2208 7.5 11.8141 7.5 11.3901V9.79116Z"
        />
</svg>
