<svg viewBox="0 0 21 18" xmlns="http://www.w3.org/2000/svg">
    <path
        d="M19.4732 1.7552C18.5282 0.851216 17.2225 0.399414 15.5557 0.399414C15.0944 0.399414 14.6236 0.477765 14.1438 0.634391C13.6638 0.791131 13.2173 1.00259 12.8047 1.26863C12.3916 1.53459 12.0366 1.78434 11.7387 2.01752C11.4413 2.25077 11.1584 2.49866 10.8906 2.76097C10.6227 2.49866 10.3399 2.25077 10.0424 2.01752C9.74471 1.78434 9.38953 1.53474 8.97649 1.26863C8.56353 1.00248 8.11708 0.791169 7.63719 0.634391C7.15735 0.477803 6.68666 0.399414 6.22538 0.399414C4.55866 0.399414 3.25294 0.85133 2.30803 1.7552C1.36312 2.659 0.890625 3.91261 0.890625 5.51617C0.890625 6.00454 0.978189 6.50766 1.15297 7.0249C1.32774 7.54242 1.52691 7.98346 1.75008 8.34784C1.97321 8.71217 2.22625 9.06747 2.50899 9.41373C2.79174 9.75995 2.99838 9.99857 3.12843 10.1298C3.2586 10.261 3.36095 10.3558 3.43534 10.4142L10.3995 16.9961C10.5335 17.1273 10.6972 17.1931 10.8906 17.1931C11.084 17.1931 11.2478 17.1273 11.3817 16.9961L18.3348 10.4358C20.0387 8.76693 20.8906 7.12692 20.8906 5.51602C20.8906 3.91235 20.4182 2.65884 19.4732 1.7552ZM17.3638 9.40826L10.8906 15.5199L4.4064 9.39723C3.01499 8.03451 2.3194 6.74057 2.3194 5.51602C2.3194 4.9257 2.39938 4.40447 2.55927 3.95267C2.71927 3.50079 2.92387 3.1417 3.17311 2.87567C3.4224 2.60956 3.72555 2.39289 4.08268 2.22512C4.44001 2.0575 4.78968 1.94449 5.13189 1.88621C5.47409 1.828 5.83861 1.79886 6.22558 1.79886C6.61242 1.79886 7.02917 1.89168 7.47559 2.07761C7.92193 2.26345 8.33301 2.4967 8.70872 2.77729C9.0845 3.05807 9.4063 3.32042 9.67427 3.56451C9.94208 3.80883 10.1652 4.03282 10.3438 4.23693C10.4777 4.39735 10.6601 4.47754 10.8907 4.47754C11.1213 4.47754 11.3035 4.39735 11.4375 4.23693C11.6161 4.03282 11.8394 3.80872 12.1072 3.56451C12.3751 3.32042 12.6969 3.05818 13.0725 2.77729C13.4483 2.4967 13.8594 2.26345 14.306 2.07761C14.7522 1.89172 15.1691 1.79886 15.556 1.79886C15.9429 1.79886 16.3073 1.828 16.6496 1.88621C16.992 1.94445 17.3416 2.0575 17.6988 2.22512C18.056 2.39285 18.3592 2.60967 18.6084 2.87567C18.8576 3.1417 19.0623 3.50079 19.2223 3.95267C19.382 4.40447 19.462 4.9257 19.462 5.51602C19.4619 6.74057 18.7627 8.03811 17.3638 9.40826Z"
        />
</svg>
