<svg xmlns="http://www.w3.org/2000/svg" id="heart-fill" viewBox="0 0 49 41">
    <path
        d="M45.3354 3.61278C43.0674 1.44321 39.9338 0.358887 35.9334 0.358887C34.8264 0.358887 33.6965 0.546929 32.545 0.922831C31.393 1.29901 30.3213 1.80652 29.3311 2.445C28.3397 3.0833 27.4876 3.68272 26.7728 4.24234C26.0588 4.80215 25.3801 5.39707 24.7373 6.02663C24.0943 5.39707 23.4157 4.80215 22.7016 4.24234C21.9871 3.68272 21.1347 3.08367 20.1434 2.445C19.1523 1.80625 18.0808 1.2991 16.9291 0.922831C15.7774 0.547021 14.6478 0.358887 13.5407 0.358887C9.54058 0.358887 6.40685 1.44349 4.13907 3.61278C1.87129 5.78188 0.737305 8.79057 0.737305 12.6391C0.737305 13.8112 0.947458 15.0187 1.36692 16.2601C1.78638 17.5021 2.26439 18.5606 2.8 19.4351C3.33552 20.3095 3.9428 21.1622 4.62139 21.9932C5.29998 22.8242 5.79591 23.3969 6.10804 23.7117C6.42046 24.0266 6.66607 24.2543 6.84461 24.3943L23.5587 40.1909C23.8802 40.5058 24.273 40.6637 24.7372 40.6637C25.2014 40.6637 25.5945 40.5058 25.9159 40.1909L42.6034 24.4463C46.6927 20.4409 48.7372 16.5049 48.7372 12.6387C48.7373 8.78992 47.6034 5.78152 45.3354 3.61278Z"
        ></path>
</svg>
