<svg viewBox="0 0 16 17" xmlns="http://www.w3.org/2000/svg">
    <path
        d="M8 0.5C3.5888 0.5 0 4.08885 0 8.50005C0 12.9112 3.5888 16.5 8 16.5C12.4112 16.5 16 12.9112 16 8.50005C16 4.08885 12.4112 0.5 8 0.5ZM8 15.0455C4.39079 15.0455 1.45455 12.1092 1.45455 8.50005C1.45455 4.89088 4.39079 1.95455 8 1.95455C11.6092 1.95455 14.5455 4.89088 14.5455 8.50005C14.5455 12.1092 11.6092 15.0455 8 15.0455Z"
        />
    <path
        d="M7.99782 3.89392C7.46323 3.89392 7.02832 4.32912 7.02832 4.86405C7.02832 5.3985 7.46323 5.83331 7.99782 5.83331C8.53242 5.83331 8.96733 5.3985 8.96733 4.86405C8.96733 4.32912 8.53242 3.89392 7.99782 3.89392Z"
        />
    <path
        d="M7.99973 7.28784C7.59809 7.28784 7.27246 7.61347 7.27246 8.01511V12.3788C7.27246 12.7804 7.59809 13.106 7.99973 13.106C8.40138 13.106 8.72701 12.7804 8.72701 12.3788V8.01511C8.72701 7.61347 8.40138 7.28784 7.99973 7.28784Z"
        />
</svg>
