<svg viewBox="0 0 14 18" xmlns="http://www.w3.org/2000/svg">
    <path fill-rule="evenodd" clip-rule="evenodd"
          d="M8.29996 0.045986C8.50296 0.109828 8.68031 0.236767 8.8062 0.408342C8.93209 0.579916 8.99997 0.787179 8.99996 0.999986V5.99999H13C13.1829 5.9999 13.3623 6.05 13.5187 6.14481C13.6752 6.23962 13.8026 6.37553 13.8871 6.53773C13.9717 6.69993 14.0101 6.88222 13.9983 7.06475C13.9865 7.24729 13.9248 7.42307 13.82 7.57299L6.81996 17.573C6.69813 17.7475 6.52379 17.8786 6.3223 17.9472C6.12081 18.0159 5.90268 18.0184 5.69965 17.9545C5.49663 17.8905 5.31929 17.7635 5.19345 17.5918C5.06761 17.4202 4.99982 17.2128 4.99996 17V12H0.999957C0.817038 12.0001 0.637602 11.95 0.481174 11.8552C0.324747 11.7603 0.197322 11.6244 0.112766 11.4622C0.0282109 11.3 -0.0102353 11.1178 0.00161155 10.9352C0.0134584 10.7527 0.0751445 10.5769 0.179957 10.427L7.17996 0.426986C7.30197 0.252773 7.47635 0.121998 7.67776 0.0536622C7.87917 -0.0146742 8.09713 -0.0170128 8.29996 0.0469861V0.045986Z"
          />
</svg>
