<svg width="560" height="107" viewBox="0 0 560 107" fill="none" xmlns="http://www.w3.org/2000/svg">
    <path fill-rule="evenodd" clip-rule="evenodd" d="M133.299 52.9541H138.622V-0.000333656H133.299V52.9541ZM74.6341 59.7345C74.6341 73.5381 63.3675 84.7267 49.4864 84.7267C39.9503 84.7267 33.4424 78.1704 27.3859 71.6702L0 42.3632L27.3859 13.0561C33.4424 6.55592 39.9503 -0.000333656 49.4864 -0.000333656C63.3863 -0.000333656 74.6341 11.1883 74.6341 24.9732V24.9919C74.6341 33.0798 68.0133 39.6361 59.869 39.6361C51.7623 39.6361 45.1604 33.1359 45.104 25.0853V24.9732C45.104 22.5637 47.0601 20.6211 49.4864 20.6211C51.9128 20.6211 53.8689 22.5637 53.8689 24.9732C53.8689 27.8124 56.2013 30.1286 59.0602 30.1286C61.9192 30.1286 64.2515 27.8124 64.2515 24.9732C64.2515 16.8666 57.6307 10.3104 49.4864 10.3104C41.3233 10.3104 34.7214 16.8853 34.7214 24.9732C34.7214 28.7837 36.1885 32.2393 38.5772 34.8543C39.5365 36.0311 40.9284 37.4693 42.9033 39.3372C39.9127 36.8343 35.8687 35.3026 31.4298 35.3026C31.0913 35.3026 30.7715 35.3213 30.4329 35.3213C30.132 35.3026 29.8499 35.3026 29.5489 35.3026C24.1884 35.3026 19.5049 38.1231 16.9093 42.3632C19.5049 46.6033 24.1884 49.4238 29.5489 49.4238C29.8499 49.4238 30.1508 49.4051 30.4329 49.4051C30.7527 49.4238 31.0913 49.4238 31.4298 49.4238C35.8687 49.4238 39.9127 47.8921 42.9033 45.3891C40.9472 47.2383 39.5553 48.6953 38.5772 49.8721C36.1885 52.4871 34.7214 55.9427 34.7214 59.7531C34.7214 67.8597 41.3422 74.416 49.4864 74.416C57.6495 74.416 64.2515 67.8411 64.2515 59.7531C64.2515 56.914 61.9192 54.5978 59.0602 54.5978C56.2013 54.5978 53.8689 56.914 53.8689 59.7531C53.8689 62.1627 51.9128 64.1053 49.4864 64.1053C47.0601 64.1053 45.104 62.1627 45.104 59.7531V59.6411C45.1604 51.5905 51.7623 45.0903 59.869 45.0903C68.0321 45.0716 74.6341 51.6279 74.6341 59.7345ZM214.554 84.708L204.604 63.5262H203.175L202.723 64.4975L193.244 84.708H195.595L199.074 77.2925H208.742L212.222 84.708H214.554ZM542.94 84.708H545.066V68.1959L557.856 83.3445L559.022 84.708H560V82.5599V63.5449H557.875V80.057L545.084 64.9085L543.918 63.5449H542.94V65.693V84.708ZM440.13 84.708H447.598C453.466 84.708 458.262 79.9449 458.262 74.1171C458.262 68.2893 453.466 63.5262 447.598 63.5262H440.13V84.708ZM442.256 82.5973V65.6556H447.579C452.262 65.6556 456.118 69.4661 456.118 74.1358C456.118 78.7868 452.281 82.616 447.579 82.616H442.256V82.5973ZM494.507 84.708H496.633V75.6114L505.793 84.708H508.802L498.137 74.1171L508.802 63.5262H505.793L496.633 72.6228V63.5262H494.507V70.4934V73.482V74.7149V77.7035V84.708ZM476.394 84.708C480.494 84.708 483.861 81.3645 483.861 77.2925V63.5262H481.736V77.2925C481.736 80.2064 479.328 82.5786 476.413 82.5786C473.479 82.5786 471.09 80.1877 471.09 77.2925V63.5262H468.965V77.2925C468.927 81.3832 472.275 84.708 476.394 84.708ZM519.485 84.708H521.611H532.276V82.5973H521.611V75.1818H532.276V73.0711H521.611V65.6556H532.276V63.5449H521.611H519.485V65.6556V73.0711V75.1818V82.5973V84.708ZM406.349 84.708H408.475H419.139V82.5973H408.475V75.1818H419.139V73.0711H408.475V65.6556H419.139V63.5449H408.475H406.349V65.6556V73.0711V75.1818V82.5973V84.708ZM378.625 84.708H380.75V68.1959L393.54 83.3445L394.707 84.708H395.685V82.5599V63.5449H393.559V80.057L380.769 64.9085L379.603 63.5449H378.625V65.693V84.708ZM365.835 84.708H367.96V63.5449H365.835V84.708ZM342.38 84.708H344.505H355.17V82.5973H344.505V63.5449H342.38V82.5973V84.708ZM314.656 84.708H316.781V68.1959L329.571 83.3445L330.737 84.708H331.715V82.5599V63.5449H329.59V80.057L316.8 64.9085L315.634 63.5449H314.656V65.693V84.708ZM293.326 63.5449C299.213 63.5449 303.991 68.2893 303.991 74.1358C303.991 79.9823 299.213 84.7267 293.326 84.7267C287.439 84.7267 282.661 79.9823 282.661 74.1358C282.661 68.2707 287.439 63.5449 293.326 63.5449ZM293.326 65.6556C288.605 65.6556 284.787 69.4474 284.787 74.1358C284.787 78.8055 288.605 82.616 293.326 82.616C298.028 82.616 301.865 78.8242 301.865 74.1358C301.847 69.4474 298.028 65.6556 293.326 65.6556ZM252.774 84.708H254.899V75.1818L261.671 63.5262H259.207L253.827 72.7723L248.448 63.5262H245.984L252.755 75.1818V84.708H252.774ZM225.219 84.708H227.344H238.009V82.5973H227.344V63.5449H225.219V82.5973V84.708ZM167.099 84.708H174.566C180.435 84.708 185.231 79.9449 185.231 74.1171C185.231 68.2893 180.435 63.5262 174.566 63.5262H167.099V84.708ZM169.224 82.5973V65.6556H174.547C179.231 65.6556 183.087 69.4661 183.087 74.1358C183.087 78.7868 179.25 82.616 174.547 82.616H169.224V82.5973ZM147.519 84.708H149.644V75.1818L156.416 63.5262H153.952L148.591 72.7909L143.212 63.5449H140.748L147.519 75.2005V84.708ZM132.754 84.708L122.823 63.5449H121.393L120.942 64.5162L111.462 84.7267H113.813L117.293 77.3112H126.961L130.44 84.7267H132.754V84.708ZM118.252 75.1818L122.089 67.0192L125.926 75.1818H118.252ZM90.6405 63.5449H92.7659H97.5622C100.779 63.5449 103.431 66.16 103.431 69.3727C103.431 72.5855 100.797 75.2005 97.5622 75.2005H92.7659V84.7267H90.6405V75.2005V73.0898V65.6743V63.5449ZM92.7659 65.6556V73.0711H97.5622C99.6124 73.0711 101.286 71.39 101.286 69.3727C101.286 67.3367 99.5936 65.6743 97.5622 65.6743H92.7659V65.6556ZM200.052 75.1818L203.889 67.0192L207.726 75.1818H200.052ZM90.6405 52.9541H95.9635H107.964C116.033 52.9541 122.635 46.3978 122.635 38.3846C122.635 32.1646 118.647 26.8224 113.098 24.7491C115.694 22.1154 117.312 18.5104 117.312 14.5691C117.312 6.55592 110.71 -0.000333656 102.641 -0.000333656H95.9823H90.6593V5.28577V23.8151V29.1012V47.6306V52.9541H90.6405ZM102.641 23.8338H95.9823V5.28577H102.641C107.757 5.28577 111.97 9.46982 111.97 14.5504C111.97 19.6498 107.757 23.8338 102.641 23.8338ZM95.9635 47.6493V29.1199H102.622H107.945C113.061 29.1199 117.274 33.304 117.274 38.3846C117.274 43.4652 113.061 47.6493 107.945 47.6493H95.9635ZM528.006 5.28577H551.009L531.128 47.6493L528.645 52.9354H534.533H560.019V47.6493H536.997L556.878 5.28577L559.379 -0.000333656H553.492H528.006V5.28577ZM481.585 52.9541H486.908V30.222L509.799 52.9541H517.341L490.689 26.4862L517.341 -0.000333656H509.799L486.908 22.7318V-0.000333656H481.585V17.427V24.9172V28.0179V35.5081V52.9541ZM466.933 44.9969C469.134 44.9969 470.939 46.7714 470.939 48.9755C470.939 51.1609 469.153 52.9541 466.933 52.9541C464.732 52.9541 462.927 51.1796 462.927 48.9755C462.927 46.7901 464.714 44.9969 466.933 44.9969ZM348.305 52.9541H366.963C381.634 52.9541 393.616 41.037 393.616 26.4862C393.616 11.9167 381.634 -0.000333656 366.963 -0.000333656H348.305V52.9541ZM353.628 47.6493V5.28577H366.963C378.681 5.28577 388.293 14.8306 388.293 26.4675C388.293 38.1044 378.681 47.6493 366.963 47.6493H353.628ZM315.37 52.9541H320.693V29.1199L337.621 -0.000333656H331.471L318.022 23.124L304.593 -0.000333656H298.442L315.37 29.1199V52.9541ZM452.262 52.9541L427.397 -0.000333656H423.804L422.657 2.42791L398.939 52.9354H404.826L413.534 34.406H437.685L446.394 52.9354H452.262V52.9541ZM416.017 29.1199L425.61 8.70399L435.202 29.1199H416.017ZM298.442 52.9541H292.555L283.846 34.4247H259.696L250.987 52.9541H245.1L268.837 2.42791L269.984 -0.000333656H273.577L298.442 52.9541ZM262.197 29.1199H281.382L271.79 8.70399L262.197 29.1199ZM213.143 -0.000333656V5.28577V23.8151V29.1012V52.9354H218.466V29.1199H230.467C238.536 29.1199 245.138 22.5637 245.138 14.5504C245.138 6.53725 238.536 -0.0190125 230.467 -0.0190125H218.466H213.143V-0.000333656ZM218.466 5.28577H230.467C235.583 5.28577 239.796 9.46982 239.796 14.5504C239.796 19.6311 235.583 23.8151 230.467 23.8151H218.466V5.28577ZM175.939 -0.000333656C185.344 -0.000333656 193.62 4.83747 198.36 12.1409L194.485 15.9887C190.817 9.60057 183.895 5.28577 175.939 5.28577C164.165 5.28577 154.61 14.7746 154.61 26.4675C154.61 38.1604 164.165 47.6493 175.939 47.6493C184.892 47.6493 192.548 42.1764 195.708 34.406H175.939V29.1199H197.099H202.46V29.2133C202.441 29.3814 202.422 29.5308 202.404 29.699L202.385 29.8297C202.366 29.9978 202.347 30.1659 202.309 30.3154V30.3714V30.4087V30.4274C202.291 30.5955 202.253 30.7636 202.234 30.9318L202.215 31.0625C202.178 31.2306 202.159 31.3987 202.121 31.5482L202.103 31.6415C202.065 31.8097 202.027 31.9964 201.99 32.1646L201.971 32.2206V32.2579C201.933 32.4447 201.877 32.6315 201.839 32.8183V32.837V32.8557C201.802 33.0425 201.745 33.2292 201.689 33.416V33.4347C201.632 33.6402 201.576 33.827 201.52 34.0324V34.0698L201.388 34.462C197.983 45.2024 187.883 52.9914 175.958 52.9914C161.231 52.9914 149.306 41.1304 149.306 26.5236C149.306 11.9167 161.231 -0.000333656 175.939 -0.000333656ZM201.689 33.3974L201.52 33.9951C201.576 33.7896 201.632 33.5841 201.689 33.3974Z" fill="white"/>
</svg>
