<svg id="messenger-icon-1" xmlns="http://www.w3.org/2000/svg" viewBox="0 0 40 40">
<g>
	<path class="st0" fill="#9B9B9B" d="M20.3,7.4c-7.4,0-13.5,5.1-13.5,11.4c0,3.9,2.3,7.3,5.8,9.4c-0.5,1.4-1.5,3.2-2.7,4.2c2.4-0.7,4.5-1.7,6-2.9
		c1.4,0.4,2.9,0.6,4.4,0.6c7.4,0,13.5-5.1,13.5-11.4C33.8,12.5,27.8,7.4,20.3,7.4z"/>
	<path class="st1" fill="#DEDEDE" d="M25,18.6c4.4,0,8,3,8,6.7c0,2.3-1.4,4.3-3.5,5.5c0.3,0.8,0.9,1.9,1.6,2.5c-1.4-0.4-2.7-1-3.5-1.7
		C26.8,31.9,25.9,32,25,32c-4.4,0-8-3-8-6.7C17,21.6,20.6,18.6,25,18.6z"/>
	<path d="M25.3,26.4c0.7,0,1.3-0.6,1.3-1.3s-0.6-1.3-1.3-1.3c-0.7,0-1.3,0.6-1.3,1.3S24.6,26.4,25.3,26.4z" fill="#000"/>
	<path d="M21.3,26.4c0.7,0,1.3-0.6,1.3-1.3s-0.6-1.3-1.3-1.3c-0.7,0-1.3,0.6-1.3,1.3S20.6,26.4,21.3,26.4z" fill="#000"/>
	<path d="M29.4,26.4c0.7,0,1.3-0.6,1.3-1.3s-0.6-1.3-1.3-1.3c-0.7,0-1.3,0.6-1.3,1.3S28.7,26.4,29.4,26.4z" fill="#000"/>
</g>
</svg>
