<svg id="messenger-icon-7" xmlns="http://www.w3.org/2000/svg" viewBox="0 0 40 40">
<path class="st0" fill="#989898" stroke="#DCDCDC" stroke-width="2" d="M11.7,11.4L11.7,11.4c4.4-4.4,11.4-4.3,15.7,0c4.4,4.4,4.3,11.4,0,15.7c-3.6,3.6-9.2,4.3-13.5,1.8l-0.4-0.2
	l-0.4,0.1L8.8,30l1.2-4.4l0.1-0.4L10,24.9C7.5,20.6,8.1,15,11.7,11.4z"/>
<path class="st1" fill="#fff" d="M25,22.9c0-0.3-0.3-0.5-0.6-0.6c-0.8-0.1-1.6-0.3-2.4-0.6c-0.3-0.1-0.6-0.1-0.8,0.1c-0.2,0.2-0.3,0.4-0.5,0.5
	c-1.8-0.9-3.3-2.4-4.2-4.2c0.2-0.2,0.3-0.3,0.5-0.5c0.2-0.2,0.2-0.5,0.1-0.8c-0.3-0.7-0.5-1.5-0.6-2.4c0-0.3-0.3-0.6-0.6-0.6
	c-0.2,0-0.5,0-0.7,0c-1.1-0.1-2,1.4-1.5,3.1c1.1,4,4.2,7.1,8.2,8.2c1.7,0.5,3.2-0.5,3.1-1.5C25,23.4,25,23.1,25,22.9z"/>
</svg>
