<svg id="messenger-icon-6" xmlns="http://www.w3.org/2000/svg" viewBox="0 0 40 40">
<path class="st0" fill="#989898" d="M17.2,16c0.3-0.2,0.4-0.5,0.5-0.8c0-0.3,0-0.7-0.2-0.9l-1.3-1.8c-0.2-0.2-0.4-0.3-0.6-0.4c-0.3,0-0.5,0-0.7,0.2
	c-0.2,0.2-0.5,0.4-0.8,0.6c-0.6,0.5-0.9,1.3-0.6,2.1c1.5,4.1,4.8,7.4,8.9,9c0.8,0.3,1.8,0,2.2-0.8l0.5-0.9c0.2-0.4,0.1-1-0.3-1.3
	l-1.6-1.1c-0.3-0.2-0.6-0.3-1-0.2c-0.3,0.1-0.6,0.3-0.8,0.6c-0.1,0.1-0.1,0.2-0.2,0.2c-0.1,0.1-0.2,0.2-0.3,0.2
	c-0.1,0-0.3,0-0.4-0.1c-1.5-1-2.8-2.3-3.8-3.9c-0.1-0.2-0.1-0.5,0.1-0.6C17,16.1,17.1,16.1,17.2,16z"/>
<path class="st0" fill="#989898" d="M25.6,18.2c-0.3,0-0.5-0.2-0.5-0.5c0-3.1-2.6-5.7-5.7-5.7c-0.3,0-0.5-0.2-0.5-0.5c0-0.3,0.2-0.5,0.5-0.5
	c3.7,0,6.7,3,6.7,6.7C26.1,18,25.9,18.2,25.6,18.2z"/>
<path class="st0" fill="#989898" d="M24.1,18.2c-0.3,0-0.5-0.2-0.5-0.5c0-2.3-1.9-4.2-4.2-4.2c-0.3,0-0.5-0.2-0.5-0.5c0-0.3,0.2-0.5,0.5-0.5
	c2.8,0,5.2,2.3,5.2,5.2C24.6,18,24.4,18.2,24.1,18.2z"/>
<path class="st0" fill="#989898" d="M22.6,18.2c-0.3,0-0.5-0.2-0.5-0.5c0-1.5-1.2-2.7-2.7-2.7c-0.3,0-0.5-0.2-0.5-0.5s0.2-0.5,0.5-0.5
	c2,0,3.7,1.7,3.7,3.7C23.1,18,22.9,18.2,22.6,18.2z"/>
<path class="st0" fill="#989898" d="M31.5,15.4c0-4.8-3.9-8.7-8.7-8.7h-6.1c-4.9,0-8.9,4-8.9,8.9v3.9c0,3.8,2.4,7.1,5.7,8.3v3
	c0,0.4,0.2,0.7,0.6,0.8c0.1,0,0.2,0.1,0.3,0.1c0.2,0,0.5-0.1,0.7-0.3l2.6-3h5.2c4.8,0,8.7-3.9,8.7-8.7L31.5,15.4L31.5,15.4z
	 M29.5,19.8c0,3.7-3,6.7-6.7,6.7h-4.6l-3.6,4.1c0,0.1-0.1,0.1-0.2,0c-0.1,0-0.1-0.1-0.1-0.2c0-0.9,0-2.9,0-4.4
	c-2.7-1-4.6-3.5-4.6-6.5v-3.9c0-3.8,3.1-6.9,6.9-6.9h6.1c3.7,0,6.7,3,6.7,6.7L29.5,19.8L29.5,19.8z"/>
</svg>
