<svg viewBox="0 0 12 12" xmlns="http://www.w3.org/2000/svg">
    <path
        d="M11.9828 4.62336C11.9414 4.49607 11.8314 4.40331 11.699 4.38409L7.97896 3.8435L6.31525 0.472572C6.25605 0.352572 6.13382 0.276611 6.00002 0.276611C5.86619 0.276611 5.74399 0.352572 5.68476 0.472572L4.02099 3.8435L0.301004 4.38409C0.168606 4.40331 0.058567 4.49607 0.0172234 4.62334C-0.0241436 4.75063 0.0103562 4.89034 0.106192 4.98373L2.79793 7.60765L2.16259 11.3127C2.13995 11.4446 2.19418 11.5779 2.30244 11.6566C2.36368 11.701 2.43622 11.7237 2.50911 11.7237C2.56508 11.7237 2.62124 11.7103 2.67266 11.6833L6 9.93397L9.32719 11.6833C9.44567 11.7455 9.58918 11.7352 9.69744 11.6565C9.80569 11.5779 9.85995 11.4446 9.83733 11.3127L9.20178 7.60765L11.8938 4.98371C11.9896 4.89034 12.0242 4.75063 11.9828 4.62336Z"
        />
</svg>
