<svg width="27" height="30" viewBox="0 0 27 30" xmlns="http://www.w3.org/2000/svg">
<path fill-rule="evenodd" clip-rule="evenodd" d="M26.4706 21.1508C26.4706 26.0384 22.4746 30 17.5514 30C14.1692 30 11.8611 27.6786 9.713 25.377L0 15L9.713 4.62302C11.8611 2.32143 14.1692 0 17.5514 0C22.4813 0 26.4706 3.96164 26.4706 8.84259V8.84921C26.4706 11.713 24.1224 14.0344 21.2338 14.0344C18.3586 14.0344 16.0171 11.7328 15.9971 8.88228V8.84259C15.9971 7.98942 16.6909 7.30159 17.5514 7.30159C18.412 7.30159 19.1058 7.98942 19.1058 8.84259C19.1058 9.84788 19.933 10.668 20.947 10.668C21.961 10.668 22.7882 9.84788 22.7882 8.84259C22.7882 5.97222 20.44 3.65079 17.5514 3.65079C14.6562 3.65079 12.3147 5.97884 12.3147 8.84259C12.3147 10.1918 12.835 11.4153 13.6823 12.3413C14.0225 12.7579 14.5161 13.2672 15.2166 13.9286C14.1559 13.0423 12.7216 12.5 11.1473 12.5C11.0272 12.5 10.9138 12.5066 10.7937 12.5066C10.687 12.5 10.5869 12.5 10.4802 12.5C8.57893 12.5 6.91784 13.4987 5.99724 15C6.91784 16.5013 8.57893 17.5 10.4802 17.5C10.5869 17.5 10.6936 17.4934 10.7937 17.4934C10.9071 17.5 11.0272 17.5 11.1473 17.5C12.7216 17.5 14.1559 16.9577 15.2166 16.0714C14.5228 16.7262 14.0291 17.2421 13.6823 17.6587C12.835 18.5847 12.3147 19.8082 12.3147 21.1574C12.3147 24.0278 14.6629 26.3492 17.5514 26.3492C20.4467 26.3492 22.7882 24.0212 22.7882 21.1574C22.7882 20.1521 21.961 19.332 20.947 19.332C19.933 19.332 19.1058 20.1521 19.1058 21.1574C19.1058 22.0106 18.412 22.6984 17.5514 22.6984C16.6909 22.6984 15.9971 22.0106 15.9971 21.1574V21.1177C16.0171 18.2672 18.3586 15.9656 21.2338 15.9656C24.1291 15.959 26.4706 18.2804 26.4706 21.1508Z"/>
</svg>
