<svg viewBox="0 0 14 14" xmlns="http://www.w3.org/2000/svg">
    <path fill-rule="evenodd" clip-rule="evenodd"
          d="M8.63677 9.20185V8.06072C8.88223 7.93346 9.58426 7.0594 9.65786 6.37645C9.85096 6.36104 10.1543 6.17561 10.2438 5.4436C10.2918 5.05049 10.1008 4.82969 9.98514 4.76008C9.98514 4.76008 10.2732 4.18782 10.2732 3.49688C10.2732 2.11158 9.75335 0.929408 8.63677 0.929408C8.63677 0.929408 8.24892 0.0735798 7.00031 0.0735798C4.6864 0.0735798 3.72746 1.62605 3.72746 3.49688C3.72746 4.12677 4.01546 4.76008 4.01546 4.76008C3.89983 4.82969 3.70891 5.05106 3.75691 5.4436C3.84636 6.17561 4.14965 6.36104 4.34275 6.37645C4.41639 7.0594 5.11842 7.93346 5.36388 8.06072V9.20185C4.81841 10.9134 0.45459 9.77238 0.45459 13.7662H13.546C13.546 9.77238 9.18223 10.9134 8.63677 9.20185Z"
          />
</svg>
