<svg viewBox="0 0 44 44" xmlns="http://www.w3.org/2000/svg">
<path d="M22.0009 43.9998C34.1511 43.9998 44.0008 34.1501 44.0008 21.9999C44.0008 9.8497 34.1511 0 22.0009 0C9.85067 0 0.000976562 9.8497 0.000976562 21.9999C0.000976562 34.1501 9.85067 43.9998 22.0009 43.9998Z"/>
<path d="M33.3944 27.6401C30.5086 32.91 24.4925 35.4062 18.8798 34.0277L13.1052 37.6051L13.0087 30.8129C8.79582 26.7994 7.70459 20.3807 10.5726 15.1432C14.0232 8.84179 21.9267 6.52809 28.232 9.9808C34.5323 13.4305 36.848 21.3332 33.3944 27.6401Z" fill="#fff"/>
<path d="M13.1121 25.5676L20.6345 17.4729L24.2731 21.1523L31.0186 17.4729L23.6189 25.5676L20.2257 22.1335L13.1121 25.5676Z"/>
</svg>
