<svg viewBox="0 0 44 44" xmlns="http://www.w3.org/2000/svg">
<path d="M22 43.9999C34.1502 43.9999 43.9999 34.1502 43.9999 22C43.9999 9.84972 34.1502 0 22 0C9.84972 0 0 9.84972 0 22C0 34.1502 9.84972 43.9999 22 43.9999Z"/>
<path d="M19.5939 19.8811C19.8599 19.6857 20.0368 19.3923 20.0858 19.0658C20.1347 18.7394 20.0513 18.407 19.8542 18.1424L18.5469 16.386C18.3934 16.1798 18.1633 16.0446 17.9086 16.0108C17.654 15.9769 17.3961 16.0471 17.1943 16.2059C16.9533 16.3956 16.6834 16.6074 16.4281 16.8062C15.7996 17.2957 15.5623 18.1353 15.8405 18.8818C17.3749 22.9992 20.6006 26.2645 24.6914 27.8515C25.5327 28.1779 26.4877 27.8403 26.9345 27.0563L27.4368 26.1747C27.6836 25.7416 27.5543 25.1913 27.1406 24.9134L25.5408 23.8385C25.2612 23.6507 24.9173 23.5849 24.5881 23.6559C24.2589 23.7269 23.9721 23.9287 23.7949 24.2153C23.7426 24.2998 23.692 24.382 23.6448 24.4584C23.5789 24.5653 23.4726 24.641 23.3501 24.6683C23.2276 24.6955 23.0992 24.6721 22.9942 24.6034C21.4605 23.5989 20.1501 22.2865 19.1485 20.7507C19.0127 20.5424 19.0648 20.2639 19.2669 20.119C19.3676 20.0466 19.4794 19.9652 19.5939 19.8811Z" fill="white"/>
<path d="M27.9755 22.1482C27.7114 22.1482 27.4972 21.9339 27.4972 21.6699C27.4972 18.5213 24.9357 15.9598 21.7872 15.9598C21.523 15.9598 21.3088 15.7456 21.3088 15.4815C21.3088 15.2173 21.5231 15.0032 21.7872 15.0032C25.4632 15.0032 28.4538 17.994 28.4538 21.6699C28.4538 21.9341 28.2398 22.1482 27.9755 22.1482Z" fill="white"/>
<path d="M26.4765 22.1485C26.2123 22.1485 25.9982 21.9342 25.9982 21.6701C25.9982 19.3481 24.1091 17.4591 21.7872 17.4591C21.523 17.4591 21.3088 17.2448 21.3088 16.9808C21.3088 16.7166 21.5231 16.5024 21.7872 16.5024C24.6367 16.5024 26.9549 18.8207 26.9549 21.6702C26.9548 21.9343 26.7407 22.1485 26.4765 22.1485Z" fill="white"/>
<path d="M25.0043 22.1484C24.7401 22.1484 24.5259 21.9341 24.5259 21.67C24.5259 20.1599 23.2973 18.9312 21.7872 18.9312C21.523 18.9312 21.3088 18.717 21.3088 18.4529C21.3088 18.1888 21.5231 17.9746 21.7872 17.9746C23.8249 17.9746 25.4827 19.6324 25.4827 21.6701C25.4827 21.9342 25.2684 22.1484 25.0043 22.1484Z" fill="white"/>
<path d="M33.8805 19.3056C33.8805 14.5143 29.9964 10.6301 25.205 10.6301H19.0628C14.1246 10.6301 10.1216 14.6332 10.1216 19.5713V23.4281C10.1216 27.2379 12.5054 30.4891 15.8621 31.7769V34.8063C15.8621 35.1652 16.0881 35.4907 16.4244 35.6162C16.5221 35.6528 16.6238 35.6704 16.7247 35.6704C16.9712 35.6704 17.213 35.5652 17.3799 35.3729L19.9855 32.3694H25.2051C29.9965 32.3694 33.8806 28.4852 33.8806 23.6939V19.3056H33.8805ZM31.8608 23.6939C31.8608 27.3638 28.8751 30.3496 25.2051 30.3496H20.5782L17.0129 34.4955C16.9663 34.5496 16.8909 34.569 16.824 34.5443C16.757 34.5195 16.7125 34.4557 16.7125 34.3842C16.7125 33.501 16.7125 31.5169 16.7125 29.9381C14.0496 28.9737 12.1414 26.4198 12.1414 23.4282V19.5714C12.1414 15.7549 15.2464 12.6499 19.0629 12.6499H25.2052C28.8752 12.6499 31.8609 15.6357 31.8609 19.3056V23.6939H31.8608Z" fill="white"/>
</svg>
