<svg viewBox="0 0 44 44" xmlns="http://www.w3.org/2000/svg">
<path d="M22 44C34.1503 44 44 34.1503 44 22C44 9.84974 34.1503 0 22 0C9.84974 0 0 9.84974 0 22C0 34.1503 9.84974 44 22 44Z"/>
<path d="M28.2558 24.9363C27.711 24.5665 26.9952 24.5684 26.4524 24.941L25.6708 25.4774C24.8002 26.0749 23.6424 26.0425 22.8056 25.3985C22.017 24.7915 21.2642 24.1406 20.5494 23.4509C19.8597 22.7361 19.2089 21.9834 18.6019 21.1947C17.9578 20.358 17.9254 19.2002 18.5229 18.3296L19.0594 17.548C19.4319 17.0051 19.4338 16.2894 19.0641 15.7446L16.8268 12.4474C16.2087 11.5367 15.0057 11.2315 14.0299 11.7407C12.0586 12.7691 11.231 15.1476 12.1342 17.1793C13.4342 20.1039 15.1798 22.7791 17.2864 25.1218L18.8785 26.7139C21.2214 28.8205 23.8965 30.5661 26.8211 31.8662C28.8529 32.7693 31.231 31.9423 32.2594 29.9711C32.7686 28.9953 32.4638 27.7916 31.5529 27.1736L28.2558 24.9363Z" fill="white"/>
</svg>
