<svg viewBox="0 0 40 40" fill="none" xmlns="http://www.w3.org/2000/svg">
    <path d="M39.1759 10.3981C38.7147 8.6845 37.3637 7.3338 35.6505 6.87237C32.5203 6.01575 19.9996 6.01575 19.9996 6.01575C19.9996 6.01575 7.47922 6.01575 4.34904 6.83972C2.66875 7.30084 1.28478 8.6848 0.823666 10.3981C0 13.5279 0 20.019 0 20.019C0 20.019 0 26.5427 0.823666 29.6399C1.28509 31.3532 2.63579 32.7042 4.34935 33.1656C7.51218 34.0222 19.9999 34.0222 19.9999 34.0222C19.9999 34.0222 32.5203 34.0222 35.6505 33.1982C37.364 32.7371 38.7147 31.3861 39.1762 29.6729C39.9998 26.5427 39.9998 20.0519 39.9998 20.0519C39.9998 20.0519 40.0328 13.5279 39.1759 10.3981Z" fill="#FF0000"/>
    <path d="M16.0132 26.0156L26.4249 20.0189L16.0132 14.0222V26.0156Z" fill="white"/>
</svg>
