<svg viewBox="0 0 41 28" xmlns="http://www.w3.org/2000/svg">
    <path
        d="M24.6668 0.174316H24.3407L14.4158 5.62307H7.2422C3.31973 5.62307 0.128418 8.81421 0.128418 12.7369C0.128418 16.2452 2.68324 19.1609 6.02816 19.7401L3.72831 27.8258H11.6633L13.9314 19.852H14.4158L24.341 25.2999H24.6671C26.7684 25.2999 28.4784 23.5903 28.4784 21.4886V3.98542C28.4779 1.88426 26.7679 0.174316 24.6668 0.174316ZM9.74459 25.2847H7.09276L8.4873 20.3818H11.1391L9.74459 25.2847ZM18.4049 19.1427L15.0675 17.3107H7.2422C4.72045 17.3107 2.66921 15.2586 2.66921 12.7369C2.66921 10.2151 4.72045 8.16386 7.2422 8.16386H15.0675L18.4049 6.33153V19.1427ZM25.9371 21.4886C25.9371 22.0959 25.5085 22.6045 24.9389 22.7294L20.9457 20.5376V4.93699L24.9389 2.74466C25.509 2.86956 25.9371 3.37865 25.9371 3.98592V21.4886Z"
        />
    <path
        d="M33.354 7.25391L31.5369 9.07105C32.4757 10.3716 33.0356 11.963 33.0356 13.6856C33.0356 15.4088 32.4757 17.0002 31.5369 18.3002L33.354 20.1173C34.7442 18.3426 35.5764 16.11 35.5764 13.6856C35.5764 11.2612 34.7442 9.0288 33.354 7.25391Z"
        />
    <path
        d="M36.5874 4.02002L34.7852 5.8223C36.5353 7.96888 37.5873 10.7065 37.5873 13.6856C37.5873 16.6652 36.5353 19.4024 34.7852 21.5489L36.5874 23.3512C38.7941 20.7385 40.1281 17.3655 40.1281 13.6856C40.1281 10.0058 38.7941 6.63278 36.5874 4.02002Z"
        />
</svg>
