<svg viewBox="0 0 30 24" xmlns="http://www.w3.org/2000/svg">
    <path
        d="M26.8645 8.5957H24.6371V3.6146C24.6371 2.03309 23.2303 0.746582 21.5013 0.746582H3.13579C1.40652 0.746714 0 2.03323 0 3.6146V12.5376C0 14.1187 1.40678 15.4052 3.13579 15.4052H5.36319V20.3859C5.36319 21.967 6.76998 23.2535 8.49898 23.2535H26.8642C28.5932 23.2535 30 21.967 30 20.3859V11.4629C30.0007 9.88221 28.5935 8.5957 26.8645 8.5957ZM2.01118 3.615C2.01118 3.15043 2.52637 2.75829 3.13579 2.75829H21.5013C22.111 2.75829 22.6259 3.15043 22.6259 3.615V5.16994H2.01118V3.615ZM5.36346 11.4633V13.394C5.36346 13.3941 3.13579 13.3941 3.13579 13.3941C2.5261 13.3941 2.01118 13.002 2.01118 12.5377V7.18112H22.6259V8.5957H8.49925C6.77024 8.5957 5.36346 9.88221 5.36346 11.4633ZM26.8649 21.2427H8.49925C7.88956 21.2427 7.37464 20.8506 7.37464 20.3863V11.4633C7.37464 10.999 7.88956 10.6069 8.49925 10.6069H26.8645C27.4742 10.6069 27.9891 10.999 27.9891 11.4633V20.3863H27.9895C27.9895 20.8506 27.4746 21.2427 26.8649 21.2427Z"
        />
    <path d="M15.0006 14.9189H9.51172V16.9301H15.0006V14.9189Z" />
    <path d="M12.3191 17.6846H9.51172V19.6958H12.3191V17.6846Z" />
</svg>
