<svg viewBox="0 0 30 30" xmlns="http://www.w3.org/2000/svg">
    <path
        d="M29.7099 15.9432L15.8386 2.07145C15.7059 1.93873 15.5383 1.84635 15.3549 1.80549L7.56695 0.0611664C7.23594 -0.0131293 6.89009 0.0871895 6.65055 0.327122L0.289871 6.68806C0.0473362 6.9306 -0.0523321 7.28139 0.0265177 7.61539L1.84579 15.3281C1.88808 15.507 1.97916 15.6707 2.1094 15.8009L15.9818 29.6726C16.1676 29.8584 16.4189 29.9627 16.6816 29.9627C16.9443 29.9627 17.1961 29.8584 17.3815 29.6726L29.7098 17.3437C30.0967 16.9566 30.0966 16.3296 29.7099 15.9432ZM16.6814 27.5726L3.708 14.5995L2.08013 7.69788L7.66532 2.11243L14.6414 3.67498L27.6099 16.6434L16.6814 27.5726Z"
        />
    <path
        d="M11.2419 5.92575C10.5367 5.22052 9.59948 4.83252 8.60266 4.83252C7.60585 4.83252 6.6685 5.22078 5.96328 5.92575C4.50833 7.38135 4.50833 9.74905 5.96328 11.2044C6.6685 11.9092 7.60572 12.2974 8.60254 12.2974C9.59935 12.2974 10.5367 11.9092 11.2418 11.2041C12.6969 9.74905 12.6969 7.38135 11.2419 5.92575ZM9.84201 9.80383C9.511 10.1348 9.07082 10.317 8.60293 10.317C8.13503 10.317 7.69472 10.1348 7.36384 9.80383C6.68074 9.12072 6.68074 8.00863 7.36384 7.32527C7.69485 6.99425 8.13503 6.81183 8.60293 6.81183C9.07082 6.81183 9.51113 6.99438 9.84201 7.32501C10.5247 8.00902 10.5247 9.12112 9.84201 9.80383Z"
        />
    <path d="M9.95602 16.8794L16.645 23.5684L18.0448 22.1686L11.3558 15.4796L9.95602 16.8794Z"/>
    <path d="M12.7357 14.0993L19.4246 20.7881L20.8243 19.3883L14.1355 12.6995L12.7357 14.0993Z"/>
    <path d="M23.6038 16.6065L16.9148 9.91748L15.5148 11.3175L22.2038 18.0065L23.6038 16.6065Z"/>
</svg>
