<svg viewBox="0 0 41 40" xmlns="http://www.w3.org/2000/svg">
    <path
        d="M40.5862 19.3258L37.9117 15.4145L38.2721 10.6902C38.3095 10.1988 38.0417 9.73483 37.5973 9.5211L33.3253 7.47037L31.2743 3.19855C31.061 2.75412 30.5927 2.48554 30.1056 2.52372L25.3809 2.88361L21.4699 0.209601C21.063 -0.068565 20.5273 -0.068565 20.1203 0.209601L16.209 2.88361L11.4842 2.52372C10.9936 2.48554 10.5289 2.75412 10.3151 3.19855L8.2644 7.47053L3.99259 9.5211C3.54815 9.73436 3.28035 10.1988 3.31776 10.6902L3.67764 15.4149L1.00379 19.3262C0.725624 19.7331 0.725624 20.2688 1.00379 20.6762L3.6778 24.5875L3.3187 29.3115C3.2813 29.8026 3.54909 30.2668 3.99353 30.4801L8.2655 32.5308L10.3162 36.8028C10.5295 37.2472 10.9947 37.5139 11.4853 37.4776L16.2101 37.1177L20.1214 39.7917C20.3246 39.9308 20.5606 40.0001 20.7962 40.0001C21.0318 40.0001 21.2677 39.9303 21.471 39.7917L25.3823 37.1177L30.1071 37.4776C30.5941 37.5139 31.0621 37.2472 31.2757 36.8032L33.3267 32.531L37.5987 30.4802C38.0431 30.267 38.3109 29.803 38.2735 29.3111L37.9132 24.5869L40.5876 20.6756C40.8644 20.2684 40.8644 19.7326 40.5862 19.3258ZM35.7004 23.5837C35.547 23.8082 35.4749 24.0783 35.4952 24.3499L35.8252 28.6776L31.912 30.5566C31.6668 30.6742 31.4691 30.8719 31.3516 31.1165L29.4726 35.0302L25.1445 34.7006C24.8734 34.6799 24.6036 34.7525 24.3789 34.9059L20.7952 37.3555L17.2116 34.9059C17.0123 34.7696 16.7772 34.6975 16.5368 34.6975C16.5065 34.6975 16.4761 34.6988 16.4459 34.7011L12.1179 35.0307L10.2395 31.1175C10.122 30.8723 9.92381 30.6746 9.67912 30.5571L5.76546 28.6781L6.09549 24.35C6.11624 24.0789 6.0441 23.8091 5.89025 23.5844L3.44065 20.0007L5.89025 16.4171C6.04363 16.1927 6.11576 15.9225 6.09549 15.6514L5.76546 11.3234L9.67912 9.44472C9.92428 9.32717 10.122 9.129 10.2395 8.8843L12.118 4.97064L16.4461 5.30067C16.7183 5.32142 16.9874 5.24928 17.2118 5.09543L20.7954 2.64584L24.379 5.09543C24.6034 5.24881 24.8741 5.32189 25.1447 5.30067L29.4728 4.97064L31.3517 8.8843C31.4693 9.12947 31.667 9.32717 31.9122 9.44472L35.8253 11.3232L35.4953 15.6513C35.4746 15.9224 35.5472 16.1925 35.7006 16.417L38.1506 20.0001L35.7004 23.5837Z"
        />
    <path
        d="M25.3335 14.8448H25.2331C25.5172 13.8576 25.6835 12.6332 25.2585 11.5969C24.9353 10.8076 24.3227 10.2469 23.488 9.97627C23.3126 9.91923 23.1305 9.89062 22.9468 9.89062C21.6586 9.89062 20.706 11.2043 19.5872 13.3251C19.0722 14.3025 18.3099 15.1422 17.8136 15.564C17.7143 15.648 17.6247 15.7334 17.5393 15.8187C17.0375 15.3289 16.3531 15.026 15.5983 15.026C14.0642 15.026 12.8167 16.2743 12.8167 17.8085V24.5707C12.8167 26.1049 14.0646 27.3529 15.5983 27.3529C16.4003 27.3529 17.1221 27.0101 17.6302 26.4648C18.2376 27.0045 19.0348 27.3357 19.9096 27.3357H25.614C28.4655 27.3357 28.7735 25.3226 28.7735 24.4573V18.285C28.7736 16.3881 27.2304 14.8448 25.3335 14.8448ZM15.9893 24.5704C15.9893 24.786 15.8139 24.961 15.5988 24.961C15.3835 24.961 15.2086 24.786 15.2086 24.5704V17.8081C15.2086 17.5925 15.3835 17.4171 15.5988 17.4171C15.8144 17.4171 15.9893 17.5925 15.9893 17.8081V24.5704ZM26.3831 24.4573H26.3824C26.3824 24.841 26.3824 24.9443 25.6143 24.9443H19.9099C19.332 24.9443 18.8617 24.4739 18.8617 23.8964V18.285L18.884 18.2762L18.8601 18.1721C18.8697 18.0693 18.9351 17.7489 19.3624 17.3862C19.6976 17.1016 20.8566 16.0474 21.7032 14.4403C22.364 13.1871 22.7758 12.6376 22.9906 12.4015C23.0137 12.4318 23.0309 12.4656 23.0461 12.5032C23.2983 13.1186 22.9169 14.5319 22.4192 15.4885L21.5093 17.2363H25.3344C25.9123 17.2363 26.3831 17.7066 26.3831 18.285V24.4573Z"
        />
</svg>
