<svg viewBox="0 0 35 40" xmlns="http://www.w3.org/2000/svg">
    <path
        d="M34.6582 36.3323C34.6292 36.2163 31.8045 24.6517 31.4062 20.7999C30.807 15.005 27.5302 10.3782 22.9999 8.32054L24.821 4.09662V3.80229C24.821 1.70543 23.1151 0 21.0184 0H13.8422C11.7449 0 10.0389 1.70543 10.0389 3.80229V4.09662L11.926 8.47333C7.56656 10.6023 4.43372 15.1458 3.84937 20.7999C3.45137 24.6517 0.625805 36.2163 0.59731 36.3323C0.412838 37.0869 0.865394 37.8505 1.61622 38.0501C1.91523 38.1296 9.04195 40 17.6283 40C26.0943 40 33.3304 38.1309 33.6343 38.0516C34.3877 37.8544 34.8436 37.0888 34.6582 36.3323ZM13.8422 2.85238H21.0184C21.4634 2.85238 21.8376 3.15945 21.9404 3.57264L20.2777 7.42968C19.4209 7.25289 18.5355 7.16009 17.628 7.16009C16.592 7.16009 15.5858 7.28363 14.6183 7.51235L12.9202 3.57264C13.0233 3.15945 13.3975 2.85238 13.8422 2.85238ZM17.6281 37.1469C11.5584 37.1469 6.13915 36.1407 3.70615 35.6111C4.48546 32.3514 6.35118 24.3469 6.68732 21.0933C7.21842 15.9574 10.1244 12.0523 14.1487 10.618L11.4723 13.9244L13.6899 15.7193L17.4814 11.0355L21.2722 15.7193L23.4898 13.9244L20.6927 10.4693C24.9339 11.7745 28.0197 15.7811 28.5682 21.0935C28.9049 24.3461 30.7691 32.3463 31.5488 35.6079C29.0969 36.1375 23.6353 37.1469 17.6281 37.1469Z"
        />
    <path
        d="M17.8423 23.1822C16.4649 23.0187 15.4108 22.8265 15.4108 21.9925C15.4108 20.8328 17.0459 20.7074 17.7491 20.7074C18.7928 20.7074 19.9064 21.1976 20.2843 21.8238L20.3942 22.0067L22.5585 21.0049L22.4515 20.7867C21.6442 19.1382 20.1992 18.6613 19.1047 18.4693V17.0239H16.5714V18.4631C14.2127 18.8111 12.8124 20.1202 12.8124 21.993C12.8124 25.0473 15.5848 25.3574 17.608 25.5833C19.4105 25.7968 20.2496 26.2419 20.2496 26.9841C20.2496 28.4023 18.2864 28.5127 17.685 28.5127C16.3457 28.5127 15.0533 27.8438 14.6791 26.9565L14.5863 26.7368L12.2356 27.7338L12.3293 27.9529C13.026 29.5828 14.5274 30.6036 16.5718 30.8443V32.4071H19.1051V30.7658C21.0522 30.5479 22.9458 29.3189 22.9458 26.9845C22.9455 23.813 19.9962 23.4488 17.8423 23.1822Z"
        />
</svg>
