<svg viewBox="0 0 30 20" xmlns="http://www.w3.org/2000/svg">
    <path
        d="M26.6085 0.386719H6.74507C4.87476 0.386719 3.35352 1.77816 3.35352 3.48865V3.76054C1.50094 3.77984 0 5.16213 0 6.86061V16.5111C0 18.2216 1.52152 19.613 3.39154 19.613H23.2549C25.125 19.613 26.6465 18.2216 26.6465 16.5111V16.2392C28.4986 16.2203 30 14.838 30 13.1391V3.4888C30.0004 1.7783 28.4785 0.386719 26.6085 0.386719ZM24.4717 16.5111C24.4717 17.0135 23.9148 17.4376 23.2554 17.4376H3.39197C2.73256 17.4376 2.17564 17.0135 2.17564 16.5111V6.86076C2.17564 6.35859 2.73285 5.93418 3.39197 5.93418H23.2554C23.9148 5.93418 24.4717 6.35873 24.4717 6.86076V16.5111ZM26.6469 14.0627V6.86061C26.6469 5.15012 25.1254 3.75868 23.2554 3.75868H5.52873V3.48865C5.52873 2.98648 6.08594 2.56208 6.74507 2.56208H26.6085C27.2679 2.56208 27.8248 2.98663 27.8248 3.48865V13.1391H27.8252C27.8251 13.6314 27.289 14.0464 26.6469 14.0627Z"
        />
    <path
        d="M13.3624 10.8708C12.447 10.7617 11.9823 10.6312 11.9823 10.2192C11.9823 9.5811 12.906 9.5122 13.3034 9.5122C13.8882 9.5122 14.5349 9.79495 14.7456 10.1426L14.8293 10.2814L16.1653 9.66329L16.0837 9.49691C15.6135 8.53659 14.78 8.24655 14.1365 8.12862V7.27881H12.5738V8.12419C11.1976 8.33847 10.3816 9.11352 10.3816 10.2189C10.3816 12.0378 12.0876 12.2285 13.2155 12.355C14.2407 12.476 14.7186 12.7222 14.7186 13.1293C14.7186 13.9168 13.6063 13.978 13.2651 13.978C12.5002 13.978 11.7634 13.5992 11.5517 13.0963L11.481 12.9292L10.0315 13.5433L10.103 13.7104C10.5108 14.6653 11.3849 15.2675 12.5734 15.4176V16.3337H14.1359V15.3719C15.2765 15.2312 16.3753 14.5017 16.3753 13.1289C16.3757 11.2424 14.5627 11.019 13.3624 10.8708Z"
        />
</svg>
