<svg viewBox="0 0 30 30" xmlns="http://www.w3.org/2000/svg">
    <path
        d="M29.7101 15.9434L15.8385 2.07192C15.7057 1.9392 15.5381 1.84682 15.3551 1.80596L7.56705 0.0612274C7.23578 -0.0133296 6.89018 0.0876411 6.65064 0.327186L0.289875 6.68834C0.0473368 6.93088 -0.0523328 7.28167 0.0265181 7.61568L1.84581 15.3287C1.8881 15.5077 1.97944 15.6713 2.10943 15.8016L15.9813 29.6728C16.1671 29.8586 16.4185 29.9629 16.6812 29.9629C16.9439 29.9629 17.1957 29.8586 17.3811 29.6728L29.7096 17.3437C30.0968 16.9573 30.0968 16.3303 29.7101 15.9434ZM16.6814 27.573L3.70831 14.6001L2.08015 7.69805L7.66542 2.11213L14.6412 3.67496L27.6099 16.6433L16.6814 27.573Z"
        />
    <path
        d="M11.2421 5.92576C10.5369 5.22053 9.59965 4.83252 8.60283 4.83252C7.606 4.83252 6.66864 5.22092 5.96354 5.92576C4.50857 7.38138 4.50857 9.74911 5.96354 11.2045C6.66838 11.9093 7.606 12.2975 8.60283 12.2975C9.59965 12.2975 10.537 11.9093 11.2421 11.2042C12.6968 9.74885 12.6968 7.38112 11.2421 5.92576ZM9.84193 9.80389C9.51092 10.1349 9.07073 10.3171 8.60283 10.3171C8.13493 10.3171 7.69461 10.1349 7.36373 9.80389C6.68061 9.12078 6.68061 8.00867 7.36373 7.3253C7.69474 6.99428 8.13493 6.81186 8.60283 6.81186C9.07073 6.81186 9.51105 6.99441 9.84193 7.32504C10.5247 8.00906 10.5247 9.12078 9.84193 9.80389Z"
        />
    <path
        d="M13.7281 12.0835L12.3154 13.4962L12.9959 14.1763C12.1178 15.4416 12.1102 16.7466 12.9956 17.6314C13.4681 18.104 13.9891 18.3435 14.5449 18.3435H14.5452C15.4412 18.3432 16.2909 17.7242 17.0823 17.0912C17.6706 16.6276 18.1218 16.3922 18.4231 16.3922C18.5402 16.3922 18.6284 16.4274 18.7079 16.5073C18.8241 16.6235 18.9653 16.8212 18.8551 17.1977C18.77 17.4884 18.5482 17.8235 18.2308 18.1406C17.6833 18.6881 16.8293 18.9738 16.3243 18.7682L16.0178 18.6435L15.264 20.5079L15.571 20.6314C15.9452 20.7812 16.3336 20.8578 16.7256 20.8578C17.4635 20.8574 18.2096 20.5895 18.8996 20.0803L19.6335 20.8142L21.0461 19.4018L20.2756 18.6316C21.0223 17.605 21.2919 16.1183 20.1948 15.0208C19.7078 14.5337 19.1649 14.2869 18.5808 14.2869C17.6373 14.2869 16.7598 14.9103 15.8685 15.6056C15.5003 15.8963 14.9953 16.2939 14.6703 16.2939C14.5809 16.2939 14.5092 16.2615 14.437 16.1897C14.3343 16.0871 14.2297 15.93 14.3324 15.6215C14.4166 15.3674 14.6204 15.074 14.9221 14.7724C15.289 14.4048 15.8391 14.1481 16.2599 14.1481C16.3243 14.1481 16.383 14.1547 16.4341 14.1672L16.7209 14.2381L17.371 12.4673L17.0519 12.3578C16.1563 12.0502 15.3184 12.1752 14.414 12.77L13.7281 12.0835Z"
        />
</svg>
