<svg viewBox="0 0 37 40" xmlns="http://www.w3.org/2000/svg">
    <path
        d="M29.2622 8.48516L27.3324 10.9642C31.492 14.2008 33.5669 19.4409 32.748 24.6409C32.1481 28.4566 30.0978 31.8102 26.9753 34.0847C23.8518 36.3579 20.031 37.2819 16.2153 36.6789C8.33849 35.4387 2.93763 28.0216 4.1758 20.1442C4.77569 16.3281 6.82659 12.9742 9.94948 10.7004C12.676 8.71553 15.9341 7.76223 19.2566 7.95132L16.541 10.8003L18.5556 12.7228L22.8424 8.22237L22.8434 8.22402L24.7638 6.20739L22.7507 4.28696L22.7497 4.28758L18.2509 0L16.329 2.01663L19.2604 4.80861C15.2756 4.62014 11.3726 5.77925 8.10089 8.16147C4.29987 10.9291 1.80411 15.0111 1.07335 19.6566C-0.434016 29.2443 6.13917 38.2734 15.7269 39.7822C16.6535 39.9284 17.5798 40 18.5001 40C22.1931 40 25.7815 38.8392 28.8239 36.6236C32.6253 33.8556 35.1207 29.7736 35.8515 25.1291C36.8483 18.8012 34.3232 12.4232 29.2622 8.48516Z"
        />
    <path
        d="M20.1867 31.3715V31.3708H20.187V29.5631C22.3303 29.3239 24.4157 27.9699 24.4157 25.3994C24.4157 21.9068 21.1681 21.5063 18.796 21.2142C17.2794 21.033 16.1186 20.8226 16.1186 19.9038C16.1186 18.6264 17.9191 18.4887 18.6934 18.4887C19.8426 18.4887 21.0688 19.0289 21.4854 19.7184L21.6064 19.9189L23.989 18.8163L23.8711 18.576C22.9833 16.7609 21.3921 16.2357 20.1863 16.0237V14.4321H17.3964V16.0169C14.7991 16.4 13.2566 17.8415 13.2566 19.9038C13.2566 23.2666 16.31 23.6078 18.5376 23.8576C20.5228 24.0917 21.447 24.5821 21.447 25.3994C21.447 26.9607 19.2849 27.0827 18.622 27.0827C17.1466 27.0827 15.7241 26.3465 15.3127 25.3691L15.2105 25.1277L12.6221 26.2251L12.7253 26.4665C13.4918 28.2606 15.1457 29.3848 17.3968 29.6507V31.3715H20.1867Z"
        />
</svg>
