<svg viewBox="0 0 41 36" xmlns="http://www.w3.org/2000/svg">
    <path
        d="M39.9042 11.9478L32.4431 1.27417C32.2102 0.94125 31.83 0.743164 31.4239 0.743164H9.24757C8.85254 0.743164 8.48121 0.930464 8.24701 1.24851L0.371286 11.9221C0.213732 12.1361 0.128418 12.3946 0.128418 12.6604C0.128418 15.1221 1.9241 17.1681 4.27303 17.5699V31.3878C4.27303 33.5209 6.00857 35.2564 8.14159 35.2564H32.4251C34.5581 35.2564 36.2934 33.5209 36.2934 31.3878V17.4865C38.2839 16.9758 39.7997 15.2685 40.0156 13.1773C40.1984 12.778 40.1573 12.3101 39.9042 11.9478ZM29.5589 32.7697H24.3776V22.1479H29.5589V32.7697ZM33.8062 31.3882C33.8067 32.1501 33.1866 32.7697 32.4256 32.7697H32.0459V20.9045C32.0459 20.2177 31.4893 19.6609 30.8024 19.6609H23.134C22.4473 19.6609 21.8904 20.2176 21.8904 20.9045V32.7697H8.14159C7.37965 32.7697 6.76005 32.15 6.76005 31.3882V17.3649C7.57626 17.0784 8.29702 16.5878 8.85745 15.9515C9.77188 16.9903 11.1111 17.6464 12.6 17.6464C14.0889 17.6464 15.4281 16.9902 16.3426 15.9515C17.257 16.9903 18.5962 17.6464 20.0851 17.6464C21.5745 17.6464 22.9137 16.9902 23.8281 15.9515C24.7426 16.9903 26.0818 17.6464 27.5707 17.6464C29.0596 17.6464 30.3988 16.9902 31.3133 15.9515C31.9619 16.6884 32.8275 17.2273 33.8062 17.4814V31.3882ZM35.0565 15.1595C33.6787 15.1595 32.5573 14.0383 32.5573 12.6604C32.5573 11.9736 32.0007 11.4168 31.3137 11.4168C30.627 11.4168 30.0702 11.9734 30.0702 12.6604C30.0702 14.0386 28.949 15.1595 27.571 15.1595C26.1931 15.1595 25.0719 14.0383 25.0719 12.6604C25.0719 11.9736 24.5152 11.4168 23.8283 11.4168C23.1416 11.4168 22.5847 11.9734 22.5847 12.6604C22.5847 14.0386 21.4635 15.1595 20.0853 15.1595C18.707 15.1595 17.5861 14.0383 17.5861 12.6604C17.5861 11.9736 17.0295 11.4168 16.3426 11.4168C15.6556 11.4168 15.099 11.9734 15.099 12.6604C15.099 14.0386 13.9778 15.1595 12.5998 15.1595C11.2219 15.1595 10.1007 14.0383 10.1007 12.6604C10.1007 11.9736 9.54405 11.4168 8.85712 11.4168C8.17019 11.4168 7.61352 11.9734 7.61352 12.6604C7.61352 14.0386 6.49234 15.1595 5.1144 15.1595C3.86264 15.1595 2.82301 14.2348 2.64274 13.0322L9.87501 3.23035H30.7762L37.5435 12.9112C37.417 14.1722 36.3497 15.1595 35.0565 15.1595Z"
        />
    <path
        d="M18.4551 19.6611H9.97333C9.28657 19.6611 8.72974 20.2178 8.72974 20.9047V28.6772C8.72974 29.3639 9.2864 29.9208 9.97333 29.9208H18.4549C19.1417 29.9208 19.6985 29.3641 19.6985 28.6772V20.9047C19.6985 20.2178 19.1418 19.6611 18.4551 19.6611ZM17.2115 27.4336H11.2169V22.1482H17.2115V27.4336Z"
        />
</svg>
